  0
SECTION
  2
HEADER
  9
$ACADVER
  1
AC1015
  9
$ACADMAINTVER
 70
     6
  9
$DWGCODEPAGE
  3
ANSI_1252
  9
$INSBASE
 10
0.0
 20
0.0
 30
0.0
  9
$EXTMIN
 10
0.0
 20
0.0
 30
0.0
  9
$EXTMAX
 10
420.0
 20
297.0
 30
0.0
  9
$LIMMIN
 10
0.0
 20
0.0
  9
$LIMMAX
 10
420.0
 20
297.0
  9
$ORTHOMODE
 70
     0
  9
$REGENMODE
 70
     1
  9
$FILLMODE
 70
     1
  9
$QTEXTMODE
 70
     0
  9
$MIRRTEXT
 70
     1
  9
$LTSCALE
 40
1.0
  9
$ATTMODE
 70
     1
  9
$TEXTSIZE
 40
3.5
  9
$TRACEWID
 40
1.0
  9
$TEXTSTYLE
  7
Standard
  9
$CLAYER
  8
0
  9
$CELTYPE
  6
ByLayer
  9
$CECOLOR
 62
   256
  9
$CELTSCALE
 40
1.0
  9
$DISPSILH
 70
     0
  9
$DIMSCALE
 40
1.0
  9
$DIMASZ
 40
3.302
  9
$DIMEXO
 40
1.0
  9
$DIMDLI
 40
3.75
  9
$DIMRND
 40
0.0
  9
$DIMDLE
 40
0.0
  9
$DIMEXE
 40
1.0
  9
$DIMTP
 40
0.0
  9
$DIMTM
 40
0.0
  9
$DIMTXT
 40
3.5
  9
$DIMCEN
 40
2.5
  9
$DIMTSZ
 40
0.0
  9
$DIMTOL
 70
     0
  9
$DIMLIM
 70
     0
  9
$DIMTIH
 70
     1
  9
$DIMTOH
 70
     1
  9
$DIMSE1
 70
     0
  9
$DIMSE2
 70
     0
  9
$DIMTAD
 70
     1
  9
$DIMZIN
 70
     1
  9
$DIMBLK
  1

  9
$DIMASO
 70
     1
  9
$DIMSHO
 70
     1
  9
$DIMPOST
  1

  9
$DIMAPOST
  1

  9
$DIMALT
 70
     0
  9
$DIMALTD
 70
     3
  9
$DIMALTF
 40
0.0393700787
  9
$DIMLFAC
 40
2.0
  9
$DIMTOFL
 70
     1
  9
$DIMTVP
 40
0.0
  9
$DIMTIX
 70
     0
  9
$DIMSOXD
 70
     0
  9
$DIMSAH
 70
     0
  9
$DIMBLK1
  1

  9
$DIMBLK2
  1

  9
$DIMSTYLE
  2
ISO-25
  9
$DIMCLRD
 70
     0
  9
$DIMCLRE
 70
     0
  9
$DIMCLRT
 70
     0
  9
$DIMTFAC
 40
1.0
  9
$DIMGAP
 40
1.524
  9
$DIMJUST
 70
     0
  9
$DIMSD1
 70
     0
  9
$DIMSD2
 70
     0
  9
$DIMTOLJ
 70
     0
  9
$DIMTZIN
 70
     1
  9
$DIMALTZ
 70
     0
  9
$DIMALTTZ
 70
     0
  9
$DIMUPT
 70
     0
  9
$DIMDEC
 70
     2
  9
$DIMTDEC
 70
     2
  9
$DIMALTU
 70
     2
  9
$DIMALTTD
 70
     3
  9
$DIMTXSTY
  7
Standard
  9
$DIMAUNIT
 70
     0
  9
$DIMADEC
 70
     2
  9
$DIMALTRND
 40
0.0
  9
$DIMAZIN
 70
     0
  9
$DIMDSEP
 70
    44
  9
$DIMATFIT
 70
     3
  9
$DIMFRAC
 70
     0
  9
$DIMLDRBLK
  1

  9
$DIMLUNIT
 70
     2
  9
$DIMLWD
 70
    -2
  9
$DIMLWE
 70
    -2
  9
$DIMTMOVE
 70
     0
  9
$LUNITS
 70
     2
  9
$LUPREC
 70
     2
  9
$SKETCHINC
 40
1.0
  9
$FILLETRAD
 40
10.0
  9
$AUNITS
 70
     0
  9
$AUPREC
 70
     2
  9
$MENU
  1
.
  9
$ELEVATION
 40
0.0
  9
$PELEVATION
 40
0.0
  9
$THICKNESS
 40
0.0
  9
$LIMCHECK
 70
     0
  9
$CHAMFERA
 40
0.0
  9
$CHAMFERB
 40
0.0
  9
$CHAMFERC
 40
0.0
  9
$CHAMFERD
 40
0.0
  9
$SKPOLY
 70
     0
  9
$TDCREATE
 40
2460362.659816516
  9
$TDUCREATE
 40
2460362.659816516
  9
$TDUPDATE
 40
2460362.659822662
  9
$TDUUPDATE
 40
2460362.659822662
  9
$TDINDWG
 40
0.0000000116
  9
$TDUSRTIMER
 40
0.0000000116
  9
$USRTIMER
 70
     1
  9
$ANGBASE
 50
0.0
  9
$ANGDIR
 70
     0
  9
$PDMODE
 70
     0
  9
$PDSIZE
 40
-1.0
  9
$PLINEWID
 40
0.0
  9
$SPLFRAME
 70
     0
  9
$SPLINETYPE
 70
     6
  9
$SPLINESEGS
 70
     8
  9
$HANDSEED
  5
313
  9
$SURFTAB1
 70
     6
  9
$SURFTAB2
 70
     6
  9
$SURFTYPE
 70
     6
  9
$SURFU
 70
     6
  9
$SURFV
 70
     6
  9
$UCSBASE
  2

  9
$UCSNAME
  2

  9
$UCSORG
 10
0.0
 20
0.0
 30
0.0
  9
$UCSXDIR
 10
1.0
 20
0.0
 30
0.0
  9
$UCSYDIR
 10
0.0
 20
1.0
 30
0.0
  9
$UCSORTHOREF
  2

  9
$UCSORTHOVIEW
 70
     0
  9
$UCSORGTOP
 10
0.0
 20
0.0
 30
0.0
  9
$UCSORGBOTTOM
 10
0.0
 20
0.0
 30
0.0
  9
$UCSORGLEFT
 10
0.0
 20
0.0
 30
0.0
  9
$UCSORGRIGHT
 10
0.0
 20
0.0
 30
0.0
  9
$UCSORGFRONT
 10
0.0
 20
0.0
 30
0.0
  9
$UCSORGBACK
 10
0.0
 20
0.0
 30
0.0
  9
$PUCSBASE
  2

  9
$PUCSNAME
  2

  9
$PUCSORG
 10
0.0
 20
0.0
 30
0.0
  9
$PUCSXDIR
 10
1.0
 20
0.0
 30
0.0
  9
$PUCSYDIR
 10
0.0
 20
1.0
 30
0.0
  9
$PUCSORTHOREF
  2

  9
$PUCSORTHOVIEW
 70
     0
  9
$PUCSORGTOP
 10
0.0
 20
0.0
 30
0.0
  9
$PUCSORGBOTTOM
 10
0.0
 20
0.0
 30
0.0
  9
$PUCSORGLEFT
 10
0.0
 20
0.0
 30
0.0
  9
$PUCSORGRIGHT
 10
0.0
 20
0.0
 30
0.0
  9
$PUCSORGFRONT
 10
0.0
 20
0.0
 30
0.0
  9
$PUCSORGBACK
 10
0.0
 20
0.0
 30
0.0
  9
$USERI1
 70
     0
  9
$USERI2
 70
     0
  9
$USERI3
 70
     0
  9
$USERI4
 70
     0
  9
$USERI5
 70
     0
  9
$USERR1
 40
0.0
  9
$USERR2
 40
0.0
  9
$USERR3
 40
0.0
  9
$USERR4
 40
0.0
  9
$USERR5
 40
0.0
  9
$WORLDVIEW
 70
     1
  9
$SHADEDGE
 70
     3
  9
$SHADEDIF
 70
    70
  9
$TILEMODE
 70
     1
  9
$MAXACTVP
 70
    64
  9
$PINSBASE
 10
0.0
 20
0.0
 30
0.0
  9
$PLIMCHECK
 70
     0
  9
$PEXTMIN
 10
1.0000000000E+20
 20
1.0000000000E+20
 30
1.0000000000E+20
  9
$PEXTMAX
 10
-1.0000000000E+20
 20
-1.0000000000E+20
 30
-1.0000000000E+20
  9
$PLIMMIN
 10
0.0
 20
0.0
  9
$PLIMMAX
 10
420.0
 20
297.0
  9
$UNITMODE
 70
     0
  9
$VISRETAIN
 70
     1
  9
$PLINEGEN
 70
     0
  9
$PSLTSCALE
 70
     1
  9
$TREEDEPTH
 70
  3020
  9
$CMLSTYLE
  2
Standard
  9
$CMLJUST
 70
     0
  9
$CMLSCALE
 40
20.0
  9
$PROXYGRAPHICS
 70
     1
  9
$MEASUREMENT
 70
     1
  9
$CELWEIGHT
370
    -1
  9
$ENDCAPS
280
     0
  9
$JOINSTYLE
280
     0
  9
$LWDISPLAY
290
     1
  9
$INSUNITS
 70
     4
  9
$HYPERLINKBASE
  1

  9
$STYLESHEET
  1

  9
$XEDIT
290
     1
  9
$CEPSNTYPE
380
     0
  9
$PSTYLEMODE
290
     1
  9
$FINGERPRINTGUID
  2
{074244df-1d40-41af-82f4-52706ac938a0}
  9
$VERSIONGUID
  2
{FAEB1C32-E019-11D5-929B-00C0DF256EC4}
  9
$EXTNAMES
290
     1
  9
$PSVPSCALE
 40
0.0
  9
$OLESTARTUP
290
     0
  0
ENDSEC
  0
SECTION
  2
CLASSES
  0
CLASS
  1
ACDBDICTIONARYWDFLT
  2
AcDbDictionaryWithDefault
  3
ObjectDBX Classes
 90
        0
280
     0
281
     0
  0
CLASS
  1
VISUALSTYLE
  2
AcDbVisualStyle
  3
ObjectDBX Classes
 90
     4095
280
     0
281
     0
  0
CLASS
  1
MATERIAL
  2
AcDbMaterial
  3
ObjectDBX Classes
 90
     1153
280
     0
281
     0
  0
CLASS
  1
SCALE
  2
AcDbScale
  3
ObjectDBX Classes
 90
     1153
280
     0
281
     0
  0
CLASS
  1
TABLESTYLE
  2
AcDbTableStyle
  3
ObjectDBX Classes
 90
     4095
280
     0
281
     0
  0
CLASS
  1
MLEADERSTYLE
  2
AcDbMLeaderStyle
  3
ACDB_MLEADERSTYLE_CLASS
 90
     4095
280
     0
281
     0
  0
CLASS
  1
SUN
  2
AcDbSun
  3
SCENEOE
 90
     1153
280
     0
281
     0
  0
CLASS
  1
ACDBPLACEHOLDER
  2
AcDbPlaceHolder
  3
ObjectDBX Classes
 90
        0
280
     0
281
     0
  0
CLASS
  1
LAYOUT
  2
AcDbLayout
  3
ObjectDBX Classes
 90
        0
280
     0
281
     0
  0
ENDSEC
  0
SECTION
  2
TABLES
  0
TABLE
  2
VPORT
  5
8
330
0
100
AcDbSymbolTable
 70
     1
  0
VPORT
  5
29
330
8
100
AcDbSymbolTableRecord
100
AcDbViewportTableRecord
  2
*Active
 70
     0
 10
0.0
 20
0.0
 11
1.0
 21
1.0
 12
210.0
 22
148.5
 13
0.0
 23
0.0
 14
10.0
 24
10.0
 15
10.0
 25
10.0
 16
0.0
 26
0.0
 36
1.0
 17
0.0
 27
0.0
 37
0.0
 40
297.0
 41
1.4141414141
 42
50.0
 43
0.0
 44
0.0
 50
0.0
 51
0.0
 71
     0
 72
  2000
 73
     1
 74
     3
 75
     0
 76
     0
 77
     0
 78
     0
281
     0
 65
     1
110
0.0
120
0.0
130
0.0
111
1.0
121
0.0
131
0.0
112
0.0
122
1.0
132
0.0
 79
     0
146
0.0
  0
ENDTAB
  0
TABLE
  2
LTYPE
  5
5
330
0
100
AcDbSymbolTable
 70
     6
  0
LTYPE
  5
14
330
5
100
AcDbSymbolTableRecord
100
AcDbLinetypeTableRecord
  2
ByBlock
 70
     0
  3

 72
    65
 73
     0
 40
0.0
  0
LTYPE
  5
15
330
5
100
AcDbSymbolTableRecord
100
AcDbLinetypeTableRecord
  2
ByLayer
 70
     0
  3

 72
    65
 73
     0
 40
0.0
  0
LTYPE
  5
16
330
5
100
AcDbSymbolTableRecord
100
AcDbLinetypeTableRecord
  2
Continuous
 70
     0
  3
Solid line
 72
    65
 73
     0
 40
0.0
  0
LTYPE
  5
6E
330
5
100
AcDbSymbolTableRecord
100
AcDbLinetypeTableRecord
  2
HIDDEN
 70
     0
  3
Hidden __ __ __ __ __ __ __ __ __ __ __ __ __ __
 72
    65
 73
     2
 40
1.905
 49
1.27
 74
     0
 49
-0.635
 74
     0
  0
LTYPE
  5
6F
330
5
100
AcDbSymbolTableRecord
100
AcDbLinetypeTableRecord
  2
PHANTOM
 70
     0
  3
Phantom ______  __  __  ______  __  __  ______
 72
    65
 73
     6
 40
12.7
 49
6.35
 74
     0
 49
-1.27
 74
     0
 49
1.27
 74
     0
 49
-1.27
 74
     0
 49
1.27
 74
     0
 49
-1.27
 74
     0
  0
LTYPE
  5
70
330
5
100
AcDbSymbolTableRecord
100
AcDbLinetypeTableRecord
  2
CENTER
 70
     0
  3
Center ____ _ ____ _ ____ _ ____ _ ____ _ ____
 72
    65
 73
     4
 40
10.16
 49
6.35
 74
     0
 49
-1.27
 74
     0
 49
1.27
 74
     0
 49
-1.27
 74
     0
  0
LTYPE
  5
71
330
5
100
AcDbSymbolTableRecord
100
AcDbLinetypeTableRecord
  2
CENTERX2
 70
     0
  3
Center (2x) ________  __  ________  __  _____
 72
    65
 73
     4
 40
20.32
 49
12.7
 74
     0
 49
-2.54
 74
     0
 49
2.54
 74
     0
 49
-2.54
 74
     0
  0
LTYPE
  5
72
330
5
100
AcDbSymbolTableRecord
100
AcDbLinetypeTableRecord
  2
DOT2
 70
     0
  3
Dot (.5x) ........................................
 72
    65
 73
     2
 40
0.635
 49
0.0
 74
     0
 49
-0.635
 74
     0
  0
ENDTAB
  0
TABLE
  2
LAYER
  5
2
330
0
100
AcDbSymbolTable
 70
     2
  0
LAYER
  5
10
330
2
100
AcDbSymbolTableRecord
100
AcDbLayerTableRecord
  2
0
 70
     0
 62
     7
  6
Continuous
370
    -3
390
F
  0
LAYER
  5
73
330
2
100
AcDbSymbolTableRecord
100
AcDbLayerTableRecord
  2
FORMAT
 70
     0
 62
     7
  6
Continuous
370
    -3
390
F
  0
ENDTAB
  0
TABLE
  2
STYLE
  5
3
330
0
100
AcDbSymbolTable
 70
     5
  0
STYLE
  5
11
330
3
100
AcDbSymbolTableRecord
100
AcDbTextStyleTableRecord
  2
Standard
 70
     0
 40
0.0
 41
1.0
 50
0.0
 71
     0
 42
3.5
  3
txt
  4

  0
STYLE
  5
A5
330
3
100
AcDbSymbolTableRecord
100
AcDbTextStyleTableRecord
  2
SLDTEXTSTYLE0
 70
     0
 40
0.0
 41
0.75
 50
0.0
 71
     0
 42
3.5
  3
TXT
  4

  0
STYLE
  5
CF
330
3
100
AcDbSymbolTableRecord
100
AcDbTextStyleTableRecord
  2
SLDTEXTSTYLE1
 70
     0
 40
0.0
 41
0.6875
 50
0.0
 71
     0
 42
3.5
  3
TXT
  4

  0
STYLE
  5
D3
330
3
100
AcDbSymbolTableRecord
100
AcDbTextStyleTableRecord
  2
SLDTEXTSTYLE2
 70
     0
 40
0.0
 41
0.663
 50
0.0
 71
     0
 42
3.5
  3
TXT
  4

  0
STYLE
  5
212
330
3
100
AcDbSymbolTableRecord
100
AcDbTextStyleTableRecord
  2
SLDTEXTSTYLE3
 70
     0
 40
0.0
 41
0.6666666667
 50
0.0
 71
     0
 42
3.5
  3
TXT
  4

  0
ENDTAB
  0
TABLE
  2
VIEW
  5
6
330
0
100
AcDbSymbolTable
 70
     0
  0
ENDTAB
  0
TABLE
  2
UCS
  5
7
330
0
100
AcDbSymbolTable
 70
     0
  0
ENDTAB
  0
TABLE
  2
APPID
  5
9
330
0
100
AcDbSymbolTable
 70
     1
  0
APPID
  5
12
330
9
100
AcDbSymbolTableRecord
100
AcDbRegAppTableRecord
  2
ACAD
 70
     0
  0
ENDTAB
  0
TABLE
  2
DIMSTYLE
  5
A
330
0
100
AcDbSymbolTable
 70
    10
100
AcDbDimStyleTable
  0
DIMSTYLE
105
27
330
A
100
AcDbSymbolTableRecord
100
AcDbDimStyleTableRecord
  2
ISO-25
 70
     0
 41
2.5
 42
0.625
 43
3.75
 44
1.25
 73
     0
 74
     0
 77
     1
 78
     8
140
2.5
141
2.5
143
0.0393700787
147
0.625
171
     3
172
     1
178
     0
271
     2
272
     2
274
     3
278
    44
283
     0
284
     8
340
11
  0
DIMSTYLE
105
103
102
{ACAD_REACTORS
330
102
330
136
330
184
330
1A9
102
}
330
A
100
AcDbSymbolTableRecord
100
AcDbDimStyleTableRecord
  2
SLDDIMSTYLE0
 70
     0
 41
0.3386666667
 44
0.0
 45
0.000000001
140
3.5
144
2.0
147
0.875
173
     1
178
     0
271
     1
272
     1
276
     2
284
    12
340
A5
341
104
343
104
344
104
  0
DIMSTYLE
105
112
102
{ACAD_REACTORS
330
111
330
11C
330
126
330
12E
330
13F
330
149
330
151
330
159
330
161
330
169
330
171
330
18D
330
197
330
1BD
330
1C7
330
1CF
330
1D7
330
1DF
330
1E7
330
1EF
102
}
330
A
100
AcDbSymbolTableRecord
100
AcDbDimStyleTableRecord
  2
SLDDIMSTYLE1
 70
     0
 41
3.302
 44
0.0
 45
0.000000001
 78
    12
 79
     3
140
3.5
144
2.0
147
0.875
173
     1
178
     0
271
     1
272
     1
276
     2
284
    12
340
A5
  0
DIMSTYLE
105
17C
102
{ACAD_REACTORS
330
17B
330
1A1
102
}
330
A
100
AcDbSymbolTableRecord
100
AcDbDimStyleTableRecord
  2
SLDDIMSTYLE2
 70
     0
 41
3.302
 44
0.0
 45
0.000000001
 78
     4
 79
     1
140
3.5
144
2.0
147
0.875
173
     1
178
     0
271
     2
272
     2
276
     2
284
    12
340
A5
  0
DIMSTYLE
105
1B3
102
{ACAD_REACTORS
330
1B2
102
}
330
A
100
AcDbSymbolTableRecord
100
AcDbDimStyleTableRecord
  2
SLDDIMSTYLE3
 70
     0
 41
3.302
 44
0.0
 45
0.000000001
 78
     4
 79
     1
140
3.5
144
2.0
147
0.875
173
     1
178
     0
271
     1
272
     1
276
     2
284
    12
340
A5
  0
DIMSTYLE
105
1F8
102
{ACAD_REACTORS
330
1F7
102
}
330
A
100
AcDbSymbolTableRecord
100
AcDbDimStyleTableRecord
  2
SLDDIMSTYLE4
 70
     0
 41
3.302
 44
0.0
 45
0.000000001
 78
     4
 79
     1
140
3.5
141
0.0
144
2.0
147
0.875
173
     1
178
     0
271
     1
272
     1
276
     2
284
    12
340
A5
341
1F9
343
1F9
344
1F9
  0
DIMSTYLE
105
202
102
{ACAD_REACTORS
330
201
102
}
330
A
100
AcDbSymbolTableRecord
100
AcDbDimStyleTableRecord
  2
SLDDIMSTYLE5
 70
     0
 41
3.302
 44
0.0
 45
0.000000001
 78
     4
 79
     1
140
3.5
141
0.0
144
2.0
147
0.875
173
     1
178
     0
271
     1
272
     1
276
     2
284
    12
340
A5
  0
DIMSTYLE
105
20B
102
{ACAD_REACTORS
330
20A
102
}
330
A
100
AcDbSymbolTableRecord
100
AcDbDimStyleTableRecord
  2
SLDDIMSTYLE6
 70
     0
 41
3.302
 44
0.0
 45
0.000000001
 78
    12
 79
     3
140
3.5
141
0.0
144
2.0
147
0.875
173
     1
178
     0
271
     1
272
     2
276
     2
284
    12
340
A5
  0
DIMSTYLE
105
217
102
{ACAD_REACTORS
330
216
102
}
330
A
100
AcDbSymbolTableRecord
100
AcDbDimStyleTableRecord
  2
SLDDIMSTYLE7
 70
     0
 41
3.302
 44
0.0
 45
0.000000001
 78
     4
 79
     1
140
3.5
141
0.0
144
2.0
147
0.875
173
     1
178
     0
271
     2
272
     2
276
     2
284
    12
340
A5
  0
DIMSTYLE
105
222
102
{ACAD_REACTORS
330
221
102
}
330
A
100
AcDbSymbolTableRecord
100
AcDbDimStyleTableRecord
  2
SLDDIMSTYLE8
 70
     0
 41
3.302
 44
0.0
 45
0.000000001
 78
     4
 79
     1
140
3.5
141
0.0
144
2.0
147
0.875
173
     1
178
     0
271
     1
272
     2
276
     2
284
    12
340
A5
  0
ENDTAB
  0
TABLE
  2
BLOCK_RECORD
  5
1
330
0
100
AcDbSymbolTable
 70
    55
  0
BLOCK_RECORD
  5
1F
330
1
100
AcDbSymbolTableRecord
100
AcDbBlockTableRecord
  2
*Model_Space
340
22
  0
BLOCK_RECORD
  5
1B
330
1
100
AcDbSymbolTableRecord
100
AcDbBlockTableRecord
  2
*Paper_Space
340
1E
  0
BLOCK_RECORD
  5
23
330
1
100
AcDbSymbolTableRecord
100
AcDbBlockTableRecord
  2
*Paper_Space0
340
26
  0
BLOCK_RECORD
  5
A2
330
1
100
AcDbSymbolTableRecord
100
AcDbBlockTableRecord
  2
SW_NOTE_0
340
0
102
{BLKREFS
331
AE
102
}
  0
BLOCK_RECORD
  5
104
330
1
100
AcDbSymbolTableRecord
100
AcDbBlockTableRecord
  2
_Origin
340
0
102
{BLKREFS
331
10C
331
13A
331
188
331
1AD
102
}
  0
BLOCK_RECORD
  5
109
330
1
100
AcDbSymbolTableRecord
100
AcDbBlockTableRecord
  2
_D
340
0
  0
BLOCK_RECORD
  5
113
330
1
100
AcDbSymbolTableRecord
100
AcDbBlockTableRecord
  2
_D_1
340
0
  0
BLOCK_RECORD
  5
11D
330
1
100
AcDbSymbolTableRecord
100
AcDbBlockTableRecord
  2
_D_2
340
0
  0
BLOCK_RECORD
  5
127
330
1
100
AcDbSymbolTableRecord
100
AcDbBlockTableRecord
  2
_D_3
340
0
  0
BLOCK_RECORD
  5
12F
330
1
100
AcDbSymbolTableRecord
100
AcDbBlockTableRecord
  2
_D_4
340
0
  0
BLOCK_RECORD
  5
137
330
1
100
AcDbSymbolTableRecord
100
AcDbBlockTableRecord
  2
_D_5
340
0
  0
BLOCK_RECORD
  5
140
330
1
100
AcDbSymbolTableRecord
100
AcDbBlockTableRecord
  2
_D_6
340
0
  0
BLOCK_RECORD
  5
14A
330
1
100
AcDbSymbolTableRecord
100
AcDbBlockTableRecord
  2
_D_7
340
0
  0
BLOCK_RECORD
  5
152
330
1
100
AcDbSymbolTableRecord
100
AcDbBlockTableRecord
  2
_D_8
340
0
  0
BLOCK_RECORD
  5
15A
330
1
100
AcDbSymbolTableRecord
100
AcDbBlockTableRecord
  2
_D_9
340
0
  0
BLOCK_RECORD
  5
162
330
1
100
AcDbSymbolTableRecord
100
AcDbBlockTableRecord
  2
_D_10
340
0
  0
BLOCK_RECORD
  5
16A
330
1
100
AcDbSymbolTableRecord
100
AcDbBlockTableRecord
  2
_D_11
340
0
  0
BLOCK_RECORD
  5
172
330
1
100
AcDbSymbolTableRecord
100
AcDbBlockTableRecord
  2
_D_12
340
0
  0
BLOCK_RECORD
  5
17D
330
1
100
AcDbSymbolTableRecord
100
AcDbBlockTableRecord
  2
_D_13
340
0
  0
BLOCK_RECORD
  5
185
330
1
100
AcDbSymbolTableRecord
100
AcDbBlockTableRecord
  2
_D_14
340
0
  0
BLOCK_RECORD
  5
18E
330
1
100
AcDbSymbolTableRecord
100
AcDbBlockTableRecord
  2
_D_15
340
0
  0
BLOCK_RECORD
  5
198
330
1
100
AcDbSymbolTableRecord
100
AcDbBlockTableRecord
  2
_D_16
340
0
  0
BLOCK_RECORD
  5
1A2
330
1
100
AcDbSymbolTableRecord
100
AcDbBlockTableRecord
  2
_D_17
340
0
  0
BLOCK_RECORD
  5
1AA
330
1
100
AcDbSymbolTableRecord
100
AcDbBlockTableRecord
  2
_D_18
340
0
  0
BLOCK_RECORD
  5
1B4
330
1
100
AcDbSymbolTableRecord
100
AcDbBlockTableRecord
  2
_D_19
340
0
  0
BLOCK_RECORD
  5
1BE
330
1
100
AcDbSymbolTableRecord
100
AcDbBlockTableRecord
  2
_D_20
340
0
  0
BLOCK_RECORD
  5
1C8
330
1
100
AcDbSymbolTableRecord
100
AcDbBlockTableRecord
  2
_D_21
340
0
  0
BLOCK_RECORD
  5
1D0
330
1
100
AcDbSymbolTableRecord
100
AcDbBlockTableRecord
  2
_D_22
340
0
  0
BLOCK_RECORD
  5
1D8
330
1
100
AcDbSymbolTableRecord
100
AcDbBlockTableRecord
  2
_D_23
340
0
  0
BLOCK_RECORD
  5
1E0
330
1
100
AcDbSymbolTableRecord
100
AcDbBlockTableRecord
  2
_D_24
340
0
  0
BLOCK_RECORD
  5
1E8
330
1
100
AcDbSymbolTableRecord
100
AcDbBlockTableRecord
  2
_D_25
340
0
  0
BLOCK_RECORD
  5
1F0
330
1
100
AcDbSymbolTableRecord
100
AcDbBlockTableRecord
  2
_D_26
340
0
  0
BLOCK_RECORD
  5
1F9
330
1
100
AcDbSymbolTableRecord
100
AcDbBlockTableRecord
  2
_None
340
0
  0
BLOCK_RECORD
  5
1FC
330
1
100
AcDbSymbolTableRecord
100
AcDbBlockTableRecord
  2
_D_27
340
0
  0
BLOCK_RECORD
  5
203
330
1
100
AcDbSymbolTableRecord
100
AcDbBlockTableRecord
  2
_D_28
340
0
  0
BLOCK_RECORD
  5
20C
330
1
100
AcDbSymbolTableRecord
100
AcDbBlockTableRecord
  2
_D_29
340
0
  0
BLOCK_RECORD
  5
218
330
1
100
AcDbSymbolTableRecord
100
AcDbBlockTableRecord
  2
_D_30
340
0
  0
BLOCK_RECORD
  5
223
330
1
100
AcDbSymbolTableRecord
100
AcDbBlockTableRecord
  2
_D_31
340
0
  0
BLOCK_RECORD
  5
22C
330
1
100
AcDbSymbolTableRecord
100
AcDbBlockTableRecord
  2
SW_CENTERMARKSYMBOL_0
340
0
102
{BLKREFS
331
237
102
}
  0
BLOCK_RECORD
  5
238
330
1
100
AcDbSymbolTableRecord
100
AcDbBlockTableRecord
  2
SW_CENTERMARKSYMBOL_1
340
0
102
{BLKREFS
331
243
102
}
  0
BLOCK_RECORD
  5
244
330
1
100
AcDbSymbolTableRecord
100
AcDbBlockTableRecord
  2
SW_CENTERMARKSYMBOL_2
340
0
102
{BLKREFS
331
24F
102
}
  0
BLOCK_RECORD
  5
250
330
1
100
AcDbSymbolTableRecord
100
AcDbBlockTableRecord
  2
SW_CENTERMARKSYMBOL_3
340
0
102
{BLKREFS
331
25B
102
}
  0
BLOCK_RECORD
  5
25C
330
1
100
AcDbSymbolTableRecord
100
AcDbBlockTableRecord
  2
SW_CENTERMARKSYMBOL_4
340
0
102
{BLKREFS
331
267
102
}
  0
BLOCK_RECORD
  5
268
330
1
100
AcDbSymbolTableRecord
100
AcDbBlockTableRecord
  2
SW_CENTERMARKSYMBOL_5
340
0
102
{BLKREFS
331
273
102
}
  0
BLOCK_RECORD
  5
274
330
1
100
AcDbSymbolTableRecord
100
AcDbBlockTableRecord
  2
SW_CENTERMARKSYMBOL_6
340
0
102
{BLKREFS
331
27F
102
}
  0
BLOCK_RECORD
  5
280
330
1
100
AcDbSymbolTableRecord
100
AcDbBlockTableRecord
  2
SW_CENTERMARKSYMBOL_7
340
0
102
{BLKREFS
331
28B
102
}
  0
BLOCK_RECORD
  5
28C
330
1
100
AcDbSymbolTableRecord
100
AcDbBlockTableRecord
  2
SW_CENTERMARKSYMBOL_8
340
0
102
{BLKREFS
331
297
102
}
  0
BLOCK_RECORD
  5
298
330
1
100
AcDbSymbolTableRecord
100
AcDbBlockTableRecord
  2
SW_CENTERMARKSYMBOL_9
340
0
102
{BLKREFS
331
2A3
102
}
  0
BLOCK_RECORD
  5
2A4
330
1
100
AcDbSymbolTableRecord
100
AcDbBlockTableRecord
  2
SW_CENTERMARKSYMBOL_10
340
0
102
{BLKREFS
331
2AF
102
}
  0
BLOCK_RECORD
  5
2B0
330
1
100
AcDbSymbolTableRecord
100
AcDbBlockTableRecord
  2
SW_CENTERMARKSYMBOL_11
340
0
102
{BLKREFS
331
2BB
102
}
  0
BLOCK_RECORD
  5
2BC
330
1
100
AcDbSymbolTableRecord
100
AcDbBlockTableRecord
  2
SW_CENTERMARKSYMBOL_12
340
0
102
{BLKREFS
331
2C7
102
}
  0
BLOCK_RECORD
  5
2C8
330
1
100
AcDbSymbolTableRecord
100
AcDbBlockTableRecord
  2
SW_CENTERMARKSYMBOL_13
340
0
102
{BLKREFS
331
2D3
102
}
  0
BLOCK_RECORD
  5
2D4
330
1
100
AcDbSymbolTableRecord
100
AcDbBlockTableRecord
  2
SW_CENTERMARKSYMBOL_14
340
0
102
{BLKREFS
331
2DF
102
}
  0
BLOCK_RECORD
  5
2E0
330
1
100
AcDbSymbolTableRecord
100
AcDbBlockTableRecord
  2
SW_CENTERMARKSYMBOL_15
340
0
102
{BLKREFS
331
2EB
102
}
  0
BLOCK_RECORD
  5
2EC
330
1
100
AcDbSymbolTableRecord
100
AcDbBlockTableRecord
  2
SW_CENTERMARKSYMBOL_16
340
0
102
{BLKREFS
331
2F7
102
}
  0
BLOCK_RECORD
  5
2F8
330
1
100
AcDbSymbolTableRecord
100
AcDbBlockTableRecord
  2
SW_CENTERMARKSYMBOL_17
340
0
102
{BLKREFS
331
303
102
}
  0
BLOCK_RECORD
  5
304
330
1
100
AcDbSymbolTableRecord
100
AcDbBlockTableRecord
  2
SW_CENTERMARKSYMBOL_18
340
0
102
{BLKREFS
331
30F
102
}
  0
ENDTAB
  0
ENDSEC
  0
SECTION
  2
BLOCKS
  0
BLOCK
  5
20
330
1F
100
AcDbEntity
  8
0
100
AcDbBlockBegin
  2
*Model_Space
 70
     0
 10
0.0
 20
0.0
 30
0.0
  3
*Model_Space
  1

  0
ENDBLK
  5
21
330
1F
100
AcDbEntity
  8
0
100
AcDbBlockEnd
  0
BLOCK
  5
1C
330
1B
100
AcDbEntity
 67
     1
  8
0
100
AcDbBlockBegin
  2
*Paper_Space
 70
     0
 10
0.0
 20
0.0
 30
0.0
  3
*Paper_Space
  1

  0
ENDBLK
  5
1D
330
1B
100
AcDbEntity
 67
     1
  8
0
100
AcDbBlockEnd
  0
BLOCK
  5
24
330
23
100
AcDbEntity
  8
0
100
AcDbBlockBegin
  2
*Paper_Space0
 70
     0
 10
0.0
 20
0.0
 30
0.0
  3
*Paper_Space0
  1

  0
ENDBLK
  5
25
330
23
100
AcDbEntity
  8
0
100
AcDbBlockEnd
  0
BLOCK
  5
A3
330
A2
100
AcDbEntity
  8
0
100
AcDbBlockBegin
  2
SW_NOTE_0
 70
     0
 10
0.0
 20
0.0
 30
0.0
  3
SW_NOTE_0
  1

  0
MTEXT
  5
A6
330
A2
100
AcDbEntity
  8
0
  6
Continuous
 62
     0
370
     0
100
AcDbMText
 10
0.0
 20
4.5117370892
 30
0.0
 40
3.5
 41
0.0
 71
     1
 72
     1
  1
\LTHICKNESS:
  7
SLDTEXTSTYLE0
 73
     1
 44
1.0
  0
MTEXT
  5
A7
330
A2
100
AcDbEntity
  8
0
  6
Continuous
 62
     0
370
     0
100
AcDbMText
 10
0.0
 20
-0.0139574413
 30
0.0
 40
3.5
 41
0.0
 71
     1
 72
     1
  1
Whatever spare sheet
  7
SLDTEXTSTYLE0
 73
     1
 44
1.0
  0
MTEXT
  5
A8
330
A2
100
AcDbEntity
  8
0
  6
Continuous
 62
     0
370
     0
100
AcDbMText
 10
0.0
 20
-4.5396519717
 30
0.0
 40
3.5
 41
0.0
 71
     1
 72
     1
  1
stock you have that
  7
SLDTEXTSTYLE0
 73
     1
 44
1.0
  0
MTEXT
  5
A9
330
A2
100
AcDbEntity
  8
0
  6
Continuous
 62
     0
370
     0
100
AcDbMText
 10
0.0
 20
-9.0653465022
 30
0.0
 40
3.5
 41
0.0
 71
     1
 72
     1
  1
can be laser cust.
  7
SLDTEXTSTYLE0
 73
     1
 44
1.0
  0
MTEXT
  5
AA
330
A2
100
AcDbEntity
  8
0
  6
Continuous
 62
     0
370
     0
100
AcDbMText
 10
0.0
 20
-18.1167355631
 30
0.0
 40
3.5
 41
0.0
 71
     1
 72
     1
  1
\LQUANTITY
  7
SLDTEXTSTYLE0
 73
     1
 44
1.0
  0
MTEXT
  5
AB
330
A2
100
AcDbEntity
  8
0
  6
Continuous
 62
     0
370
     0
100
AcDbMText
 10
0.0
 20
-22.6424300935
 30
0.0
 40
3.5
 41
0.0
 71
     1
 72
     1
  1
1
  7
SLDTEXTSTYLE0
 73
     1
 44
1.0
  0
MTEXT
  5
AC
330
A2
100
AcDbEntity
  8
0
  6
Continuous
 62
     0
370
     0
100
AcDbMText
 10
0.0
 20
-31.6938191545
 30
0.0
 40
3.5
 41
0.0
 71
     1
 72
     1
  1
\LMATERIAL:
  7
SLDTEXTSTYLE0
 73
     1
 44
1.0
  0
MTEXT
  5
AD
330
A2
100
AcDbEntity
  8
0
  6
Continuous
 62
     0
370
     0
100
AcDbMText
 10
0.0
 20
-36.2195136849
 30
0.0
 40
3.5
 41
0.0
 71
     1
 72
     1
  1
PLASTIC SHEET
  7
SLDTEXTSTYLE0
 73
     1
 44
1.0
  0
ENDBLK
  5
A4
330
A2
100
AcDbEntity
  8
0
100
AcDbBlockEnd
  0
BLOCK
  5
105
330
104
100
AcDbEntity
  8
0
100
AcDbBlockBegin
  2
_Origin
 70
     0
 10
0.0
 20
0.0
 30
0.0
  3
_Origin
  1

  0
CIRCLE
  5
107
330
104
100
AcDbEntity
  8
0
  6
ByBlock
 62
     0
370
    -2
100
AcDbCircle
 10
0.0
 20
0.0
 30
0.0
 40
0.5
  0
LINE
  5
108
330
104
100
AcDbEntity
  8
0
  6
ByBlock
 62
     0
370
    -2
100
AcDbLine
 10
0.0
 20
0.0
 30
0.0
 11
-1.0
 21
0.0
 31
0.0
  0
ENDBLK
  5
106
330
104
100
AcDbEntity
  8
0
100
AcDbBlockEnd
  0
BLOCK
  5
10A
330
109
100
AcDbEntity
  8
0
100
AcDbBlockBegin
  2
_D
 70
     0
 10
0.0
 20
0.0
 30
0.0
  3
_D
  1

  0
INSERT
  5
10C
330
109
100
AcDbEntity
  8
0
  6
Continuous
 62
     7
370
    18
100
AcDbBlockReference
  2
_Origin
 10
104.4219881361
 20
77.1792131284
 30
0.0
 41
1.016
 42
1.016
 50
0.0
  0
LINE
  5
10D
330
109
100
AcDbEntity
  8
0
  6
Continuous
 62
     7
370
     0
100
AcDbLine
 10
104.4219881361
 20
81.1632131284
 30
0.0
 11
104.4219881361
 21
76.1632131284
 31
0.0
  0
LINE
  5
10E
330
109
100
AcDbEntity
  8
0
  6
Continuous
 62
     7
370
     0
100
AcDbLine
 10
104.4219881361
 20
81.1632131284
 30
0.0
 11
104.4219881361
 21
86.1632131284
 31
0.0
  0
LINE
  5
10F
330
109
100
AcDbEntity
  8
0
  6
Continuous
 62
     7
370
     0
100
AcDbLine
 10
104.4219881361
 20
86.1632131284
 30
0.0
 11
104.4219881361
 21
88.7204867465
 31
0.0
  0
MTEXT
  5
110
330
109
100
AcDbEntity
  8
0
  6
Continuous
 62
     7
370
    18
100
AcDbMText
 10
102.6883762171
 20
69.6979354938
 30
0.0
 40
3.5
 41
0.0
 71
     1
 72
     1
  1
0.0
  7
SLDTEXTSTYLE0
 11
6.123233995736766E-17
 21
1.0
 31
0.0
 73
     1
 44
1.0
  0
ENDBLK
  5
10B
330
109
100
AcDbEntity
  8
0
100
AcDbBlockEnd
  0
BLOCK
  5
114
330
113
100
AcDbEntity
  8
0
100
AcDbBlockBegin
  2
_D_1
 70
     0
 10
0.0
 20
0.0
 30
0.0
  3
_D_1
  1

  0
SOLID
  5
116
330
113
100
AcDbEntity
  8
0
  6
Continuous
 62
     7
370
    18
100
AcDbTrace
 10
110.0338006271
 20
77.1792131284
 30
0.0
 11
106.7318006271
 21
77.6872131284
 31
0.0
 12
106.7318006271
 22
76.6712131284
 32
0.0
 13
106.7318006271
 23
76.6712131284
 33
0.0
  0
LINE
  5
117
330
113
100
AcDbEntity
  8
0
  6
Continuous
 62
     7
370
     0
100
AcDbLine
 10
110.0338006271
 20
81.1632131284
 30
0.0
 11
110.0338006271
 21
76.1632131284
 31
0.0
  0
LINE
  5
118
330
113
100
AcDbEntity
  8
0
  6
Continuous
 62
     7
370
     0
100
AcDbLine
 10
104.4219881361
 20
77.1792131284
 30
0.0
 11
110.0338006271
 21
77.1792131284
 31
0.0
  0
LINE
  5
119
330
113
100
AcDbEntity
  8
0
  6
Continuous
 62
     7
370
     0
100
AcDbLine
 10
110.0338006271
 20
81.1632131284
 30
0.0
 11
106.6719881361
 21
86.1632131284
 31
0.0
  0
LINE
  5
11A
330
113
100
AcDbEntity
  8
0
  6
Continuous
 62
     7
370
     0
100
AcDbLine
 10
106.6719881361
 20
86.1632131284
 30
0.0
 11
106.6719881361
 21
88.9704867465
 31
0.0
  0
MTEXT
  5
11B
330
113
100
AcDbEntity
  8
0
  6
Continuous
 62
     7
370
    18
100
AcDbMText
 10
108.3001887081
 20
69.6979354938
 30
0.0
 40
3.5
 41
0.0
 71
     1
 72
     1
  1
4.5
  7
SLDTEXTSTYLE0
 11
6.123233995736766E-17
 21
1.0
 31
0.0
 73
     1
 44
1.0
  0
ENDBLK
  5
115
330
113
100
AcDbEntity
  8
0
100
AcDbBlockEnd
  0
BLOCK
  5
11E
330
11D
100
AcDbEntity
  8
0
100
AcDbBlockBegin
  2
_D_2
 70
     0
 10
0.0
 20
0.0
 30
0.0
  3
_D_2
  1

  0
SOLID
  5
120
330
11D
100
AcDbEntity
  8
0
  6
Continuous
 62
     7
370
    18
100
AcDbTrace
 10
115.6456131181
 20
77.1792131284
 30
0.0
 11
112.3436131181
 21
77.6872131284
 31
0.0
 12
112.3436131181
 22
76.6712131284
 32
0.0
 13
112.3436131181
 23
76.6712131284
 33
0.0
  0
LINE
  5
121
330
11D
100
AcDbEntity
  8
0
  6
Continuous
 62
     7
370
     0
100
AcDbLine
 10
115.6456131181
 20
81.1632131284
 30
0.0
 11
115.6456131181
 21
76.1632131284
 31
0.0
  0
LINE
  5
122
330
11D
100
AcDbEntity
  8
0
  6
Continuous
 62
     7
370
     0
100
AcDbLine
 10
110.0338006271
 20
77.1792131284
 30
0.0
 11
115.6456131181
 21
77.1792131284
 31
0.0
  0
LINE
  5
123
330
11D
100
AcDbEntity
  8
0
  6
Continuous
 62
     7
370
     0
100
AcDbLine
 10
115.6456131181
 20
81.1632131284
 30
0.0
 11
113.6719881361
 21
86.1632131284
 31
0.0
  0
LINE
  5
124
330
11D
100
AcDbEntity
  8
0
  6
Continuous
 62
     7
370
     0
100
AcDbLine
 10
113.6719881361
 20
86.1632131284
 30
0.0
 11
113.6719881361
 21
88.9704867465
 31
0.0
  0
MTEXT
  5
125
330
11D
100
AcDbEntity
  8
0
  6
Continuous
 62
     7
370
    18
100
AcDbMText
 10
113.912001199
 20
67.1118240675
 30
0.0
 40
3.5
 41
0.0
 71
     1
 72
     1
  1
18.5
  7
SLDTEXTSTYLE0
 11
6.123233995736766E-17
 21
1.0
 31
0.0
 73
     1
 44
1.0
  0
ENDBLK
  5
11F
330
11D
100
AcDbEntity
  8
0
100
AcDbBlockEnd
  0
BLOCK
  5
128
330
127
100
AcDbEntity
  8
0
100
AcDbBlockBegin
  2
_D_3
 70
     0
 10
0.0
 20
0.0
 30
0.0
  3
_D_3
  1

  0
SOLID
  5
12A
330
127
100
AcDbEntity
  8
0
  6
Continuous
 62
     7
370
    18
100
AcDbTrace
 10
222.6719881361
 20
77.1792131284
 30
0.0
 11
219.3699881361
 21
77.6872131284
 31
0.0
 12
219.3699881361
 22
76.6712131284
 32
0.0
 13
219.3699881361
 23
76.6712131284
 33
0.0
  0
LINE
  5
12B
330
127
100
AcDbEntity
  8
0
  6
Continuous
 62
     7
370
     0
100
AcDbLine
 10
222.6719881361
 20
88.9704867465
 30
0.0
 11
222.6719881361
 21
76.1632131284
 31
0.0
  0
LINE
  5
12C
330
127
100
AcDbEntity
  8
0
  6
Continuous
 62
     7
370
     0
100
AcDbLine
 10
115.6456131181
 20
77.1792131284
 30
0.0
 11
222.6719881361
 21
77.1792131284
 31
0.0
  0
MTEXT
  5
12D
330
127
100
AcDbEntity
  8
0
  6
Continuous
 62
     7
370
    18
100
AcDbMText
 10
220.9383762171
 20
64.5257126411
 30
0.0
 40
3.5
 41
0.0
 71
     1
 72
     1
  1
236.5
  7
SLDTEXTSTYLE0
 11
6.123233995736766E-17
 21
1.0
 31
0.0
 73
     1
 44
1.0
  0
ENDBLK
  5
129
330
127
100
AcDbEntity
  8
0
100
AcDbBlockEnd
  0
BLOCK
  5
130
330
12F
100
AcDbEntity
  8
0
100
AcDbBlockBegin
  2
_D_4
 70
     0
 10
0.0
 20
0.0
 30
0.0
  3
_D_4
  1

  0
SOLID
  5
132
330
12F
100
AcDbEntity
  8
0
  6
Continuous
 62
     7
370
    18
100
AcDbTrace
 10
229.6719881361
 20
77.1792131284
 30
0.0
 11
226.3699881361
 21
77.6872131284
 31
0.0
 12
226.3699881361
 22
76.6712131284
 32
0.0
 13
226.3699881361
 23
76.6712131284
 33
0.0
  0
LINE
  5
133
330
12F
100
AcDbEntity
  8
0
  6
Continuous
 62
     7
370
     0
100
AcDbLine
 10
229.6719881361
 20
88.9704867465
 30
0.0
 11
229.6719881361
 21
76.1632131284
 31
0.0
  0
LINE
  5
134
330
12F
100
AcDbEntity
  8
0
  6
Continuous
 62
     7
370
     0
100
AcDbLine
 10
222.6719881361
 20
77.1792131284
 30
0.0
 11
229.6719881361
 21
77.1792131284
 31
0.0
  0
MTEXT
  5
135
330
12F
100
AcDbEntity
  8
0
  6
Continuous
 62
     7
370
    18
100
AcDbMText
 10
227.9383762171
 20
64.5257126411
 30
0.0
 40
3.5
 41
0.0
 71
     1
 72
     1
  1
250.5
  7
SLDTEXTSTYLE0
 11
6.123233995736766E-17
 21
1.0
 31
0.0
 73
     1
 44
1.0
  0
ENDBLK
  5
131
330
12F
100
AcDbEntity
  8
0
100
AcDbBlockEnd
  0
BLOCK
  5
138
330
137
100
AcDbEntity
  8
0
100
AcDbBlockBegin
  2
_D_5
 70
     0
 10
0.0
 20
0.0
 30
0.0
  3
_D_5
  1

  0
INSERT
  5
13A
330
137
100
AcDbEntity
  8
0
  6
Continuous
 62
     7
370
    18
100
AcDbBlockReference
  2
_Origin
 10
104.4219881361
 20
224.2945365462
 30
0.0
 41
1.016
 42
1.016
 50
0.0
  0
LINE
  5
13B
330
137
100
AcDbEntity
  8
0
  6
Continuous
 62
     7
370
     0
100
AcDbLine
 10
104.4219881361
 20
220.3105365462
 30
0.0
 11
104.4219881361
 21
225.3105365462
 31
0.0
  0
LINE
  5
13C
330
137
100
AcDbEntity
  8
0
  6
Continuous
 62
     7
370
     0
100
AcDbLine
 10
104.4219881361
 20
220.3105365462
 30
0.0
 11
104.4219881361
 21
215.3105365462
 31
0.0
  0
LINE
  5
13D
330
137
100
AcDbEntity
  8
0
  6
Continuous
 62
     7
370
     0
100
AcDbLine
 10
104.4219881361
 20
215.3105365462
 30
0.0
 11
104.4219881361
 21
213.2204867465
 31
0.0
  0
MTEXT
  5
13E
330
137
100
AcDbEntity
  8
0
  6
Continuous
 62
     7
370
    18
100
AcDbMText
 10
102.6883762171
 20
225.3105365462
 30
0.0
 40
3.5
 41
0.0
 71
     1
 72
     1
  1
0.0
  7
SLDTEXTSTYLE0
 11
6.123233995736766E-17
 21
1.0
 31
0.0
 73
     1
 44
1.0
  0
ENDBLK
  5
139
330
137
100
AcDbEntity
  8
0
100
AcDbBlockEnd
  0
BLOCK
  5
141
330
140
100
AcDbEntity
  8
0
100
AcDbBlockBegin
  2
_D_6
 70
     0
 10
0.0
 20
0.0
 30
0.0
  3
_D_6
  1

  0
SOLID
  5
143
330
140
100
AcDbEntity
  8
0
  6
Continuous
 62
     7
370
    18
100
AcDbTrace
 10
110.6326293175
 20
224.2945365462
 30
0.0
 11
107.3306293175
 21
224.8025365462
 31
0.0
 12
107.3306293175
 22
223.7865365462
 32
0.0
 13
107.3306293175
 23
223.7865365462
 33
0.0
  0
LINE
  5
144
330
140
100
AcDbEntity
  8
0
  6
Continuous
 62
     7
370
     0
100
AcDbLine
 10
110.6326293175
 20
220.3105365462
 30
0.0
 11
110.6326293175
 21
225.3105365462
 31
0.0
  0
LINE
  5
145
330
140
100
AcDbEntity
  8
0
  6
Continuous
 62
     7
370
     0
100
AcDbLine
 10
104.4219881361
 20
224.2945365462
 30
0.0
 11
110.6326293175
 21
224.2945365462
 31
0.0
  0
LINE
  5
146
330
140
100
AcDbEntity
  8
0
  6
Continuous
 62
     7
370
     0
100
AcDbLine
 10
110.6326293175
 20
220.3105365462
 30
0.0
 11
109.1094881361
 21
215.3105365462
 31
0.0
  0
LINE
  5
147
330
140
100
AcDbEntity
  8
0
  6
Continuous
 62
     7
370
     0
100
AcDbLine
 10
109.1094881361
 20
215.3105365462
 30
0.0
 11
109.1094881361
 21
108.7454867465
 31
0.0
  0
MTEXT
  5
148
330
140
100
AcDbEntity
  8
0
  6
Continuous
 62
     7
370
    18
100
AcDbMText
 10
108.8990173985
 20
225.3105365462
 30
0.0
 40
3.5
 41
0.0
 71
     1
 72
     1
  1
9.4
  7
SLDTEXTSTYLE0
 11
6.123233995736766E-17
 21
1.0
 31
0.0
 73
     1
 44
1.0
  0
ENDBLK
  5
142
330
140
100
AcDbEntity
  8
0
100
AcDbBlockEnd
  0
BLOCK
  5
14B
330
14A
100
AcDbEntity
  8
0
100
AcDbBlockBegin
  2
_D_7
 70
     0
 10
0.0
 20
0.0
 30
0.0
  3
_D_7
  1

  0
SOLID
  5
14D
330
14A
100
AcDbEntity
  8
0
  6
Continuous
 62
     7
370
    18
100
AcDbTrace
 10
122.7969881361
 20
224.2945365462
 30
0.0
 11
119.4949881361
 21
224.8025365462
 31
0.0
 12
119.4949881361
 22
223.7865365462
 32
0.0
 13
119.4949881361
 23
223.7865365462
 33
0.0
  0
LINE
  5
14E
330
14A
100
AcDbEntity
  8
0
  6
Continuous
 62
     7
370
     0
100
AcDbLine
 10
122.7969881361
 20
94.9954867465
 30
0.0
 11
122.7969881361
 21
225.3105365462
 31
0.0
  0
LINE
  5
14F
330
14A
100
AcDbEntity
  8
0
  6
Continuous
 62
     7
370
     0
100
AcDbLine
 10
110.6326293175
 20
224.2945365462
 30
0.0
 11
122.7969881361
 21
224.2945365462
 31
0.0
  0
MTEXT
  5
150
330
14A
100
AcDbEntity
  8
0
  6
Continuous
 62
     7
370
    18
100
AcDbMText
 10
121.0633762171
 20
225.3105365462
 30
0.0
 40
3.5
 41
0.0
 71
     1
 72
     1
  1
36.8
  7
SLDTEXTSTYLE0
 11
6.123233995736766E-17
 21
1.0
 31
0.0
 73
     1
 44
1.0
  0
ENDBLK
  5
14C
330
14A
100
AcDbEntity
  8
0
100
AcDbBlockEnd
  0
BLOCK
  5
153
330
152
100
AcDbEntity
  8
0
100
AcDbBlockBegin
  2
_D_8
 70
     0
 10
0.0
 20
0.0
 30
0.0
  3
_D_8
  1

  0
SOLID
  5
155
330
152
100
AcDbEntity
  8
0
  6
Continuous
 62
     7
370
    18
100
AcDbTrace
 10
160.6719881361
 20
224.2945365462
 30
0.0
 11
157.3699881361
 21
224.8025365462
 31
0.0
 12
157.3699881361
 22
223.7865365462
 32
0.0
 13
157.3699881361
 23
223.7865365462
 33
0.0
  0
LINE
  5
156
330
152
100
AcDbEntity
  8
0
  6
Continuous
 62
     7
370
     0
100
AcDbLine
 10
160.6719881361
 20
154.1204867465
 30
0.0
 11
160.6719881361
 21
225.3105365462
 31
0.0
  0
LINE
  5
157
330
152
100
AcDbEntity
  8
0
  6
Continuous
 62
     7
370
     0
100
AcDbLine
 10
122.7969881361
 20
224.2945365462
 30
0.0
 11
160.6719881361
 21
224.2945365462
 31
0.0
  0
MTEXT
  5
158
330
152
100
AcDbEntity
  8
0
  6
Continuous
 62
     7
370
    18
100
AcDbMText
 10
158.9383762171
 20
225.3105365462
 30
0.0
 40
3.5
 41
0.0
 71
     1
 72
     1
  1
112.5
  7
SLDTEXTSTYLE0
 11
6.123233995736766E-17
 21
1.0
 31
0.0
 73
     1
 44
1.0
  0
ENDBLK
  5
154
330
152
100
AcDbEntity
  8
0
100
AcDbBlockEnd
  0
BLOCK
  5
15B
330
15A
100
AcDbEntity
  8
0
100
AcDbBlockBegin
  2
_D_9
 70
     0
 10
0.0
 20
0.0
 30
0.0
  3
_D_9
  1

  0
SOLID
  5
15D
330
15A
100
AcDbEntity
  8
0
  6
Continuous
 62
     7
370
    18
100
AcDbTrace
 10
168.1719881361
 20
224.2945365462
 30
0.0
 11
164.8699881361
 21
224.8025365462
 31
0.0
 12
164.8699881361
 22
223.7865365462
 32
0.0
 13
164.8699881361
 23
223.7865365462
 33
0.0
  0
LINE
  5
15E
330
15A
100
AcDbEntity
  8
0
  6
Continuous
 62
     7
370
     0
100
AcDbLine
 10
168.1719881361
 20
93.8704867465
 30
0.0
 11
168.1719881361
 21
225.3105365462
 31
0.0
  0
LINE
  5
15F
330
15A
100
AcDbEntity
  8
0
  6
Continuous
 62
     7
370
     0
100
AcDbLine
 10
160.6719881361
 20
224.2945365462
 30
0.0
 11
168.1719881361
 21
224.2945365462
 31
0.0
  0
MTEXT
  5
160
330
15A
100
AcDbEntity
  8
0
  6
Continuous
 62
     7
370
    18
100
AcDbMText
 10
166.4383762171
 20
225.3105365462
 30
0.0
 40
3.5
 41
0.0
 71
     1
 72
     1
  1
127.5
  7
SLDTEXTSTYLE0
 11
6.123233995736766E-17
 21
1.0
 31
0.0
 73
     1
 44
1.0
  0
ENDBLK
  5
15C
330
15A
100
AcDbEntity
  8
0
100
AcDbBlockEnd
  0
BLOCK
  5
163
330
162
100
AcDbEntity
  8
0
100
AcDbBlockBegin
  2
_D_10
 70
     0
 10
0.0
 20
0.0
 30
0.0
  3
_D_10
  1

  0
SOLID
  5
165
330
162
100
AcDbEntity
  8
0
  6
Continuous
 62
     7
370
    18
100
AcDbTrace
 10
175.6719881361
 20
224.2945365462
 30
0.0
 11
172.3699881361
 21
224.8025365462
 31
0.0
 12
172.3699881361
 22
223.7865365462
 32
0.0
 13
172.3699881361
 23
223.7865365462
 33
0.0
  0
LINE
  5
166
330
162
100
AcDbEntity
  8
0
  6
Continuous
 62
     7
370
     0
100
AcDbLine
 10
175.6719881361
 20
154.1204867465
 30
0.0
 11
175.6719881361
 21
225.3105365462
 31
0.0
  0
LINE
  5
167
330
162
100
AcDbEntity
  8
0
  6
Continuous
 62
     7
370
     0
100
AcDbLine
 10
168.1719881361
 20
224.2945365462
 30
0.0
 11
175.6719881361
 21
224.2945365462
 31
0.0
  0
MTEXT
  5
168
330
162
100
AcDbEntity
  8
0
  6
Continuous
 62
     7
370
    18
100
AcDbMText
 10
173.9383762171
 20
225.3105365462
 30
0.0
 40
3.5
 41
0.0
 71
     1
 72
     1
  1
142.5
  7
SLDTEXTSTYLE0
 11
6.123233995736766E-17
 21
1.0
 31
0.0
 73
     1
 44
1.0
  0
ENDBLK
  5
164
330
162
100
AcDbEntity
  8
0
100
AcDbBlockEnd
  0
BLOCK
  5
16B
330
16A
100
AcDbEntity
  8
0
100
AcDbBlockBegin
  2
_D_11
 70
     0
 10
0.0
 20
0.0
 30
0.0
  3
_D_11
  1

  0
SOLID
  5
16D
330
16A
100
AcDbEntity
  8
0
  6
Continuous
 62
     7
370
    18
100
AcDbTrace
 10
213.5469881361
 20
224.2945365462
 30
0.0
 11
210.2449881361
 21
224.8025365462
 31
0.0
 12
210.2449881361
 22
223.7865365462
 32
0.0
 13
210.2449881361
 23
223.7865365462
 33
0.0
  0
LINE
  5
16E
330
16A
100
AcDbEntity
  8
0
  6
Continuous
 62
     7
370
     0
100
AcDbLine
 10
213.5469881361
 20
95.0579867465
 30
0.0
 11
213.5469881361
 21
225.3105365462
 31
0.0
  0
LINE
  5
16F
330
16A
100
AcDbEntity
  8
0
  6
Continuous
 62
     7
370
     0
100
AcDbLine
 10
175.6719881361
 20
224.2945365462
 30
0.0
 11
213.5469881361
 21
224.2945365462
 31
0.0
  0
MTEXT
  5
170
330
16A
100
AcDbEntity
  8
0
  6
Continuous
 62
     7
370
    18
100
AcDbMText
 10
211.8133762171
 20
225.3105365462
 30
0.0
 40
3.5
 41
0.0
 71
     1
 72
     1
  1
218.3
  7
SLDTEXTSTYLE0
 11
6.123233995736766E-17
 21
1.0
 31
0.0
 73
     1
 44
1.0
  0
ENDBLK
  5
16C
330
16A
100
AcDbEntity
  8
0
100
AcDbBlockEnd
  0
BLOCK
  5
173
330
172
100
AcDbEntity
  8
0
100
AcDbBlockBegin
  2
_D_12
 70
     0
 10
0.0
 20
0.0
 30
0.0
  3
_D_12
  1

  0
SOLID
  5
175
330
172
100
AcDbEntity
  8
0
  6
Continuous
 62
     7
370
    18
100
AcDbTrace
 10
226.3101756452
 20
224.2945365462
 30
0.0
 11
223.0081756452
 21
224.8025365462
 31
0.0
 12
223.0081756452
 22
223.7865365462
 32
0.0
 13
223.0081756452
 23
223.7865365462
 33
0.0
  0
LINE
  5
176
330
172
100
AcDbEntity
  8
0
  6
Continuous
 62
     7
370
     0
100
AcDbLine
 10
226.3101756452
 20
220.3105365462
 30
0.0
 11
226.3101756452
 21
225.3105365462
 31
0.0
  0
LINE
  5
177
330
172
100
AcDbEntity
  8
0
  6
Continuous
 62
     7
370
     0
100
AcDbLine
 10
213.5469881361
 20
224.2945365462
 30
0.0
 11
226.3101756452
 21
224.2945365462
 31
0.0
  0
LINE
  5
178
330
172
100
AcDbEntity
  8
0
  6
Continuous
 62
     7
370
     0
100
AcDbLine
 10
226.3101756452
 20
220.3105365462
 30
0.0
 11
227.2969881361
 21
215.3105365462
 31
0.0
  0
LINE
  5
179
330
172
100
AcDbEntity
  8
0
  6
Continuous
 62
     7
370
     0
100
AcDbLine
 10
227.2969881361
 20
215.3105365462
 30
0.0
 11
227.2969881361
 21
108.7454867465
 31
0.0
  0
MTEXT
  5
17A
330
172
100
AcDbEntity
  8
0
  6
Continuous
 62
     7
370
    18
100
AcDbMText
 10
224.5765637261
 20
225.3105365462
 30
0.0
 40
3.5
 41
0.0
 71
     1
 72
     1
  1
245.8
  7
SLDTEXTSTYLE0
 11
6.123233995736766E-17
 21
1.0
 31
0.0
 73
     1
 44
1.0
  0
ENDBLK
  5
174
330
172
100
AcDbEntity
  8
0
100
AcDbBlockEnd
  0
BLOCK
  5
17E
330
17D
100
AcDbEntity
  8
0
100
AcDbBlockBegin
  2
_D_13
 70
     0
 10
0.0
 20
0.0
 30
0.0
  3
_D_13
  1

  0
SOLID
  5
180
330
17D
100
AcDbEntity
  8
0
  6
Continuous
 62
     7
370
    18
100
AcDbTrace
 10
231.9219881361
 20
224.2945365462
 30
0.0
 11
228.6199881361
 21
224.8025365462
 31
0.0
 12
228.6199881361
 22
223.7865365462
 32
0.0
 13
228.6199881361
 23
223.7865365462
 33
0.0
  0
LINE
  5
181
330
17D
100
AcDbEntity
  8
0
  6
Continuous
 62
     7
370
     0
100
AcDbLine
 10
231.9219881361
 20
213.2204867465
 30
0.0
 11
231.9219881361
 21
225.3105365462
 31
0.0
  0
LINE
  5
182
330
17D
100
AcDbEntity
  8
0
  6
Continuous
 62
     7
370
     0
100
AcDbLine
 10
226.3101756452
 20
224.2945365462
 30
0.0
 11
231.9219881361
 21
224.2945365462
 31
0.0
  0
MTEXT
  5
183
330
17D
100
AcDbEntity
  8
0
  6
Continuous
 62
     7
370
    18
100
AcDbMText
 10
230.1883762171
 20
225.3105365462
 30
0.0
 40
3.5
 41
0.0
 71
     1
 72
     1
  1
255.00
  7
SLDTEXTSTYLE0
 11
6.123233995736766E-17
 21
1.0
 31
0.0
 73
     1
 44
1.0
  0
ENDBLK
  5
17F
330
17D
100
AcDbEntity
  8
0
100
AcDbBlockEnd
  0
BLOCK
  5
186
330
185
100
AcDbEntity
  8
0
100
AcDbBlockBegin
  2
_D_14
 70
     0
 10
0.0
 20
0.0
 30
0.0
  3
_D_14
  1

  0
INSERT
  5
188
330
185
100
AcDbEntity
  8
0
  6
Continuous
 62
     7
370
    18
100
AcDbBlockReference
  2
_Origin
 10
83.2415909457
 20
87.2204867465
 30
0.0
 41
1.016
 42
1.016
 50
0.0
  0
LINE
  5
189
330
185
100
AcDbEntity
  8
0
  6
Continuous
 62
     7
370
     0
100
AcDbLine
 10
87.2255909457
 20
87.2204867465
 30
0.0
 11
82.2255909457
 21
87.2204867465
 31
0.0
  0
LINE
  5
18A
330
185
100
AcDbEntity
  8
0
  6
Continuous
 62
     7
370
     0
100
AcDbLine
 10
87.2255909457
 20
87.2204867465
 30
0.0
 11
92.2255909457
 21
87.2204867465
 31
0.0
  0
LINE
  5
18B
330
185
100
AcDbEntity
  8
0
  6
Continuous
 62
     7
370
     0
100
AcDbLine
 10
92.2255909457
 20
87.2204867465
 30
0.0
 11
105.9219881361
 21
87.2204867465
 31
0.0
  0
MTEXT
  5
18C
330
185
100
AcDbEntity
  8
0
  6
Continuous
 62
     7
370
    18
100
AcDbMText
 10
75.7603133111
 20
88.9540986656
 30
0.0
 40
3.5
 41
0.0
 71
     1
 72
     1
  1
0.0
  7
SLDTEXTSTYLE0
 73
     1
 44
1.0
  0
ENDBLK
  5
187
330
185
100
AcDbEntity
  8
0
100
AcDbBlockEnd
  0
BLOCK
  5
18F
330
18E
100
AcDbEntity
  8
0
100
AcDbBlockBegin
  2
_D_15
 70
     0
 10
0.0
 20
0.0
 30
0.0
  3
_D_15
  1

  0
SOLID
  5
191
330
18E
100
AcDbEntity
  8
0
  6
Continuous
 62
     7
370
    18
100
AcDbTrace
 10
83.2415909457
 20
88.776392992
 30
0.0
 11
82.7335909457
 21
85.474392992
 31
0.0
 12
83.7495909457
 22
85.474392992
 32
0.0
 13
83.7495909457
 23
85.474392992
 33
0.0
  0
LINE
  5
192
330
18E
100
AcDbEntity
  8
0
  6
Continuous
 62
     7
370
     0
100
AcDbLine
 10
87.2255909457
 20
88.776392992
 30
0.0
 11
82.2255909457
 21
88.776392992
 31
0.0
  0
LINE
  5
193
330
18E
100
AcDbEntity
  8
0
  6
Continuous
 62
     7
370
     0
100
AcDbLine
 10
83.2415909457
 20
87.2204867465
 30
0.0
 11
83.2415909457
 21
88.776392992
 31
0.0
  0
LINE
  5
194
330
18E
100
AcDbEntity
  8
0
  6
Continuous
 62
     7
370
     0
100
AcDbLine
 10
87.2255909457
 20
88.776392992
 30
0.0
 11
92.2255909457
 21
89.4704867465
 31
0.0
  0
LINE
  5
195
330
18E
100
AcDbEntity
  8
0
  6
Continuous
 62
     7
370
     0
100
AcDbLine
 10
92.2255909457
 20
89.4704867465
 30
0.0
 11
222.1719881361
 21
89.4704867465
 31
0.0
  0
MTEXT
  5
196
330
18E
100
AcDbEntity
  8
0
  6
Continuous
 62
     7
370
    18
100
AcDbMText
 10
75.7603133111
 20
90.5100049111
 30
0.0
 40
3.5
 41
0.0
 71
     1
 72
     1
  1
4.5
  7
SLDTEXTSTYLE0
 73
     1
 44
1.0
  0
ENDBLK
  5
190
330
18E
100
AcDbEntity
  8
0
100
AcDbBlockEnd
  0
BLOCK
  5
199
330
198
100
AcDbEntity
  8
0
100
AcDbBlockBegin
  2
_D_16
 70
     0
 10
0.0
 20
0.0
 30
0.0
  3
_D_16
  1

  0
SOLID
  5
19B
330
198
100
AcDbEntity
  8
0
  6
Continuous
 62
     7
370
    18
100
AcDbTrace
 10
83.2415909457
 20
94.388205483
 30
0.0
 11
82.7335909457
 21
91.086205483
 31
0.0
 12
83.7495909457
 22
91.086205483
 32
0.0
 13
83.7495909457
 23
91.086205483
 33
0.0
  0
LINE
  5
19C
330
198
100
AcDbEntity
  8
0
  6
Continuous
 62
     7
370
     0
100
AcDbLine
 10
87.2255909457
 20
94.388205483
 30
0.0
 11
82.2255909457
 21
94.388205483
 31
0.0
  0
LINE
  5
19D
330
198
100
AcDbEntity
  8
0
  6
Continuous
 62
     7
370
     0
100
AcDbLine
 10
83.2415909457
 20
88.776392992
 30
0.0
 11
83.2415909457
 21
94.388205483
 31
0.0
  0
LINE
  5
19E
330
198
100
AcDbEntity
  8
0
  6
Continuous
 62
     7
370
     0
100
AcDbLine
 10
87.2255909457
 20
94.388205483
 30
0.0
 11
92.2255909457
 21
96.4704867465
 31
0.0
  0
LINE
  5
19F
330
198
100
AcDbEntity
  8
0
  6
Continuous
 62
     7
370
     0
100
AcDbLine
 10
92.2255909457
 20
96.4704867465
 30
0.0
 11
222.1719881361
 21
96.4704867465
 31
0.0
  0
MTEXT
  5
1A0
330
198
100
AcDbEntity
  8
0
  6
Continuous
 62
     7
370
    18
100
AcDbMText
 10
73.1742018848
 20
96.121817402
 30
0.0
 40
3.5
 41
0.0
 71
     1
 72
     1
  1
18.5
  7
SLDTEXTSTYLE0
 73
     1
 44
1.0
  0
ENDBLK
  5
19A
330
198
100
AcDbEntity
  8
0
100
AcDbBlockEnd
  0
BLOCK
  5
1A3
330
1A2
100
AcDbEntity
  8
0
100
AcDbBlockBegin
  2
_D_17
 70
     0
 10
0.0
 20
0.0
 30
0.0
  3
_D_17
  1

  0
SOLID
  5
1A5
330
1A2
100
AcDbEntity
  8
0
  6
Continuous
 62
     7
370
    18
100
AcDbTrace
 10
83.2415909457
 20
214.7204867465
 30
0.0
 11
82.7335909457
 21
211.4184867465
 31
0.0
 12
83.7495909457
 22
211.4184867465
 32
0.0
 13
83.7495909457
 23
211.4184867465
 33
0.0
  0
LINE
  5
1A6
330
1A2
100
AcDbEntity
  8
0
  6
Continuous
 62
     7
370
     0
100
AcDbLine
 10
105.9219881361
 20
214.7204867465
 30
0.0
 11
82.2255909457
 21
214.7204867465
 31
0.0
  0
LINE
  5
1A7
330
1A2
100
AcDbEntity
  8
0
  6
Continuous
 62
     7
370
     0
100
AcDbLine
 10
83.2415909457
 20
94.388205483
 30
0.0
 11
83.2415909457
 21
214.7204867465
 31
0.0
  0
MTEXT
  5
1A8
330
1A2
100
AcDbEntity
  8
0
  6
Continuous
 62
     7
370
    18
100
AcDbMText
 10
68.0019790321
 20
216.4540986656
 30
0.0
 40
3.5
 41
0.0
 71
     1
 72
     1
  1
255.00
  7
SLDTEXTSTYLE0
 73
     1
 44
1.0
  0
ENDBLK
  5
1A4
330
1A2
100
AcDbEntity
  8
0
100
AcDbBlockEnd
  0
BLOCK
  5
1AB
330
1AA
100
AcDbEntity
  8
0
100
AcDbBlockBegin
  2
_D_18
 70
     0
 10
0.0
 20
0.0
 30
0.0
  3
_D_18
  1

  0
INSERT
  5
1AD
330
1AA
100
AcDbEntity
  8
0
  6
Continuous
 62
     7
370
    18
100
AcDbBlockReference
  2
_Origin
 10
246.9059881361
 20
87.2204867465
 30
0.0
 41
1.016
 42
1.016
 50
0.0
  0
LINE
  5
1AE
330
1AA
100
AcDbEntity
  8
0
  6
Continuous
 62
     7
370
     0
100
AcDbLine
 10
242.9219881361
 20
87.2204867465
 30
0.0
 11
247.9219881361
 21
87.2204867465
 31
0.0
  0
LINE
  5
1AF
330
1AA
100
AcDbEntity
  8
0
  6
Continuous
 62
     7
370
     0
100
AcDbLine
 10
242.9219881361
 20
87.2204867465
 30
0.0
 11
237.9219881361
 21
87.2204867465
 31
0.0
  0
LINE
  5
1B0
330
1AA
100
AcDbEntity
  8
0
  6
Continuous
 62
     7
370
     0
100
AcDbLine
 10
237.9219881361
 20
87.2204867465
 30
0.0
 11
230.4219881361
 21
87.2204867465
 31
0.0
  0
MTEXT
  5
1B1
330
1AA
100
AcDbEntity
  8
0
  6
Continuous
 62
     7
370
    18
100
AcDbMText
 10
247.9219881361
 20
88.9540986656
 30
0.0
 40
3.5
 41
0.0
 71
     1
 72
     1
  1
0.0
  7
SLDTEXTSTYLE0
 73
     1
 44
1.0
  0
ENDBLK
  5
1AC
330
1AA
100
AcDbEntity
  8
0
100
AcDbBlockEnd
  0
BLOCK
  5
1B5
330
1B4
100
AcDbEntity
  8
0
100
AcDbBlockBegin
  2
_D_19
 70
     0
 10
0.0
 20
0.0
 30
0.0
  3
_D_19
  1

  0
SOLID
  5
1B7
330
1B4
100
AcDbEntity
  8
0
  6
Continuous
 62
     7
370
    18
100
AcDbTrace
 10
246.9059881361
 20
93.137803767
 30
0.0
 11
246.3979881361
 21
89.835803767
 31
0.0
 12
247.4139881361
 22
89.835803767
 32
0.0
 13
247.4139881361
 23
89.835803767
 33
0.0
  0
LINE
  5
1B8
330
1B4
100
AcDbEntity
  8
0
  6
Continuous
 62
     7
370
     0
100
AcDbLine
 10
242.9219881361
 20
93.137803767
 30
0.0
 11
247.9219881361
 21
93.137803767
 31
0.0
  0
LINE
  5
1B9
330
1B4
100
AcDbEntity
  8
0
  6
Continuous
 62
     7
370
     0
100
AcDbLine
 10
246.9059881361
 20
87.2204867465
 30
0.0
 11
246.9059881361
 21
93.137803767
 31
0.0
  0
LINE
  5
1BA
330
1B4
100
AcDbEntity
  8
0
  6
Continuous
 62
     7
370
     0
100
AcDbLine
 10
242.9219881361
 20
93.137803767
 30
0.0
 11
237.9219881361
 21
90.7204867465
 31
0.0
  0
LINE
  5
1BB
330
1B4
100
AcDbEntity
  8
0
  6
Continuous
 62
     7
370
     0
100
AcDbLine
 10
237.9219881361
 20
90.7204867465
 30
0.0
 11
171.3219881361
 21
90.7204867465
 31
0.0
  0
MTEXT
  5
1BC
330
1B4
100
AcDbEntity
  8
0
  6
Continuous
 62
     7
370
    18
100
AcDbMText
 10
247.9219881361
 20
94.871415686
 30
0.0
 40
3.5
 41
0.0
 71
     1
 72
     1
  1
7.0
  7
SLDTEXTSTYLE0
 73
     1
 44
1.0
  0
ENDBLK
  5
1B6
330
1B4
100
AcDbEntity
  8
0
100
AcDbBlockEnd
  0
BLOCK
  5
1BF
330
1BE
100
AcDbEntity
  8
0
100
AcDbBlockBegin
  2
_D_20
 70
     0
 10
0.0
 20
0.0
 30
0.0
  3
_D_20
  1

  0
SOLID
  5
1C1
330
1BE
100
AcDbEntity
  8
0
  6
Continuous
 62
     7
370
    18
100
AcDbTrace
 10
246.9059881361
 20
99.6076202588
 30
0.0
 11
246.3979881361
 21
96.3056202588
 31
0.0
 12
247.4139881361
 22
96.3056202588
 32
0.0
 13
247.4139881361
 23
96.3056202588
 33
0.0
  0
LINE
  5
1C2
330
1BE
100
AcDbEntity
  8
0
  6
Continuous
 62
     7
370
     0
100
AcDbLine
 10
141.602794007
 20
99.6076202588
 30
0.0
 11
247.9219881361
 21
99.6076202588
 31
0.0
  0
LINE
  5
1C3
330
1BE
100
AcDbEntity
  8
0
  6
Continuous
 62
     7
370
     0
100
AcDbLine
 10
246.9059881361
 20
93.137803767
 30
0.0
 11
246.9059881361
 21
99.6076202588
 31
0.0
  0
LINE
  5
1C4
330
1BE
100
AcDbEntity
  8
0
  6
Continuous
 62
     7
370
     0
100
AcDbLine
 10
141.602794007
 20
99.6076202588
 30
0.0
 11
136.602794007
 21
91.8454867465
 31
0.0
  0
LINE
  5
1C5
330
1BE
100
AcDbEntity
  8
0
  6
Continuous
 62
     7
370
     0
100
AcDbLine
 10
136.602794007
 20
91.8454867465
 30
0.0
 11
125.9469881361
 21
91.8454867465
 31
0.0
  0
MTEXT
  5
1C6
330
1BE
100
AcDbEntity
  8
0
  6
Continuous
 62
     7
370
    18
100
AcDbMText
 10
247.9219881361
 20
101.3412321778
 30
0.0
 40
3.5
 41
0.0
 71
     1
 72
     1
  1
9.3
  7
SLDTEXTSTYLE0
 73
     1
 44
1.0
  0
ENDBLK
  5
1C0
330
1BE
100
AcDbEntity
  8
0
100
AcDbBlockEnd
  0
BLOCK
  5
1C9
330
1C8
100
AcDbEntity
  8
0
100
AcDbBlockBegin
  2
_D_21
 70
     0
 10
0.0
 20
0.0
 30
0.0
  3
_D_21
  1

  0
SOLID
  5
1CB
330
1C8
100
AcDbEntity
  8
0
  6
Continuous
 62
     7
370
    18
100
AcDbTrace
 10
246.9059881361
 20
105.5954867465
 30
0.0
 11
246.3979881361
 21
102.2934867465
 31
0.0
 12
247.4139881361
 22
102.2934867465
 32
0.0
 13
247.4139881361
 23
102.2934867465
 33
0.0
  0
LINE
  5
1CC
330
1C8
100
AcDbEntity
  8
0
  6
Continuous
 62
     7
370
     0
100
AcDbLine
 10
112.2594881361
 20
105.5954867465
 30
0.0
 11
247.9219881361
 21
105.5954867465
 31
0.0
  0
LINE
  5
1CD
330
1C8
100
AcDbEntity
  8
0
  6
Continuous
 62
     7
370
     0
100
AcDbLine
 10
246.9059881361
 20
99.6076202588
 30
0.0
 11
246.9059881361
 21
105.5954867465
 31
0.0
  0
MTEXT
  5
1CE
330
1C8
100
AcDbEntity
  8
0
  6
Continuous
 62
     7
370
    18
100
AcDbMText
 10
247.9219881361
 20
107.3290986656
 30
0.0
 40
3.5
 41
0.0
 71
     1
 72
     1
  1
36.8
  7
SLDTEXTSTYLE0
 73
     1
 44
1.0
  0
ENDBLK
  5
1CA
330
1C8
100
AcDbEntity
  8
0
100
AcDbBlockEnd
  0
BLOCK
  5
1D1
330
1D0
100
AcDbEntity
  8
0
100
AcDbBlockBegin
  2
_D_22
 70
     0
 10
0.0
 20
0.0
 30
0.0
  3
_D_22
  1

  0
SOLID
  5
1D3
330
1D0
100
AcDbEntity
  8
0
  6
Continuous
 62
     7
370
    18
100
AcDbTrace
 10
246.9059881361
 20
143.4704867465
 30
0.0
 11
246.3979881361
 21
140.1684867465
 31
0.0
 12
247.4139881361
 22
140.1684867465
 32
0.0
 13
247.4139881361
 23
140.1684867465
 33
0.0
  0
LINE
  5
1D4
330
1D0
100
AcDbEntity
  8
0
  6
Continuous
 62
     7
370
     0
100
AcDbLine
 10
171.3219881361
 20
143.4704867465
 30
0.0
 11
247.9219881361
 21
143.4704867465
 31
0.0
  0
LINE
  5
1D5
330
1D0
100
AcDbEntity
  8
0
  6
Continuous
 62
     7
370
     0
100
AcDbLine
 10
246.9059881361
 20
105.5954867465
 30
0.0
 11
246.9059881361
 21
143.4704867465
 31
0.0
  0
MTEXT
  5
1D6
330
1D0
100
AcDbEntity
  8
0
  6
Continuous
 62
     7
370
    18
100
AcDbMText
 10
247.9219881361
 20
145.2040986656
 30
0.0
 40
3.5
 41
0.0
 71
     1
 72
     1
  1
112.5
  7
SLDTEXTSTYLE0
 73
     1
 44
1.0
  0
ENDBLK
  5
1D2
330
1D0
100
AcDbEntity
  8
0
100
AcDbBlockEnd
  0
BLOCK
  5
1D9
330
1D8
100
AcDbEntity
  8
0
100
AcDbBlockBegin
  2
_D_23
 70
     0
 10
0.0
 20
0.0
 30
0.0
  3
_D_23
  1

  0
SOLID
  5
1DB
330
1D8
100
AcDbEntity
  8
0
  6
Continuous
 62
     7
370
    18
100
AcDbTrace
 10
246.9059881361
 20
150.9704867465
 30
0.0
 11
246.3979881361
 21
147.6684867465
 31
0.0
 12
247.4139881361
 22
147.6684867465
 32
0.0
 13
247.4139881361
 23
147.6684867465
 33
0.0
  0
LINE
  5
1DC
330
1D8
100
AcDbEntity
  8
0
  6
Continuous
 62
     7
370
     0
100
AcDbLine
 10
163.8219881361
 20
150.9704867465
 30
0.0
 11
247.9219881361
 21
150.9704867465
 31
0.0
  0
LINE
  5
1DD
330
1D8
100
AcDbEntity
  8
0
  6
Continuous
 62
     7
370
     0
100
AcDbLine
 10
246.9059881361
 20
143.4704867465
 30
0.0
 11
246.9059881361
 21
150.9704867465
 31
0.0
  0
MTEXT
  5
1DE
330
1D8
100
AcDbEntity
  8
0
  6
Continuous
 62
     7
370
    18
100
AcDbMText
 10
247.9219881361
 20
152.7040986656
 30
0.0
 40
3.5
 41
0.0
 71
     1
 72
     1
  1
127.5
  7
SLDTEXTSTYLE0
 73
     1
 44
1.0
  0
ENDBLK
  5
1DA
330
1D8
100
AcDbEntity
  8
0
100
AcDbBlockEnd
  0
BLOCK
  5
1E1
330
1E0
100
AcDbEntity
  8
0
100
AcDbBlockBegin
  2
_D_24
 70
     0
 10
0.0
 20
0.0
 30
0.0
  3
_D_24
  1

  0
SOLID
  5
1E3
330
1E0
100
AcDbEntity
  8
0
  6
Continuous
 62
     7
370
    18
100
AcDbTrace
 10
246.9059881361
 20
158.4704867465
 30
0.0
 11
246.3979881361
 21
155.1684867465
 31
0.0
 12
247.4139881361
 22
155.1684867465
 32
0.0
 13
247.4139881361
 23
155.1684867465
 33
0.0
  0
LINE
  5
1E4
330
1E0
100
AcDbEntity
  8
0
  6
Continuous
 62
     7
370
     0
100
AcDbLine
 10
171.3219881361
 20
158.4704867465
 30
0.0
 11
247.9219881361
 21
158.4704867465
 31
0.0
  0
LINE
  5
1E5
330
1E0
100
AcDbEntity
  8
0
  6
Continuous
 62
     7
370
     0
100
AcDbLine
 10
246.9059881361
 20
150.9704867465
 30
0.0
 11
246.9059881361
 21
158.4704867465
 31
0.0
  0
MTEXT
  5
1E6
330
1E0
100
AcDbEntity
  8
0
  6
Continuous
 62
     7
370
    18
100
AcDbMText
 10
247.9219881361
 20
160.2040986656
 30
0.0
 40
3.5
 41
0.0
 71
     1
 72
     1
  1
142.5
  7
SLDTEXTSTYLE0
 73
     1
 44
1.0
  0
ENDBLK
  5
1E2
330
1E0
100
AcDbEntity
  8
0
100
AcDbBlockEnd
  0
BLOCK
  5
1E9
330
1E8
100
AcDbEntity
  8
0
100
AcDbBlockBegin
  2
_D_25
 70
     0
 10
0.0
 20
0.0
 30
0.0
  3
_D_25
  1

  0
SOLID
  5
1EB
330
1E8
100
AcDbEntity
  8
0
  6
Continuous
 62
     7
370
    18
100
AcDbTrace
 10
246.9059881361
 20
196.3454867465
 30
0.0
 11
246.3979881361
 21
193.0434867465
 31
0.0
 12
247.4139881361
 22
193.0434867465
 32
0.0
 13
247.4139881361
 23
193.0434867465
 33
0.0
  0
LINE
  5
1EC
330
1E8
100
AcDbEntity
  8
0
  6
Continuous
 62
     7
370
     0
100
AcDbLine
 10
112.1969881361
 20
196.3454867465
 30
0.0
 11
247.9219881361
 21
196.3454867465
 31
0.0
  0
LINE
  5
1ED
330
1E8
100
AcDbEntity
  8
0
  6
Continuous
 62
     7
370
     0
100
AcDbLine
 10
246.9059881361
 20
158.4704867465
 30
0.0
 11
246.9059881361
 21
196.3454867465
 31
0.0
  0
MTEXT
  5
1EE
330
1E8
100
AcDbEntity
  8
0
  6
Continuous
 62
     7
370
    18
100
AcDbMText
 10
247.9219881361
 20
198.0790986656
 30
0.0
 40
3.5
 41
0.0
 71
     1
 72
     1
  1
218.3
  7
SLDTEXTSTYLE0
 73
     1
 44
1.0
  0
ENDBLK
  5
1EA
330
1E8
100
AcDbEntity
  8
0
100
AcDbBlockEnd
  0
BLOCK
  5
1F1
330
1F0
100
AcDbEntity
  8
0
100
AcDbBlockBegin
  2
_D_26
 70
     0
 10
0.0
 20
0.0
 30
0.0
  3
_D_26
  1

  0
SOLID
  5
1F3
330
1F0
100
AcDbEntity
  8
0
  6
Continuous
 62
     7
370
    18
100
AcDbTrace
 10
246.9059881361
 20
210.0329867465
 30
0.0
 11
246.3979881361
 21
206.7309867465
 31
0.0
 12
247.4139881361
 22
206.7309867465
 32
0.0
 13
247.4139881361
 23
206.7309867465
 33
0.0
  0
LINE
  5
1F4
330
1F0
100
AcDbEntity
  8
0
  6
Continuous
 62
     7
370
     0
100
AcDbLine
 10
125.9469881361
 20
210.0329867465
 30
0.0
 11
247.9219881361
 21
210.0329867465
 31
0.0
  0
LINE
  5
1F5
330
1F0
100
AcDbEntity
  8
0
  6
Continuous
 62
     7
370
     0
100
AcDbLine
 10
246.9059881361
 20
196.3454867465
 30
0.0
 11
246.9059881361
 21
210.0329867465
 31
0.0
  0
MTEXT
  5
1F6
330
1F0
100
AcDbEntity
  8
0
  6
Continuous
 62
     7
370
    18
100
AcDbMText
 10
247.9219881361
 20
211.7665986656
 30
0.0
 40
3.5
 41
0.0
 71
     1
 72
     1
  1
245.6
  7
SLDTEXTSTYLE0
 73
     1
 44
1.0
  0
ENDBLK
  5
1F2
330
1F0
100
AcDbEntity
  8
0
100
AcDbBlockEnd
  0
BLOCK
  5
1FA
330
1F9
100
AcDbEntity
  8
0
100
AcDbBlockBegin
  2
_None
 70
     0
 10
0.0
 20
0.0
 30
0.0
  3
_None
  1

  0
ENDBLK
  5
1FB
330
1F9
100
AcDbEntity
  8
0
100
AcDbBlockEnd
  0
BLOCK
  5
1FD
330
1FC
100
AcDbEntity
  8
0
100
AcDbBlockBegin
  2
_D_27
 70
     0
 10
0.0
 20
0.0
 30
0.0
  3
_D_27
  1

  0
LINE
  5
1FF
330
1FC
100
AcDbEntity
  8
0
  6
Continuous
 62
     7
370
     0
100
AcDbLine
 10
126.9462259799
 20
80.0334532187
 30
0.0
 11
137.8330321789
 21
80.0334532187
 31
0.0
  0
MTEXT
  5
200
330
1FC
100
AcDbEntity
  8
0
  6
Continuous
 62
     7
370
    18
100
AcDbMText
 10
128.5337259799
 20
84.5451901333
 30
0.0
 40
3.5
 41
0.0
 71
     1
 72
     1
  1
R1.0
  7
SLDTEXTSTYLE0
 73
     1
 44
1.0
  0
ENDBLK
  5
1FE
330
1FC
100
AcDbEntity
  8
0
100
AcDbBlockEnd
  0
BLOCK
  5
204
330
203
100
AcDbEntity
  8
0
100
AcDbBlockBegin
  2
_D_28
 70
     0
 10
0.0
 20
0.0
 30
0.0
  3
_D_28
  1

  0
SOLID
  5
206
330
203
100
AcDbEntity
  8
0
  6
Continuous
 62
     7
370
    18
100
AcDbTrace
 10
230.84352188
 20
87.6639746957
 30
0.0
 11
232.3032004001
 21
84.6588779223
 31
0.0
 12
233.1389668976
 22
85.2365892357
 32
0.0
 13
233.1389668976
 23
85.2365892357
 33
0.0
  0
LINE
  5
207
330
203
100
AcDbEntity
  8
0
  6
Continuous
 62
     7
370
     0
100
AcDbLine
 10
230.84352188
 20
87.6639746957
 30
0.0
 11
237.2703039813
 21
78.3664431411
 31
0.0
  0
LINE
  5
208
330
203
100
AcDbEntity
  8
0
  6
Continuous
 62
     7
370
     0
100
AcDbLine
 10
237.2703039813
 20
78.3664431411
 30
0.0
 11
248.1571101803
 21
78.3664431411
 31
0.0
  0
MTEXT
  5
209
330
203
100
AcDbEntity
  8
0
  6
Continuous
 62
     7
370
    18
100
AcDbMText
 10
238.8578039813
 20
82.8781800556
 30
0.0
 40
3.5
 41
0.0
 71
     1
 72
     1
  1
R5.0
  7
SLDTEXTSTYLE0
 73
     1
 44
1.0
  0
ENDBLK
  5
205
330
203
100
AcDbEntity
  8
0
100
AcDbBlockEnd
  0
BLOCK
  5
20D
330
20C
100
AcDbEntity
  8
0
100
AcDbBlockBegin
  2
_D_29
 70
     0
 10
0.0
 20
0.0
 30
0.0
  3
_D_29
  1

  0
SOLID
  5
20F
330
20C
100
AcDbEntity
  8
0
  6
Continuous
 62
     7
370
    18
100
AcDbTrace
 10
168.6854473783
 20
89.9813253253
 30
0.0
 11
170.1520567291
 21
86.9796049832
 31
0.0
 12
170.9864878446
 22
87.5592434166
 32
0.0
 13
170.9864878446
 23
87.5592434166
 33
0.0
  0
LINE
  5
210
330
20C
100
AcDbEntity
  8
0
  6
Continuous
 62
     7
370
     0
100
AcDbLine
 10
168.6854473783
 20
89.9813253253
 30
0.0
 11
175.8294302038
 21
79.6970494478
 31
0.0
  0
LINE
  5
211
330
20C
100
AcDbEntity
  8
0
  6
Continuous
 62
     7
370
     0
100
AcDbLine
 10
175.8294302038
 20
79.6970494478
 30
0.0
 11
219.280088549
 21
79.6970494478
 31
0.0
  0
MTEXT
  5
213
330
20C
100
AcDbEntity
  8
0
  6
Continuous
 62
     7
370
    18
100
AcDbMText
 10
177.4169302038
 20
84.2622587136
 30
0.0
 40
3.5
 41
0.0
 71
     1
 72
     1
  1
6 x
  7
SLDTEXTSTYLE3
 73
     1
 44
1.0
  0
MTEXT
  5
214
330
20C
100
AcDbEntity
  8
0
  6
Continuous
 62
     7
370
    18
100
AcDbMText
 10
184.8301247186
 20
84.208786537
 30
0.0
 40
3.5
 41
0.0
 71
     1
 72
     1
  1
%%c
  7
SLDTEXTSTYLE0
 73
     1
 44
1.0
  0
MTEXT
  5
215
330
20C
100
AcDbEntity
  8
0
  6
Continuous
 62
     7
370
    18
100
AcDbMText
 10
191.421062117
 20
84.2622587136
 30
0.0
 40
3.5
 41
0.0
 71
     1
 72
     1
  1
3.6 THRU ALL
  7
SLDTEXTSTYLE0
 73
     1
 44
1.0
  0
ENDBLK
  5
20E
330
20C
100
AcDbEntity
  8
0
100
AcDbBlockEnd
  0
BLOCK
  5
219
330
218
100
AcDbEntity
  8
0
100
AcDbBlockBegin
  2
_D_30
 70
     0
 10
0.0
 20
0.0
 30
0.0
  3
_D_30
  1

  0
SOLID
  5
21B
330
218
100
AcDbEntity
  8
0
  6
Continuous
 62
     7
370
    18
100
AcDbTrace
 10
228.0754288811
 20
106.0471835547
 30
0.0
 11
231.1863992351
 21
107.2650224016
 31
0.0
 12
230.6764837272
 22
108.1437955092
 32
0.0
 13
230.6764837272
 23
108.1437955092
 33
0.0
  0
LINE
  5
21C
330
218
100
AcDbEntity
  8
0
  6
Continuous
 62
     7
370
     0
100
AcDbLine
 10
228.0754288811
 20
106.0471835547
 30
0.0
 11
250.7077801461
 21
119.1797962728
 31
0.0
  0
LINE
  5
21D
330
218
100
AcDbEntity
  8
0
  6
Continuous
 62
     7
370
     0
100
AcDbLine
 10
250.7077801461
 20
119.1797962728
 30
0.0
 11
299.3306650694
 21
119.1797962728
 31
0.0
  0
MTEXT
  5
21E
330
218
100
AcDbEntity
  8
0
  6
Continuous
 62
     7
370
    18
100
AcDbMText
 10
252.2952801461
 20
123.7450055387
 30
0.0
 40
3.5
 41
0.0
 71
     1
 72
     1
  1
12 x
  7
SLDTEXTSTYLE1
 73
     1
 44
1.0
  0
MTEXT
  5
21F
330
218
100
AcDbEntity
  8
0
  6
Continuous
 62
     7
370
    18
100
AcDbMText
 10
262.2945860873
 20
123.691533362
 30
0.0
 40
3.5
 41
0.0
 71
     1
 72
     1
  1
%%c
  7
SLDTEXTSTYLE0
 73
     1
 44
1.0
  0
MTEXT
  5
220
330
218
100
AcDbEntity
  8
0
  6
Continuous
 62
     7
370
    18
100
AcDbMText
 10
268.8855234857
 20
123.7450055387
 30
0.0
 40
3.5
 41
0.0
 71
     1
 72
     1
  1
3.60 THRU ALL
  7
SLDTEXTSTYLE0
 73
     1
 44
1.0
  0
ENDBLK
  5
21A
330
218
100
AcDbEntity
  8
0
100
AcDbBlockEnd
  0
BLOCK
  5
224
330
223
100
AcDbEntity
  8
0
100
AcDbBlockBegin
  2
_D_31
 70
     0
 10
0.0
 20
0.0
 30
0.0
  3
_D_31
  1

  0
SOLID
  5
226
330
223
100
AcDbEntity
  8
0
  6
Continuous
 62
     7
370
    18
100
AcDbTrace
 10
165.8409794429
 20
151.8740344608
 30
0.0
 11
162.9457840563
 21
153.5411012482
 31
0.0
 12
162.5785822653
 22
152.5937793153
 32
0.0
 13
162.5785822653
 23
152.5937793153
 33
0.0
  0
LINE
  5
227
330
223
100
AcDbEntity
  8
0
  6
Continuous
 62
     7
370
     0
100
AcDbLine
 10
165.8409794429
 20
151.8740344608
 30
0.0
 11
103.9174534027
 21
175.876888064
 31
0.0
  0
LINE
  5
228
330
223
100
AcDbEntity
  8
0
  6
Continuous
 62
     7
370
     0
100
AcDbLine
 10
103.9174534027
 20
175.876888064
 30
0.0
 11
75.6383210574
 21
175.876888064
 31
0.0
  0
MTEXT
  5
229
330
223
100
AcDbEntity
  8
0
  6
Continuous
 62
     7
370
    18
100
AcDbMText
 10
75.6383210574
 20
180.3886251532
 30
0.0
 40
3.5
 41
0.0
 71
     1
 72
     1
  1
%%c
  7
SLDTEXTSTYLE0
 73
     1
 44
1.0
  0
MTEXT
  5
22A
330
223
100
AcDbEntity
  8
0
  6
Continuous
 62
     7
370
    18
100
AcDbMText
 10
80.9167584558
 20
180.4420973299
 30
0.0
 40
3.5
 41
0.0
 71
     1
 72
     1
  1
10.0
  7
SLDTEXTSTYLE0
 73
     1
 44
1.0
  0
MTEXT
  5
22B
330
223
100
AcDbEntity
  8
0
  6
Continuous
 62
     7
370
    18
100
AcDbMText
 10
91.2806475167
 20
180.4420973299
 30
0.0
 40
3.5
 41
0.0
 71
     1
 72
     1
  1
THRU
  7
SLDTEXTSTYLE0
 73
     1
 44
1.0
  0
ENDBLK
  5
225
330
223
100
AcDbEntity
  8
0
100
AcDbBlockEnd
  0
BLOCK
  5
22D
330
22C
100
AcDbEntity
  8
0
100
AcDbBlockBegin
  2
SW_CENTERMARKSYMBOL_0
 70
     0
 10
0.0
 20
0.0
 30
0.0
  3
SW_CENTERMARKSYMBOL_0
  1

  0
LINE
  5
22F
330
22C
100
AcDbEntity
  8
0
  6
Continuous
 62
     0
370
    18
100
AcDbLine
 10
0.0
 20
0.0
 30
0.0
 11
0.0
 21
1.25
 31
0.0
  0
LINE
  5
230
330
22C
100
AcDbEntity
  8
0
  6
Continuous
 62
     0
370
    18
100
AcDbLine
 10
0.0
 20
0.0
 30
0.0
 11
-1.25
 21
0.0
 31
0.0
  0
LINE
  5
231
330
22C
100
AcDbEntity
  8
0
  6
Continuous
 62
     0
370
    18
100
AcDbLine
 10
0.0
 20
0.0
 30
0.0
 11
0.0
 21
-1.25
 31
0.0
  0
LINE
  5
232
330
22C
100
AcDbEntity
  8
0
  6
Continuous
 62
     0
370
    18
100
AcDbLine
 10
0.0
 20
0.0
 30
0.0
 11
1.25
 21
0.0
 31
0.0
  0
LINE
  5
233
330
22C
100
AcDbEntity
  8
0
  6
Continuous
 62
     0
370
    18
100
AcDbLine
 10
0.0
 20
1.25
 30
0.0
 11
0.0
 21
2.15
 31
0.0
  0
LINE
  5
234
330
22C
100
AcDbEntity
  8
0
  6
Continuous
 62
     0
370
    18
100
AcDbLine
 10
-1.25
 20
0.0
 30
0.0
 11
-2.15
 21
0.0
 31
0.0
  0
LINE
  5
235
330
22C
100
AcDbEntity
  8
0
  6
Continuous
 62
     0
370
    18
100
AcDbLine
 10
0.0
 20
-1.25
 30
0.0
 11
0.0
 21
-2.15
 31
0.0
  0
LINE
  5
236
330
22C
100
AcDbEntity
  8
0
  6
Continuous
 62
     0
370
    18
100
AcDbLine
 10
1.25
 20
0.0
 30
0.0
 11
2.15
 21
0.0
 31
0.0
  0
ENDBLK
  5
22E
330
22C
100
AcDbEntity
  8
0
100
AcDbBlockEnd
  0
BLOCK
  5
239
330
238
100
AcDbEntity
  8
0
100
AcDbBlockBegin
  2
SW_CENTERMARKSYMBOL_1
 70
     0
 10
0.0
 20
0.0
 30
0.0
  3
SW_CENTERMARKSYMBOL_1
  1

  0
LINE
  5
23B
330
238
100
AcDbEntity
  8
0
  6
Continuous
 62
     0
370
    18
100
AcDbLine
 10
0.0
 20
0.0
 30
0.0
 11
0.0
 21
1.25
 31
0.0
  0
LINE
  5
23C
330
238
100
AcDbEntity
  8
0
  6
Continuous
 62
     0
370
    18
100
AcDbLine
 10
0.0
 20
0.0
 30
0.0
 11
-1.25
 21
0.0
 31
0.0
  0
LINE
  5
23D
330
238
100
AcDbEntity
  8
0
  6
Continuous
 62
     0
370
    18
100
AcDbLine
 10
0.0
 20
0.0
 30
0.0
 11
0.0
 21
-1.25
 31
0.0
  0
LINE
  5
23E
330
238
100
AcDbEntity
  8
0
  6
Continuous
 62
     0
370
    18
100
AcDbLine
 10
0.0
 20
0.0
 30
0.0
 11
1.25
 21
0.0
 31
0.0
  0
LINE
  5
23F
330
238
100
AcDbEntity
  8
0
  6
Continuous
 62
     0
370
    18
100
AcDbLine
 10
0.0
 20
1.25
 30
0.0
 11
0.0
 21
2.15
 31
0.0
  0
LINE
  5
240
330
238
100
AcDbEntity
  8
0
  6
Continuous
 62
     0
370
    18
100
AcDbLine
 10
-1.25
 20
0.0
 30
0.0
 11
-2.15
 21
0.0
 31
0.0
  0
LINE
  5
241
330
238
100
AcDbEntity
  8
0
  6
Continuous
 62
     0
370
    18
100
AcDbLine
 10
0.0
 20
-1.25
 30
0.0
 11
0.0
 21
-2.15
 31
0.0
  0
LINE
  5
242
330
238
100
AcDbEntity
  8
0
  6
Continuous
 62
     0
370
    18
100
AcDbLine
 10
1.25
 20
0.0
 30
0.0
 11
2.15
 21
0.0
 31
0.0
  0
ENDBLK
  5
23A
330
238
100
AcDbEntity
  8
0
100
AcDbBlockEnd
  0
BLOCK
  5
245
330
244
100
AcDbEntity
  8
0
100
AcDbBlockBegin
  2
SW_CENTERMARKSYMBOL_2
 70
     0
 10
0.0
 20
0.0
 30
0.0
  3
SW_CENTERMARKSYMBOL_2
  1

  0
LINE
  5
247
330
244
100
AcDbEntity
  8
0
  6
Continuous
 62
     0
370
    18
100
AcDbLine
 10
0.0
 20
0.0
 30
0.0
 11
0.0
 21
1.25
 31
0.0
  0
LINE
  5
248
330
244
100
AcDbEntity
  8
0
  6
Continuous
 62
     0
370
    18
100
AcDbLine
 10
0.0
 20
0.0
 30
0.0
 11
-1.25
 21
0.0
 31
0.0
  0
LINE
  5
249
330
244
100
AcDbEntity
  8
0
  6
Continuous
 62
     0
370
    18
100
AcDbLine
 10
0.0
 20
0.0
 30
0.0
 11
0.0
 21
-1.25
 31
0.0
  0
LINE
  5
24A
330
244
100
AcDbEntity
  8
0
  6
Continuous
 62
     0
370
    18
100
AcDbLine
 10
0.0
 20
0.0
 30
0.0
 11
1.25
 21
0.0
 31
0.0
  0
LINE
  5
24B
330
244
100
AcDbEntity
  8
0
  6
Continuous
 62
     0
370
    18
100
AcDbLine
 10
0.0
 20
1.25
 30
0.0
 11
0.0
 21
2.15
 31
0.0
  0
LINE
  5
24C
330
244
100
AcDbEntity
  8
0
  6
Continuous
 62
     0
370
    18
100
AcDbLine
 10
-1.25
 20
0.0
 30
0.0
 11
-2.15
 21
0.0
 31
0.0
  0
LINE
  5
24D
330
244
100
AcDbEntity
  8
0
  6
Continuous
 62
     0
370
    18
100
AcDbLine
 10
0.0
 20
-1.25
 30
0.0
 11
0.0
 21
-2.15
 31
0.0
  0
LINE
  5
24E
330
244
100
AcDbEntity
  8
0
  6
Continuous
 62
     0
370
    18
100
AcDbLine
 10
1.25
 20
0.0
 30
0.0
 11
2.15
 21
0.0
 31
0.0
  0
ENDBLK
  5
246
330
244
100
AcDbEntity
  8
0
100
AcDbBlockEnd
  0
BLOCK
  5
251
330
250
100
AcDbEntity
  8
0
100
AcDbBlockBegin
  2
SW_CENTERMARKSYMBOL_3
 70
     0
 10
0.0
 20
0.0
 30
0.0
  3
SW_CENTERMARKSYMBOL_3
  1

  0
LINE
  5
253
330
250
100
AcDbEntity
  8
0
  6
Continuous
 62
     0
370
    18
100
AcDbLine
 10
0.0
 20
0.0
 30
0.0
 11
0.0
 21
1.25
 31
0.0
  0
LINE
  5
254
330
250
100
AcDbEntity
  8
0
  6
Continuous
 62
     0
370
    18
100
AcDbLine
 10
0.0
 20
0.0
 30
0.0
 11
-1.25
 21
0.0
 31
0.0
  0
LINE
  5
255
330
250
100
AcDbEntity
  8
0
  6
Continuous
 62
     0
370
    18
100
AcDbLine
 10
0.0
 20
0.0
 30
0.0
 11
0.0
 21
-1.25
 31
0.0
  0
LINE
  5
256
330
250
100
AcDbEntity
  8
0
  6
Continuous
 62
     0
370
    18
100
AcDbLine
 10
0.0
 20
0.0
 30
0.0
 11
1.25
 21
0.0
 31
0.0
  0
LINE
  5
257
330
250
100
AcDbEntity
  8
0
  6
Continuous
 62
     0
370
    18
100
AcDbLine
 10
0.0
 20
1.25
 30
0.0
 11
0.0
 21
2.15
 31
0.0
  0
LINE
  5
258
330
250
100
AcDbEntity
  8
0
  6
Continuous
 62
     0
370
    18
100
AcDbLine
 10
-1.25
 20
0.0
 30
0.0
 11
-2.15
 21
0.0
 31
0.0
  0
LINE
  5
259
330
250
100
AcDbEntity
  8
0
  6
Continuous
 62
     0
370
    18
100
AcDbLine
 10
0.0
 20
-1.25
 30
0.0
 11
0.0
 21
-2.15
 31
0.0
  0
LINE
  5
25A
330
250
100
AcDbEntity
  8
0
  6
Continuous
 62
     0
370
    18
100
AcDbLine
 10
1.25
 20
0.0
 30
0.0
 11
2.15
 21
0.0
 31
0.0
  0
ENDBLK
  5
252
330
250
100
AcDbEntity
  8
0
100
AcDbBlockEnd
  0
BLOCK
  5
25D
330
25C
100
AcDbEntity
  8
0
100
AcDbBlockBegin
  2
SW_CENTERMARKSYMBOL_4
 70
     0
 10
0.0
 20
0.0
 30
0.0
  3
SW_CENTERMARKSYMBOL_4
  1

  0
LINE
  5
25F
330
25C
100
AcDbEntity
  8
0
  6
Continuous
 62
     0
370
    18
100
AcDbLine
 10
0.0
 20
0.0
 30
0.0
 11
0.0
 21
1.25
 31
0.0
  0
LINE
  5
260
330
25C
100
AcDbEntity
  8
0
  6
Continuous
 62
     0
370
    18
100
AcDbLine
 10
0.0
 20
0.0
 30
0.0
 11
-1.25
 21
0.0
 31
0.0
  0
LINE
  5
261
330
25C
100
AcDbEntity
  8
0
  6
Continuous
 62
     0
370
    18
100
AcDbLine
 10
0.0
 20
0.0
 30
0.0
 11
0.0
 21
-1.25
 31
0.0
  0
LINE
  5
262
330
25C
100
AcDbEntity
  8
0
  6
Continuous
 62
     0
370
    18
100
AcDbLine
 10
0.0
 20
0.0
 30
0.0
 11
1.25
 21
0.0
 31
0.0
  0
LINE
  5
263
330
25C
100
AcDbEntity
  8
0
  6
Continuous
 62
     0
370
    18
100
AcDbLine
 10
0.0
 20
1.25
 30
0.0
 11
0.0
 21
2.15
 31
0.0
  0
LINE
  5
264
330
25C
100
AcDbEntity
  8
0
  6
Continuous
 62
     0
370
    18
100
AcDbLine
 10
-1.25
 20
0.0
 30
0.0
 11
-2.15
 21
0.0
 31
0.0
  0
LINE
  5
265
330
25C
100
AcDbEntity
  8
0
  6
Continuous
 62
     0
370
    18
100
AcDbLine
 10
0.0
 20
-1.25
 30
0.0
 11
0.0
 21
-2.15
 31
0.0
  0
LINE
  5
266
330
25C
100
AcDbEntity
  8
0
  6
Continuous
 62
     0
370
    18
100
AcDbLine
 10
1.25
 20
0.0
 30
0.0
 11
2.15
 21
0.0
 31
0.0
  0
ENDBLK
  5
25E
330
25C
100
AcDbEntity
  8
0
100
AcDbBlockEnd
  0
BLOCK
  5
269
330
268
100
AcDbEntity
  8
0
100
AcDbBlockBegin
  2
SW_CENTERMARKSYMBOL_5
 70
     0
 10
0.0
 20
0.0
 30
0.0
  3
SW_CENTERMARKSYMBOL_5
  1

  0
LINE
  5
26B
330
268
100
AcDbEntity
  8
0
  6
Continuous
 62
     0
370
    18
100
AcDbLine
 10
0.0
 20
0.0
 30
0.0
 11
0.0
 21
1.25
 31
0.0
  0
LINE
  5
26C
330
268
100
AcDbEntity
  8
0
  6
Continuous
 62
     0
370
    18
100
AcDbLine
 10
0.0
 20
0.0
 30
0.0
 11
-1.25
 21
0.0
 31
0.0
  0
LINE
  5
26D
330
268
100
AcDbEntity
  8
0
  6
Continuous
 62
     0
370
    18
100
AcDbLine
 10
0.0
 20
0.0
 30
0.0
 11
0.0
 21
-1.25
 31
0.0
  0
LINE
  5
26E
330
268
100
AcDbEntity
  8
0
  6
Continuous
 62
     0
370
    18
100
AcDbLine
 10
0.0
 20
0.0
 30
0.0
 11
1.25
 21
0.0
 31
0.0
  0
LINE
  5
26F
330
268
100
AcDbEntity
  8
0
  6
Continuous
 62
     0
370
    18
100
AcDbLine
 10
0.0
 20
1.25
 30
0.0
 11
0.0
 21
2.15
 31
0.0
  0
LINE
  5
270
330
268
100
AcDbEntity
  8
0
  6
Continuous
 62
     0
370
    18
100
AcDbLine
 10
-1.25
 20
0.0
 30
0.0
 11
-2.15
 21
0.0
 31
0.0
  0
LINE
  5
271
330
268
100
AcDbEntity
  8
0
  6
Continuous
 62
     0
370
    18
100
AcDbLine
 10
0.0
 20
-1.25
 30
0.0
 11
0.0
 21
-2.15
 31
0.0
  0
LINE
  5
272
330
268
100
AcDbEntity
  8
0
  6
Continuous
 62
     0
370
    18
100
AcDbLine
 10
1.25
 20
0.0
 30
0.0
 11
2.15
 21
0.0
 31
0.0
  0
ENDBLK
  5
26A
330
268
100
AcDbEntity
  8
0
100
AcDbBlockEnd
  0
BLOCK
  5
275
330
274
100
AcDbEntity
  8
0
100
AcDbBlockBegin
  2
SW_CENTERMARKSYMBOL_6
 70
     0
 10
0.0
 20
0.0
 30
0.0
  3
SW_CENTERMARKSYMBOL_6
  1

  0
LINE
  5
277
330
274
100
AcDbEntity
  8
0
  6
Continuous
 62
     0
370
    18
100
AcDbLine
 10
0.0
 20
0.0
 30
0.0
 11
0.0
 21
1.25
 31
0.0
  0
LINE
  5
278
330
274
100
AcDbEntity
  8
0
  6
Continuous
 62
     0
370
    18
100
AcDbLine
 10
0.0
 20
0.0
 30
0.0
 11
-1.25
 21
0.0
 31
0.0
  0
LINE
  5
279
330
274
100
AcDbEntity
  8
0
  6
Continuous
 62
     0
370
    18
100
AcDbLine
 10
0.0
 20
0.0
 30
0.0
 11
0.0
 21
-1.25
 31
0.0
  0
LINE
  5
27A
330
274
100
AcDbEntity
  8
0
  6
Continuous
 62
     0
370
    18
100
AcDbLine
 10
0.0
 20
0.0
 30
0.0
 11
1.25
 21
0.0
 31
0.0
  0
LINE
  5
27B
330
274
100
AcDbEntity
  8
0
  6
Continuous
 62
     0
370
    18
100
AcDbLine
 10
0.0
 20
1.25
 30
0.0
 11
0.0
 21
2.15
 31
0.0
  0
LINE
  5
27C
330
274
100
AcDbEntity
  8
0
  6
Continuous
 62
     0
370
    18
100
AcDbLine
 10
-1.25
 20
0.0
 30
0.0
 11
-2.15
 21
0.0
 31
0.0
  0
LINE
  5
27D
330
274
100
AcDbEntity
  8
0
  6
Continuous
 62
     0
370
    18
100
AcDbLine
 10
0.0
 20
-1.25
 30
0.0
 11
0.0
 21
-2.15
 31
0.0
  0
LINE
  5
27E
330
274
100
AcDbEntity
  8
0
  6
Continuous
 62
     0
370
    18
100
AcDbLine
 10
1.25
 20
0.0
 30
0.0
 11
2.15
 21
0.0
 31
0.0
  0
ENDBLK
  5
276
330
274
100
AcDbEntity
  8
0
100
AcDbBlockEnd
  0
BLOCK
  5
281
330
280
100
AcDbEntity
  8
0
100
AcDbBlockBegin
  2
SW_CENTERMARKSYMBOL_7
 70
     0
 10
0.0
 20
0.0
 30
0.0
  3
SW_CENTERMARKSYMBOL_7
  1

  0
LINE
  5
283
330
280
100
AcDbEntity
  8
0
  6
Continuous
 62
     0
370
    18
100
AcDbLine
 10
0.0
 20
0.0
 30
0.0
 11
0.0
 21
1.25
 31
0.0
  0
LINE
  5
284
330
280
100
AcDbEntity
  8
0
  6
Continuous
 62
     0
370
    18
100
AcDbLine
 10
0.0
 20
0.0
 30
0.0
 11
-1.25
 21
0.0
 31
0.0
  0
LINE
  5
285
330
280
100
AcDbEntity
  8
0
  6
Continuous
 62
     0
370
    18
100
AcDbLine
 10
0.0
 20
0.0
 30
0.0
 11
0.0
 21
-1.25
 31
0.0
  0
LINE
  5
286
330
280
100
AcDbEntity
  8
0
  6
Continuous
 62
     0
370
    18
100
AcDbLine
 10
0.0
 20
0.0
 30
0.0
 11
1.25
 21
0.0
 31
0.0
  0
LINE
  5
287
330
280
100
AcDbEntity
  8
0
  6
Continuous
 62
     0
370
    18
100
AcDbLine
 10
0.0
 20
1.25
 30
0.0
 11
0.0
 21
2.15
 31
0.0
  0
LINE
  5
288
330
280
100
AcDbEntity
  8
0
  6
Continuous
 62
     0
370
    18
100
AcDbLine
 10
-1.25
 20
0.0
 30
0.0
 11
-2.15
 21
0.0
 31
0.0
  0
LINE
  5
289
330
280
100
AcDbEntity
  8
0
  6
Continuous
 62
     0
370
    18
100
AcDbLine
 10
0.0
 20
-1.25
 30
0.0
 11
0.0
 21
-2.15
 31
0.0
  0
LINE
  5
28A
330
280
100
AcDbEntity
  8
0
  6
Continuous
 62
     0
370
    18
100
AcDbLine
 10
1.25
 20
0.0
 30
0.0
 11
2.15
 21
0.0
 31
0.0
  0
ENDBLK
  5
282
330
280
100
AcDbEntity
  8
0
100
AcDbBlockEnd
  0
BLOCK
  5
28D
330
28C
100
AcDbEntity
  8
0
100
AcDbBlockBegin
  2
SW_CENTERMARKSYMBOL_8
 70
     0
 10
0.0
 20
0.0
 30
0.0
  3
SW_CENTERMARKSYMBOL_8
  1

  0
LINE
  5
28F
330
28C
100
AcDbEntity
  8
0
  6
Continuous
 62
     0
370
    18
100
AcDbLine
 10
0.0
 20
0.0
 30
0.0
 11
0.0
 21
1.25
 31
0.0
  0
LINE
  5
290
330
28C
100
AcDbEntity
  8
0
  6
Continuous
 62
     0
370
    18
100
AcDbLine
 10
0.0
 20
0.0
 30
0.0
 11
-1.25
 21
0.0
 31
0.0
  0
LINE
  5
291
330
28C
100
AcDbEntity
  8
0
  6
Continuous
 62
     0
370
    18
100
AcDbLine
 10
0.0
 20
0.0
 30
0.0
 11
0.0
 21
-1.25
 31
0.0
  0
LINE
  5
292
330
28C
100
AcDbEntity
  8
0
  6
Continuous
 62
     0
370
    18
100
AcDbLine
 10
0.0
 20
0.0
 30
0.0
 11
1.25
 21
0.0
 31
0.0
  0
LINE
  5
293
330
28C
100
AcDbEntity
  8
0
  6
Continuous
 62
     0
370
    18
100
AcDbLine
 10
0.0
 20
1.25
 30
0.0
 11
0.0
 21
2.15
 31
0.0
  0
LINE
  5
294
330
28C
100
AcDbEntity
  8
0
  6
Continuous
 62
     0
370
    18
100
AcDbLine
 10
-1.25
 20
0.0
 30
0.0
 11
-2.15
 21
0.0
 31
0.0
  0
LINE
  5
295
330
28C
100
AcDbEntity
  8
0
  6
Continuous
 62
     0
370
    18
100
AcDbLine
 10
0.0
 20
-1.25
 30
0.0
 11
0.0
 21
-2.15
 31
0.0
  0
LINE
  5
296
330
28C
100
AcDbEntity
  8
0
  6
Continuous
 62
     0
370
    18
100
AcDbLine
 10
1.25
 20
0.0
 30
0.0
 11
2.15
 21
0.0
 31
0.0
  0
ENDBLK
  5
28E
330
28C
100
AcDbEntity
  8
0
100
AcDbBlockEnd
  0
BLOCK
  5
299
330
298
100
AcDbEntity
  8
0
100
AcDbBlockBegin
  2
SW_CENTERMARKSYMBOL_9
 70
     0
 10
0.0
 20
0.0
 30
0.0
  3
SW_CENTERMARKSYMBOL_9
  1

  0
LINE
  5
29B
330
298
100
AcDbEntity
  8
0
  6
Continuous
 62
     0
370
    18
100
AcDbLine
 10
0.0
 20
0.0
 30
0.0
 11
0.0
 21
1.25
 31
0.0
  0
LINE
  5
29C
330
298
100
AcDbEntity
  8
0
  6
Continuous
 62
     0
370
    18
100
AcDbLine
 10
0.0
 20
0.0
 30
0.0
 11
-1.25
 21
0.0
 31
0.0
  0
LINE
  5
29D
330
298
100
AcDbEntity
  8
0
  6
Continuous
 62
     0
370
    18
100
AcDbLine
 10
0.0
 20
0.0
 30
0.0
 11
0.0
 21
-1.25
 31
0.0
  0
LINE
  5
29E
330
298
100
AcDbEntity
  8
0
  6
Continuous
 62
     0
370
    18
100
AcDbLine
 10
0.0
 20
0.0
 30
0.0
 11
1.25
 21
0.0
 31
0.0
  0
LINE
  5
29F
330
298
100
AcDbEntity
  8
0
  6
Continuous
 62
     0
370
    18
100
AcDbLine
 10
0.0
 20
1.25
 30
0.0
 11
0.0
 21
2.15
 31
0.0
  0
LINE
  5
2A0
330
298
100
AcDbEntity
  8
0
  6
Continuous
 62
     0
370
    18
100
AcDbLine
 10
-1.25
 20
0.0
 30
0.0
 11
-2.15
 21
0.0
 31
0.0
  0
LINE
  5
2A1
330
298
100
AcDbEntity
  8
0
  6
Continuous
 62
     0
370
    18
100
AcDbLine
 10
0.0
 20
-1.25
 30
0.0
 11
0.0
 21
-2.15
 31
0.0
  0
LINE
  5
2A2
330
298
100
AcDbEntity
  8
0
  6
Continuous
 62
     0
370
    18
100
AcDbLine
 10
1.25
 20
0.0
 30
0.0
 11
2.15
 21
0.0
 31
0.0
  0
ENDBLK
  5
29A
330
298
100
AcDbEntity
  8
0
100
AcDbBlockEnd
  0
BLOCK
  5
2A5
330
2A4
100
AcDbEntity
  8
0
100
AcDbBlockBegin
  2
SW_CENTERMARKSYMBOL_10
 70
     0
 10
0.0
 20
0.0
 30
0.0
  3
SW_CENTERMARKSYMBOL_10
  1

  0
LINE
  5
2A7
330
2A4
100
AcDbEntity
  8
0
  6
Continuous
 62
     0
370
    18
100
AcDbLine
 10
0.0
 20
0.0
 30
0.0
 11
0.0
 21
1.25
 31
0.0
  0
LINE
  5
2A8
330
2A4
100
AcDbEntity
  8
0
  6
Continuous
 62
     0
370
    18
100
AcDbLine
 10
0.0
 20
0.0
 30
0.0
 11
-1.25
 21
0.0
 31
0.0
  0
LINE
  5
2A9
330
2A4
100
AcDbEntity
  8
0
  6
Continuous
 62
     0
370
    18
100
AcDbLine
 10
0.0
 20
0.0
 30
0.0
 11
0.0
 21
-1.25
 31
0.0
  0
LINE
  5
2AA
330
2A4
100
AcDbEntity
  8
0
  6
Continuous
 62
     0
370
    18
100
AcDbLine
 10
0.0
 20
0.0
 30
0.0
 11
1.25
 21
0.0
 31
0.0
  0
LINE
  5
2AB
330
2A4
100
AcDbEntity
  8
0
  6
Continuous
 62
     0
370
    18
100
AcDbLine
 10
0.0
 20
1.25
 30
0.0
 11
0.0
 21
2.15
 31
0.0
  0
LINE
  5
2AC
330
2A4
100
AcDbEntity
  8
0
  6
Continuous
 62
     0
370
    18
100
AcDbLine
 10
-1.25
 20
0.0
 30
0.0
 11
-2.15
 21
0.0
 31
0.0
  0
LINE
  5
2AD
330
2A4
100
AcDbEntity
  8
0
  6
Continuous
 62
     0
370
    18
100
AcDbLine
 10
0.0
 20
-1.25
 30
0.0
 11
0.0
 21
-2.15
 31
0.0
  0
LINE
  5
2AE
330
2A4
100
AcDbEntity
  8
0
  6
Continuous
 62
     0
370
    18
100
AcDbLine
 10
1.25
 20
0.0
 30
0.0
 11
2.15
 21
0.0
 31
0.0
  0
ENDBLK
  5
2A6
330
2A4
100
AcDbEntity
  8
0
100
AcDbBlockEnd
  0
BLOCK
  5
2B1
330
2B0
100
AcDbEntity
  8
0
100
AcDbBlockBegin
  2
SW_CENTERMARKSYMBOL_11
 70
     0
 10
0.0
 20
0.0
 30
0.0
  3
SW_CENTERMARKSYMBOL_11
  1

  0
LINE
  5
2B3
330
2B0
100
AcDbEntity
  8
0
  6
Continuous
 62
     0
370
    18
100
AcDbLine
 10
0.0
 20
0.0
 30
0.0
 11
0.0
 21
1.25
 31
0.0
  0
LINE
  5
2B4
330
2B0
100
AcDbEntity
  8
0
  6
Continuous
 62
     0
370
    18
100
AcDbLine
 10
0.0
 20
0.0
 30
0.0
 11
-1.25
 21
0.0
 31
0.0
  0
LINE
  5
2B5
330
2B0
100
AcDbEntity
  8
0
  6
Continuous
 62
     0
370
    18
100
AcDbLine
 10
0.0
 20
0.0
 30
0.0
 11
0.0
 21
-1.25
 31
0.0
  0
LINE
  5
2B6
330
2B0
100
AcDbEntity
  8
0
  6
Continuous
 62
     0
370
    18
100
AcDbLine
 10
0.0
 20
0.0
 30
0.0
 11
1.25
 21
0.0
 31
0.0
  0
LINE
  5
2B7
330
2B0
100
AcDbEntity
  8
0
  6
Continuous
 62
     0
370
    18
100
AcDbLine
 10
0.0
 20
1.25
 30
0.0
 11
0.0
 21
2.15
 31
0.0
  0
LINE
  5
2B8
330
2B0
100
AcDbEntity
  8
0
  6
Continuous
 62
     0
370
    18
100
AcDbLine
 10
-1.25
 20
0.0
 30
0.0
 11
-2.15
 21
0.0
 31
0.0
  0
LINE
  5
2B9
330
2B0
100
AcDbEntity
  8
0
  6
Continuous
 62
     0
370
    18
100
AcDbLine
 10
0.0
 20
-1.25
 30
0.0
 11
0.0
 21
-2.15
 31
0.0
  0
LINE
  5
2BA
330
2B0
100
AcDbEntity
  8
0
  6
Continuous
 62
     0
370
    18
100
AcDbLine
 10
1.25
 20
0.0
 30
0.0
 11
2.15
 21
0.0
 31
0.0
  0
ENDBLK
  5
2B2
330
2B0
100
AcDbEntity
  8
0
100
AcDbBlockEnd
  0
BLOCK
  5
2BD
330
2BC
100
AcDbEntity
  8
0
100
AcDbBlockBegin
  2
SW_CENTERMARKSYMBOL_12
 70
     0
 10
0.0
 20
0.0
 30
0.0
  3
SW_CENTERMARKSYMBOL_12
  1

  0
LINE
  5
2BF
330
2BC
100
AcDbEntity
  8
0
  6
Continuous
 62
     0
370
    18
100
AcDbLine
 10
0.0
 20
0.0
 30
0.0
 11
0.0
 21
1.25
 31
0.0
  0
LINE
  5
2C0
330
2BC
100
AcDbEntity
  8
0
  6
Continuous
 62
     0
370
    18
100
AcDbLine
 10
0.0
 20
0.0
 30
0.0
 11
-1.25
 21
0.0
 31
0.0
  0
LINE
  5
2C1
330
2BC
100
AcDbEntity
  8
0
  6
Continuous
 62
     0
370
    18
100
AcDbLine
 10
0.0
 20
0.0
 30
0.0
 11
0.0
 21
-1.25
 31
0.0
  0
LINE
  5
2C2
330
2BC
100
AcDbEntity
  8
0
  6
Continuous
 62
     0
370
    18
100
AcDbLine
 10
0.0
 20
0.0
 30
0.0
 11
1.25
 21
0.0
 31
0.0
  0
LINE
  5
2C3
330
2BC
100
AcDbEntity
  8
0
  6
Continuous
 62
     0
370
    18
100
AcDbLine
 10
0.0
 20
1.25
 30
0.0
 11
0.0
 21
2.15
 31
0.0
  0
LINE
  5
2C4
330
2BC
100
AcDbEntity
  8
0
  6
Continuous
 62
     0
370
    18
100
AcDbLine
 10
-1.25
 20
0.0
 30
0.0
 11
-2.15
 21
0.0
 31
0.0
  0
LINE
  5
2C5
330
2BC
100
AcDbEntity
  8
0
  6
Continuous
 62
     0
370
    18
100
AcDbLine
 10
0.0
 20
-1.25
 30
0.0
 11
0.0
 21
-2.15
 31
0.0
  0
LINE
  5
2C6
330
2BC
100
AcDbEntity
  8
0
  6
Continuous
 62
     0
370
    18
100
AcDbLine
 10
1.25
 20
0.0
 30
0.0
 11
2.15
 21
0.0
 31
0.0
  0
ENDBLK
  5
2BE
330
2BC
100
AcDbEntity
  8
0
100
AcDbBlockEnd
  0
BLOCK
  5
2C9
330
2C8
100
AcDbEntity
  8
0
100
AcDbBlockBegin
  2
SW_CENTERMARKSYMBOL_13
 70
     0
 10
0.0
 20
0.0
 30
0.0
  3
SW_CENTERMARKSYMBOL_13
  1

  0
LINE
  5
2CB
330
2C8
100
AcDbEntity
  8
0
  6
Continuous
 62
     0
370
    18
100
AcDbLine
 10
0.0
 20
0.0
 30
0.0
 11
0.0
 21
1.25
 31
0.0
  0
LINE
  5
2CC
330
2C8
100
AcDbEntity
  8
0
  6
Continuous
 62
     0
370
    18
100
AcDbLine
 10
0.0
 20
0.0
 30
0.0
 11
-1.25
 21
0.0
 31
0.0
  0
LINE
  5
2CD
330
2C8
100
AcDbEntity
  8
0
  6
Continuous
 62
     0
370
    18
100
AcDbLine
 10
0.0
 20
0.0
 30
0.0
 11
0.0
 21
-1.25
 31
0.0
  0
LINE
  5
2CE
330
2C8
100
AcDbEntity
  8
0
  6
Continuous
 62
     0
370
    18
100
AcDbLine
 10
0.0
 20
0.0
 30
0.0
 11
1.25
 21
0.0
 31
0.0
  0
LINE
  5
2CF
330
2C8
100
AcDbEntity
  8
0
  6
Continuous
 62
     0
370
    18
100
AcDbLine
 10
0.0
 20
1.25
 30
0.0
 11
0.0
 21
2.15
 31
0.0
  0
LINE
  5
2D0
330
2C8
100
AcDbEntity
  8
0
  6
Continuous
 62
     0
370
    18
100
AcDbLine
 10
-1.25
 20
0.0
 30
0.0
 11
-2.15
 21
0.0
 31
0.0
  0
LINE
  5
2D1
330
2C8
100
AcDbEntity
  8
0
  6
Continuous
 62
     0
370
    18
100
AcDbLine
 10
0.0
 20
-1.25
 30
0.0
 11
0.0
 21
-2.15
 31
0.0
  0
LINE
  5
2D2
330
2C8
100
AcDbEntity
  8
0
  6
Continuous
 62
     0
370
    18
100
AcDbLine
 10
1.25
 20
0.0
 30
0.0
 11
2.15
 21
0.0
 31
0.0
  0
ENDBLK
  5
2CA
330
2C8
100
AcDbEntity
  8
0
100
AcDbBlockEnd
  0
BLOCK
  5
2D5
330
2D4
100
AcDbEntity
  8
0
100
AcDbBlockBegin
  2
SW_CENTERMARKSYMBOL_14
 70
     0
 10
0.0
 20
0.0
 30
0.0
  3
SW_CENTERMARKSYMBOL_14
  1

  0
LINE
  5
2D7
330
2D4
100
AcDbEntity
  8
0
  6
Continuous
 62
     0
370
    18
100
AcDbLine
 10
0.0
 20
0.0
 30
0.0
 11
0.0
 21
1.25
 31
0.0
  0
LINE
  5
2D8
330
2D4
100
AcDbEntity
  8
0
  6
Continuous
 62
     0
370
    18
100
AcDbLine
 10
0.0
 20
0.0
 30
0.0
 11
-1.25
 21
0.0
 31
0.0
  0
LINE
  5
2D9
330
2D4
100
AcDbEntity
  8
0
  6
Continuous
 62
     0
370
    18
100
AcDbLine
 10
0.0
 20
0.0
 30
0.0
 11
0.0
 21
-1.25
 31
0.0
  0
LINE
  5
2DA
330
2D4
100
AcDbEntity
  8
0
  6
Continuous
 62
     0
370
    18
100
AcDbLine
 10
0.0
 20
0.0
 30
0.0
 11
1.25
 21
0.0
 31
0.0
  0
LINE
  5
2DB
330
2D4
100
AcDbEntity
  8
0
  6
Continuous
 62
     0
370
    18
100
AcDbLine
 10
0.0
 20
1.25
 30
0.0
 11
0.0
 21
2.15
 31
0.0
  0
LINE
  5
2DC
330
2D4
100
AcDbEntity
  8
0
  6
Continuous
 62
     0
370
    18
100
AcDbLine
 10
-1.25
 20
0.0
 30
0.0
 11
-2.15
 21
0.0
 31
0.0
  0
LINE
  5
2DD
330
2D4
100
AcDbEntity
  8
0
  6
Continuous
 62
     0
370
    18
100
AcDbLine
 10
0.0
 20
-1.25
 30
0.0
 11
0.0
 21
-2.15
 31
0.0
  0
LINE
  5
2DE
330
2D4
100
AcDbEntity
  8
0
  6
Continuous
 62
     0
370
    18
100
AcDbLine
 10
1.25
 20
0.0
 30
0.0
 11
2.15
 21
0.0
 31
0.0
  0
ENDBLK
  5
2D6
330
2D4
100
AcDbEntity
  8
0
100
AcDbBlockEnd
  0
BLOCK
  5
2E1
330
2E0
100
AcDbEntity
  8
0
100
AcDbBlockBegin
  2
SW_CENTERMARKSYMBOL_15
 70
     0
 10
0.0
 20
0.0
 30
0.0
  3
SW_CENTERMARKSYMBOL_15
  1

  0
LINE
  5
2E3
330
2E0
100
AcDbEntity
  8
0
  6
Continuous
 62
     0
370
    18
100
AcDbLine
 10
0.0
 20
0.0
 30
0.0
 11
0.0
 21
1.25
 31
0.0
  0
LINE
  5
2E4
330
2E0
100
AcDbEntity
  8
0
  6
Continuous
 62
     0
370
    18
100
AcDbLine
 10
0.0
 20
0.0
 30
0.0
 11
-1.25
 21
0.0
 31
0.0
  0
LINE
  5
2E5
330
2E0
100
AcDbEntity
  8
0
  6
Continuous
 62
     0
370
    18
100
AcDbLine
 10
0.0
 20
0.0
 30
0.0
 11
0.0
 21
-1.25
 31
0.0
  0
LINE
  5
2E6
330
2E0
100
AcDbEntity
  8
0
  6
Continuous
 62
     0
370
    18
100
AcDbLine
 10
0.0
 20
0.0
 30
0.0
 11
1.25
 21
0.0
 31
0.0
  0
LINE
  5
2E7
330
2E0
100
AcDbEntity
  8
0
  6
Continuous
 62
     0
370
    18
100
AcDbLine
 10
0.0
 20
1.25
 30
0.0
 11
0.0
 21
2.15
 31
0.0
  0
LINE
  5
2E8
330
2E0
100
AcDbEntity
  8
0
  6
Continuous
 62
     0
370
    18
100
AcDbLine
 10
-1.25
 20
0.0
 30
0.0
 11
-2.15
 21
0.0
 31
0.0
  0
LINE
  5
2E9
330
2E0
100
AcDbEntity
  8
0
  6
Continuous
 62
     0
370
    18
100
AcDbLine
 10
0.0
 20
-1.25
 30
0.0
 11
0.0
 21
-2.15
 31
0.0
  0
LINE
  5
2EA
330
2E0
100
AcDbEntity
  8
0
  6
Continuous
 62
     0
370
    18
100
AcDbLine
 10
1.25
 20
0.0
 30
0.0
 11
2.15
 21
0.0
 31
0.0
  0
ENDBLK
  5
2E2
330
2E0
100
AcDbEntity
  8
0
100
AcDbBlockEnd
  0
BLOCK
  5
2ED
330
2EC
100
AcDbEntity
  8
0
100
AcDbBlockBegin
  2
SW_CENTERMARKSYMBOL_16
 70
     0
 10
0.0
 20
0.0
 30
0.0
  3
SW_CENTERMARKSYMBOL_16
  1

  0
LINE
  5
2EF
330
2EC
100
AcDbEntity
  8
0
  6
Continuous
 62
     0
370
    18
100
AcDbLine
 10
0.0
 20
0.0
 30
0.0
 11
0.0
 21
1.25
 31
0.0
  0
LINE
  5
2F0
330
2EC
100
AcDbEntity
  8
0
  6
Continuous
 62
     0
370
    18
100
AcDbLine
 10
0.0
 20
0.0
 30
0.0
 11
-1.25
 21
0.0
 31
0.0
  0
LINE
  5
2F1
330
2EC
100
AcDbEntity
  8
0
  6
Continuous
 62
     0
370
    18
100
AcDbLine
 10
0.0
 20
0.0
 30
0.0
 11
0.0
 21
-1.25
 31
0.0
  0
LINE
  5
2F2
330
2EC
100
AcDbEntity
  8
0
  6
Continuous
 62
     0
370
    18
100
AcDbLine
 10
0.0
 20
0.0
 30
0.0
 11
1.25
 21
0.0
 31
0.0
  0
LINE
  5
2F3
330
2EC
100
AcDbEntity
  8
0
  6
Continuous
 62
     0
370
    18
100
AcDbLine
 10
0.0
 20
2.5
 30
0.0
 11
0.0
 21
3.75
 31
0.0
  0
LINE
  5
2F4
330
2EC
100
AcDbEntity
  8
0
  6
Continuous
 62
     0
370
    18
100
AcDbLine
 10
-2.5
 20
0.0
 30
0.0
 11
-3.75
 21
0.0
 31
0.0
  0
LINE
  5
2F5
330
2EC
100
AcDbEntity
  8
0
  6
Continuous
 62
     0
370
    18
100
AcDbLine
 10
0.0
 20
-2.5
 30
0.0
 11
0.0
 21
-3.75
 31
0.0
  0
LINE
  5
2F6
330
2EC
100
AcDbEntity
  8
0
  6
Continuous
 62
     0
370
    18
100
AcDbLine
 10
2.5
 20
0.0
 30
0.0
 11
3.75
 21
0.0
 31
0.0
  0
ENDBLK
  5
2EE
330
2EC
100
AcDbEntity
  8
0
100
AcDbBlockEnd
  0
BLOCK
  5
2F9
330
2F8
100
AcDbEntity
  8
0
100
AcDbBlockBegin
  2
SW_CENTERMARKSYMBOL_17
 70
     0
 10
0.0
 20
0.0
 30
0.0
  3
SW_CENTERMARKSYMBOL_17
  1

  0
LINE
  5
2FB
330
2F8
100
AcDbEntity
  8
0
  6
Continuous
 62
     0
370
    18
100
AcDbLine
 10
0.0
 20
0.0
 30
0.0
 11
0.0
 21
1.25
 31
0.0
  0
LINE
  5
2FC
330
2F8
100
AcDbEntity
  8
0
  6
Continuous
 62
     0
370
    18
100
AcDbLine
 10
0.0
 20
0.0
 30
0.0
 11
-1.25
 21
0.0
 31
0.0
  0
LINE
  5
2FD
330
2F8
100
AcDbEntity
  8
0
  6
Continuous
 62
     0
370
    18
100
AcDbLine
 10
0.0
 20
0.0
 30
0.0
 11
0.0
 21
-1.25
 31
0.0
  0
LINE
  5
2FE
330
2F8
100
AcDbEntity
  8
0
  6
Continuous
 62
     0
370
    18
100
AcDbLine
 10
0.0
 20
0.0
 30
0.0
 11
1.25
 21
0.0
 31
0.0
  0
LINE
  5
2FF
330
2F8
100
AcDbEntity
  8
0
  6
Continuous
 62
     0
370
    18
100
AcDbLine
 10
0.0
 20
1.25
 30
0.0
 11
0.0
 21
2.15
 31
0.0
  0
LINE
  5
300
330
2F8
100
AcDbEntity
  8
0
  6
Continuous
 62
     0
370
    18
100
AcDbLine
 10
-1.25
 20
0.0
 30
0.0
 11
-2.15
 21
0.0
 31
0.0
  0
LINE
  5
301
330
2F8
100
AcDbEntity
  8
0
  6
Continuous
 62
     0
370
    18
100
AcDbLine
 10
0.0
 20
-1.25
 30
0.0
 11
0.0
 21
-2.15
 31
0.0
  0
LINE
  5
302
330
2F8
100
AcDbEntity
  8
0
  6
Continuous
 62
     0
370
    18
100
AcDbLine
 10
1.25
 20
0.0
 30
0.0
 11
2.15
 21
0.0
 31
0.0
  0
ENDBLK
  5
2FA
330
2F8
100
AcDbEntity
  8
0
100
AcDbBlockEnd
  0
BLOCK
  5
305
330
304
100
AcDbEntity
  8
0
100
AcDbBlockBegin
  2
SW_CENTERMARKSYMBOL_18
 70
     0
 10
0.0
 20
0.0
 30
0.0
  3
SW_CENTERMARKSYMBOL_18
  1

  0
LINE
  5
307
330
304
100
AcDbEntity
  8
0
  6
Continuous
 62
     0
370
    18
100
AcDbLine
 10
0.0
 20
0.0
 30
0.0
 11
0.0
 21
1.25
 31
0.0
  0
LINE
  5
308
330
304
100
AcDbEntity
  8
0
  6
Continuous
 62
     0
370
    18
100
AcDbLine
 10
0.0
 20
0.0
 30
0.0
 11
-1.25
 21
0.0
 31
0.0
  0
LINE
  5
309
330
304
100
AcDbEntity
  8
0
  6
Continuous
 62
     0
370
    18
100
AcDbLine
 10
0.0
 20
0.0
 30
0.0
 11
0.0
 21
-1.25
 31
0.0
  0
LINE
  5
30A
330
304
100
AcDbEntity
  8
0
  6
Continuous
 62
     0
370
    18
100
AcDbLine
 10
0.0
 20
0.0
 30
0.0
 11
1.25
 21
0.0
 31
0.0
  0
LINE
  5
30B
330
304
100
AcDbEntity
  8
0
  6
Continuous
 62
     0
370
    18
100
AcDbLine
 10
0.0
 20
1.25
 30
0.0
 11
0.0
 21
2.15
 31
0.0
  0
LINE
  5
30C
330
304
100
AcDbEntity
  8
0
  6
Continuous
 62
     0
370
    18
100
AcDbLine
 10
-1.25
 20
0.0
 30
0.0
 11
-2.15
 21
0.0
 31
0.0
  0
LINE
  5
30D
330
304
100
AcDbEntity
  8
0
  6
Continuous
 62
     0
370
    18
100
AcDbLine
 10
0.0
 20
-1.25
 30
0.0
 11
0.0
 21
-2.15
 31
0.0
  0
LINE
  5
30E
330
304
100
AcDbEntity
  8
0
  6
Continuous
 62
     0
370
    18
100
AcDbLine
 10
1.25
 20
0.0
 30
0.0
 11
2.15
 21
0.0
 31
0.0
  0
ENDBLK
  5
306
330
304
100
AcDbEntity
  8
0
100
AcDbBlockEnd
  0
ENDSEC
  0
SECTION
  2
ENTITIES
  0
LINE
  5
74
330
1F
100
AcDbEntity
  8
0
  6
Continuous
 62
     7
370
    50
100
AcDbLine
 10
328.8
 20
14.25
 30
0.0
 11
410.0
 21
14.25
 31
0.0
  0
LINE
  5
75
330
1F
100
AcDbEntity
  8
0
  6
Continuous
 62
     7
370
    50
100
AcDbLine
 10
410.0
 20
48.25
 30
0.0
 11
328.8
 21
48.2022031543
 31
0.0
  0
LINE
  5
76
330
1F
100
AcDbEntity
  8
0
  6
Continuous
 62
     7
370
    50
100
AcDbLine
 10
328.8
 20
65.2697543335
 30
0.0
 11
410.0
 21
65.25
 31
0.0
  0
LINE
  5
77
330
1F
100
AcDbEntity
  8
0
  6
Continuous
 62
     7
370
    50
100
AcDbLine
 10
328.8
 20
27.0
 30
0.0
 11
410.0
 21
27.0
 31
0.0
  0
LINE
  5
78
330
1F
100
AcDbEntity
  8
0
  6
Continuous
 62
     7
370
    50
100
AcDbLine
 10
328.8
 20
65.2697543335
 30
0.0
 11
328.8
 21
10.0
 31
0.0
  0
LINE
  5
79
330
1F
100
AcDbEntity
  8
0
  6
Continuous
 62
     7
370
    50
100
AcDbLine
 10
373.0
 20
10.0
 30
0.0
 11
373.0
 21
14.25
 31
0.0
  0
LINE
  5
7A
330
1F
100
AcDbEntity
  8
0
  6
Continuous
 62
     7
370
    50
100
AcDbLine
 10
380.8
 20
58.875
 30
0.0
 11
380.8
 21
65.25
 31
0.0
  0
LINE
  5
7B
330
1F
100
AcDbEntity
  8
0
  6
Continuous
 62
     7
370
    50
100
AcDbLine
 10
397.0
 20
14.25
 30
0.0
 11
397.0
 21
27.0
 31
0.0
  0
LINE
  5
7C
330
1F
100
AcDbEntity
  8
0
  6
Continuous
 62
     7
370
    50
100
AcDbLine
 10
410.0
 20
58.875
 30
0.0
 11
328.8
 21
58.875
 31
0.0
  0
LINE
  5
7D
330
1F
100
AcDbEntity
  8
0
  6
Continuous
 62
     7
370
    50
100
AcDbLine
 10
410.0
 20
18.5
 30
0.0
 11
397.0
 21
18.5
 31
0.0
  0
LINE
  5
7E
330
1F
100
AcDbEntity
  8
0
  6
Continuous
 62
     7
370
    70
100
AcDbLine
 10
20.0
 20
10.0
 30
0.0
 11
20.0
 21
287.0
 31
0.0
  0
LINE
  5
7F
330
1F
100
AcDbEntity
  8
0
  6
Continuous
 62
     7
370
    70
100
AcDbLine
 10
20.0
 20
287.0
 30
0.0
 11
410.0
 21
287.0
 31
0.0
  0
LINE
  5
80
330
1F
100
AcDbEntity
  8
0
  6
Continuous
 62
     7
370
    70
100
AcDbLine
 10
410.0
 20
287.0
 30
0.0
 11
410.0
 21
10.0
 31
0.0
  0
LINE
  5
81
330
1F
100
AcDbEntity
  8
0
  6
Continuous
 62
     7
370
    70
100
AcDbLine
 10
410.0
 20
10.0
 30
0.0
 11
20.0
 21
10.0
 31
0.0
  0
LINE
  5
82
330
1F
100
AcDbEntity
  8
0
  6
Continuous
 62
     7
370
    70
100
AcDbLine
 10
15.0
 20
5.0
 30
0.0
 11
15.0
 21
292.0
 31
0.0
  0
LINE
  5
83
330
1F
100
AcDbEntity
  8
0
  6
Continuous
 62
     7
370
    70
100
AcDbLine
 10
15.0
 20
292.0
 30
0.0
 11
415.0
 21
292.0
 31
0.0
  0
LINE
  5
84
330
1F
100
AcDbEntity
  8
0
  6
Continuous
 62
     7
370
    70
100
AcDbLine
 10
415.0
 20
292.0
 30
0.0
 11
415.0
 21
5.0
 31
0.0
  0
LINE
  5
85
330
1F
100
AcDbEntity
  8
0
  6
Continuous
 62
     7
370
    70
100
AcDbLine
 10
415.0
 20
5.0
 30
0.0
 11
15.0
 21
5.0
 31
0.0
  0
LINE
  5
86
330
1F
100
AcDbEntity
  8
0
  6
Continuous
 62
     7
370
    35
100
AcDbLine
 10
22.8484945395
 20
148.5
 30
0.0
 11
25.0
 21
148.5
 31
0.0
  0
LINE
  5
87
330
1F
100
AcDbEntity
  8
0
  6
Continuous
 62
     7
370
    35
100
AcDbLine
 10
215.0
 20
292.0
 30
0.0
 11
215.0
 21
282.0
 31
0.0
  0
LINE
  5
88
330
1F
100
AcDbEntity
  8
0
  6
Continuous
 62
     7
370
    35
100
AcDbLine
 10
415.0
 20
148.5
 30
0.0
 11
405.0
 21
148.5
 31
0.0
  0
LINE
  5
89
330
1F
100
AcDbEntity
  8
0
  6
Continuous
 62
     7
370
    35
100
AcDbLine
 10
215.0
 20
5.0
 30
0.0
 11
215.0
 21
15.0
 31
0.0
  0
LINE
  5
8A
330
1F
100
AcDbEntity
  8
0
  6
Continuous
 62
     7
370
    35
100
AcDbLine
 10
20.0
 20
48.5
 30
0.0
 11
15.0
 21
48.5
 31
0.0
  0
LINE
  5
8B
330
1F
100
AcDbEntity
  8
0
  6
Continuous
 62
     7
370
    35
100
AcDbLine
 10
410.0
 20
48.5
 30
0.0
 11
415.0
 21
48.5
 31
0.0
  0
LINE
  5
8C
330
1F
100
AcDbEntity
  8
0
  6
Continuous
 62
     7
370
    35
100
AcDbLine
 10
20.0
 20
98.5
 30
0.0
 11
15.0
 21
98.5
 31
0.0
  0
LINE
  5
8D
330
1F
100
AcDbEntity
  8
0
  6
Continuous
 62
     7
370
    35
100
AcDbLine
 10
410.0
 20
98.5
 30
0.0
 11
415.0
 21
98.5
 31
0.0
  0
LINE
  5
8E
330
1F
100
AcDbEntity
  8
0
  6
Continuous
 62
     7
370
    35
100
AcDbLine
 10
20.0
 20
148.5
 30
0.0
 11
15.0
 21
148.5
 31
0.0
  0
LINE
  5
8F
330
1F
100
AcDbEntity
  8
0
  6
Continuous
 62
     7
370
    35
100
AcDbLine
 10
410.0
 20
148.5
 30
0.0
 11
415.0
 21
148.5
 31
0.0
  0
LINE
  5
90
330
1F
100
AcDbEntity
  8
0
  6
Continuous
 62
     7
370
    35
100
AcDbLine
 10
20.0
 20
198.5
 30
0.0
 11
15.0
 21
198.5
 31
0.0
  0
LINE
  5
91
330
1F
100
AcDbEntity
  8
0
  6
Continuous
 62
     7
370
    35
100
AcDbLine
 10
410.0
 20
198.5
 30
0.0
 11
415.0
 21
198.5
 31
0.0
  0
LINE
  5
92
330
1F
100
AcDbEntity
  8
0
  6
Continuous
 62
     7
370
    35
100
AcDbLine
 10
20.0
 20
248.5
 30
0.0
 11
15.0
 21
248.5
 31
0.0
  0
LINE
  5
93
330
1F
100
AcDbEntity
  8
0
  6
Continuous
 62
     7
370
    35
100
AcDbLine
 10
410.0
 20
248.5
 30
0.0
 11
415.0
 21
248.5
 31
0.0
  0
LINE
  5
94
330
1F
100
AcDbEntity
  8
0
  6
Continuous
 62
     7
370
    35
100
AcDbLine
 10
65.0
 20
287.0
 30
0.0
 11
65.0
 21
292.0
 31
0.0
  0
LINE
  5
95
330
1F
100
AcDbEntity
  8
0
  6
Continuous
 62
     7
370
    35
100
AcDbLine
 10
65.0
 20
10.0
 30
0.0
 11
65.0
 21
5.0
 31
0.0
  0
LINE
  5
96
330
1F
100
AcDbEntity
  8
0
  6
Continuous
 62
     7
370
    35
100
AcDbLine
 10
115.0
 20
287.0
 30
0.0
 11
115.0
 21
292.0
 31
0.0
  0
LINE
  5
97
330
1F
100
AcDbEntity
  8
0
  6
Continuous
 62
     7
370
    35
100
AcDbLine
 10
115.0
 20
10.0
 30
0.0
 11
115.0
 21
5.0
 31
0.0
  0
LINE
  5
98
330
1F
100
AcDbEntity
  8
0
  6
Continuous
 62
     7
370
    35
100
AcDbLine
 10
165.0
 20
287.0
 30
0.0
 11
165.0
 21
292.0
 31
0.0
  0
LINE
  5
99
330
1F
100
AcDbEntity
  8
0
  6
Continuous
 62
     7
370
    35
100
AcDbLine
 10
165.0
 20
10.0
 30
0.0
 11
165.0
 21
5.0
 31
0.0
  0
LINE
  5
9A
330
1F
100
AcDbEntity
  8
0
  6
Continuous
 62
     7
370
    35
100
AcDbLine
 10
215.0
 20
287.0
 30
0.0
 11
215.0
 21
292.0
 31
0.0
  0
LINE
  5
9B
330
1F
100
AcDbEntity
  8
0
  6
Continuous
 62
     7
370
    35
100
AcDbLine
 10
215.0
 20
10.0
 30
0.0
 11
215.0
 21
5.0
 31
0.0
  0
LINE
  5
9C
330
1F
100
AcDbEntity
  8
0
  6
Continuous
 62
     7
370
    35
100
AcDbLine
 10
265.0
 20
287.0
 30
0.0
 11
265.0
 21
292.0
 31
0.0
  0
LINE
  5
9D
330
1F
100
AcDbEntity
  8
0
  6
Continuous
 62
     7
370
    35
100
AcDbLine
 10
265.0
 20
10.0
 30
0.0
 11
265.0
 21
5.0
 31
0.0
  0
LINE
  5
9E
330
1F
100
AcDbEntity
  8
0
  6
Continuous
 62
     7
370
    35
100
AcDbLine
 10
315.0
 20
287.0
 30
0.0
 11
315.0
 21
292.0
 31
0.0
  0
LINE
  5
9F
330
1F
100
AcDbEntity
  8
0
  6
Continuous
 62
     7
370
    35
100
AcDbLine
 10
315.0
 20
10.0
 30
0.0
 11
315.0
 21
5.0
 31
0.0
  0
LINE
  5
A0
330
1F
100
AcDbEntity
  8
0
  6
Continuous
 62
     7
370
    35
100
AcDbLine
 10
365.0
 20
287.0
 30
0.0
 11
365.0
 21
292.0
 31
0.0
  0
LINE
  5
A1
330
1F
100
AcDbEntity
  8
0
  6
Continuous
 62
     7
370
    35
100
AcDbLine
 10
365.0
 20
10.0
 30
0.0
 11
365.0
 21
5.0
 31
0.0
  0
INSERT
  5
AE
330
1F
100
AcDbEntity
  8
0
  6
Continuous
 62
     7
370
     0
100
AcDbBlockReference
  2
SW_NOTE_0
 10
313.713590034
 20
184.8361625397
 30
0.0
  0
MTEXT
  5
AF
330
1F
100
AcDbEntity
  8
0
  6
Continuous
 62
     7
370
     0
100
AcDbMText
 10
17.3396881428
 20
31.2211742053
 30
0.0
 40
3.96875
 41
0.0
 71
     2
 72
     1
  1
A
  7
SLDTEXTSTYLE0
 73
     1
 44
1.0
  0
MTEXT
  5
B0
330
1F
100
AcDbEntity
  8
0
  6
Continuous
 62
     7
370
     0
100
AcDbMText
 10
412.3396881428
 20
31.2211742053
 30
0.0
 40
3.96875
 41
0.0
 71
     2
 72
     1
  1
A
  7
SLDTEXTSTYLE0
 73
     1
 44
1.0
  0
MTEXT
  5
B1
330
1F
100
AcDbEntity
  8
0
  6
Continuous
 62
     7
370
     0
100
AcDbMText
 10
17.4706018241
 20
75.4711742053
 30
0.0
 40
3.96875
 41
0.0
 71
     2
 72
     1
  1
B
  7
SLDTEXTSTYLE0
 73
     1
 44
1.0
  0
MTEXT
  5
B2
330
1F
100
AcDbEntity
  8
0
  6
Continuous
 62
     7
370
     0
100
AcDbMText
 10
412.4706018241
 20
75.4711742053
 30
0.0
 40
3.96875
 41
0.0
 71
     2
 72
     1
  1
B
  7
SLDTEXTSTYLE0
 73
     1
 44
1.0
  0
MTEXT
  5
B3
330
1F
100
AcDbEntity
  8
0
  6
Continuous
 62
     7
370
     0
100
AcDbMText
 10
17.458658902
 20
125.4711742053
 30
0.0
 40
3.96875
 41
0.0
 71
     2
 72
     1
  1
C
  7
SLDTEXTSTYLE0
 73
     1
 44
1.0
  0
MTEXT
  5
B4
330
1F
100
AcDbEntity
  8
0
  6
Continuous
 62
     7
370
     0
100
AcDbMText
 10
412.458658902
 20
125.4711742053
 30
0.0
 40
3.96875
 41
0.0
 71
     2
 72
     1
  1
C
  7
SLDTEXTSTYLE0
 73
     1
 44
1.0
  0
MTEXT
  5
B5
330
1F
100
AcDbEntity
  8
0
  6
Continuous
 62
     7
370
     0
100
AcDbMText
 10
17.4526872821
 20
175.4711742053
 30
0.0
 40
3.96875
 41
0.0
 71
     2
 72
     1
  1
D
  7
SLDTEXTSTYLE0
 73
     1
 44
1.0
  0
MTEXT
  5
B6
330
1F
100
AcDbEntity
  8
0
  6
Continuous
 62
     7
370
     0
100
AcDbMText
 10
412.4526872821
 20
175.4711742053
 30
0.0
 40
3.96875
 41
0.0
 71
     2
 72
     1
  1
D
  7
SLDTEXTSTYLE0
 73
     1
 44
1.0
  0
MTEXT
  5
B7
330
1F
100
AcDbEntity
  8
0
  6
Continuous
 62
     7
370
     0
100
AcDbMText
 10
17.5078089051
 20
225.4711742053
 30
0.0
 40
3.96875
 41
0.0
 71
     2
 72
     1
  1
E
  7
SLDTEXTSTYLE0
 73
     1
 44
1.0
  0
MTEXT
  5
B8
330
1F
100
AcDbEntity
  8
0
  6
Continuous
 62
     7
370
     0
100
AcDbMText
 10
412.5078089051
 20
225.4711742053
 30
0.0
 40
3.96875
 41
0.0
 71
     2
 72
     1
  1
E
  7
SLDTEXTSTYLE0
 73
     1
 44
1.0
  0
MTEXT
  5
B9
330
1F
100
AcDbEntity
  8
0
  6
Continuous
 62
     7
370
     0
100
AcDbMText
 10
17.4577402091
 20
269.7211742053
 30
0.0
 40
3.96875
 41
0.0
 71
     2
 72
     1
  1
F
  7
SLDTEXTSTYLE0
 73
     1
 44
1.0
  0
MTEXT
  5
BA
330
1F
100
AcDbEntity
  8
0
  6
Continuous
 62
     7
370
     0
100
AcDbMText
 10
412.4577402091
 20
269.7211742053
 30
0.0
 40
3.96875
 41
0.0
 71
     2
 72
     1
  1
F
  7
SLDTEXTSTYLE0
 73
     1
 44
1.0
  0
MTEXT
  5
BB
330
1F
100
AcDbEntity
  8
0
  6
Continuous
 62
     7
370
     0
100
AcDbMText
 10
42.4600369465
 20
9.4711742053
 30
0.0
 40
3.96875
 41
0.0
 71
     2
 72
     1
  1
8
  7
SLDTEXTSTYLE0
 73
     1
 44
1.0
  0
MTEXT
  5
BC
330
1F
100
AcDbEntity
  8
0
  6
Continuous
 62
     7
370
     0
100
AcDbMText
 10
42.4600369465
 20
291.4711742053
 30
0.0
 40
3.96875
 41
0.0
 71
     2
 72
     1
  1
8
  7
SLDTEXTSTYLE0
 73
     1
 44
1.0
  0
MTEXT
  5
BD
330
1F
100
AcDbEntity
  8
0
  6
Continuous
 62
     7
370
     0
100
AcDbMText
 10
89.9600369465
 20
9.4711742053
 30
0.0
 40
3.96875
 41
0.0
 71
     2
 72
     1
  1
7
  7
SLDTEXTSTYLE0
 73
     1
 44
1.0
  0
MTEXT
  5
BE
330
1F
100
AcDbEntity
  8
0
  6
Continuous
 62
     7
370
     0
100
AcDbMText
 10
89.9600369465
 20
291.4711742053
 30
0.0
 40
3.96875
 41
0.0
 71
     2
 72
     1
  1
7
  7
SLDTEXTSTYLE0
 73
     1
 44
1.0
  0
MTEXT
  5
BF
330
1F
100
AcDbEntity
  8
0
  6
Continuous
 62
     7
370
     0
100
AcDbMText
 10
139.9600369465
 20
9.4711742053
 30
0.0
 40
3.96875
 41
0.0
 71
     2
 72
     1
  1
6
  7
SLDTEXTSTYLE0
 73
     1
 44
1.0
  0
MTEXT
  5
C0
330
1F
100
AcDbEntity
  8
0
  6
Continuous
 62
     7
370
     0
100
AcDbMText
 10
139.9600369465
 20
291.4711742053
 30
0.0
 40
3.96875
 41
0.0
 71
     2
 72
     1
  1
6
  7
SLDTEXTSTYLE0
 73
     1
 44
1.0
  0
MTEXT
  5
C1
330
1F
100
AcDbEntity
  8
0
  6
Continuous
 62
     7
370
     0
100
AcDbMText
 10
189.9600369465
 20
9.4711742053
 30
0.0
 40
3.96875
 41
0.0
 71
     2
 72
     1
  1
5
  7
SLDTEXTSTYLE0
 73
     1
 44
1.0
  0
MTEXT
  5
C2
330
1F
100
AcDbEntity
  8
0
  6
Continuous
 62
     7
370
     0
100
AcDbMText
 10
189.9600369465
 20
291.4711742053
 30
0.0
 40
3.96875
 41
0.0
 71
     2
 72
     1
  1
5
  7
SLDTEXTSTYLE0
 73
     1
 44
1.0
  0
MTEXT
  5
C3
330
1F
100
AcDbEntity
  8
0
  6
Continuous
 62
     7
370
     0
100
AcDbMText
 10
239.9600369465
 20
9.4711742053
 30
0.0
 40
3.96875
 41
0.0
 71
     2
 72
     1
  1
4
  7
SLDTEXTSTYLE0
 73
     1
 44
1.0
  0
MTEXT
  5
C4
330
1F
100
AcDbEntity
  8
0
  6
Continuous
 62
     7
370
     0
100
AcDbMText
 10
239.9600369465
 20
291.4711742053
 30
0.0
 40
3.96875
 41
0.0
 71
     2
 72
     1
  1
4
  7
SLDTEXTSTYLE0
 73
     1
 44
1.0
  0
MTEXT
  5
C5
330
1F
100
AcDbEntity
  8
0
  6
Continuous
 62
     7
370
     0
100
AcDbMText
 10
289.9600369465
 20
9.4711742053
 30
0.0
 40
3.96875
 41
0.0
 71
     2
 72
     1
  1
3
  7
SLDTEXTSTYLE0
 73
     1
 44
1.0
  0
MTEXT
  5
C6
330
1F
100
AcDbEntity
  8
0
  6
Continuous
 62
     7
370
     0
100
AcDbMText
 10
289.9600369465
 20
291.4711742053
 30
0.0
 40
3.96875
 41
0.0
 71
     2
 72
     1
  1
3
  7
SLDTEXTSTYLE0
 73
     1
 44
1.0
  0
MTEXT
  5
C7
330
1F
100
AcDbEntity
  8
0
  6
Continuous
 62
     7
370
     0
100
AcDbMText
 10
339.9600369465
 20
9.4711742053
 30
0.0
 40
3.96875
 41
0.0
 71
     2
 72
     1
  1
2
  7
SLDTEXTSTYLE0
 73
     1
 44
1.0
  0
MTEXT
  5
C8
330
1F
100
AcDbEntity
  8
0
  6
Continuous
 62
     7
370
     0
100
AcDbMText
 10
339.9600369465
 20
291.4711742053
 30
0.0
 40
3.96875
 41
0.0
 71
     2
 72
     1
  1
2
  7
SLDTEXTSTYLE0
 73
     1
 44
1.0
  0
MTEXT
  5
C9
330
1F
100
AcDbEntity
  8
0
  6
Continuous
 62
     7
370
     0
100
AcDbMText
 10
387.4600369465
 20
9.4711742053
 30
0.0
 40
3.96875
 41
0.0
 71
     2
 72
     1
  1
1
  7
SLDTEXTSTYLE0
 73
     1
 44
1.0
  0
MTEXT
  5
CA
330
1F
100
AcDbEntity
  8
0
  6
Continuous
 62
     7
370
     0
100
AcDbMText
 10
387.4600369465
 20
291.4711742053
 30
0.0
 40
3.96875
 41
0.0
 71
     2
 72
     1
  1
1
  7
SLDTEXTSTYLE0
 73
     1
 44
1.0
  0
MTEXT
  5
CB
330
1F
100
AcDbEntity
  8
0
  6
Continuous
 62
     7
370
     0
100
AcDbMText
 10
342.6146405229
 20
62.5329935751
 30
0.0
 40
1.5
 41
0.0
 71
     1
 72
     1
  1
DO NOT SCALE DRAWING
  7
SLDTEXTSTYLE0
 73
     1
 44
1.0
  0
MTEXT
  5
CC
330
1F
100
AcDbEntity
  8
0
  6
Continuous
 62
     7
370
     0
100
AcDbMText
 10
330.090160639
 20
46.5761792212
 30
0.0
 40
1.5
 41
0.0
 71
     1
 72
     1
  1
TITLE:
  7
SLDTEXTSTYLE0
 73
     1
 44
1.0
  0
MTEXT
  5
CD
330
1F
100
AcDbEntity
  8
0
  6
Continuous
 62
     7
370
     0
100
AcDbMText
 10
329.9530022162
 20
25.9860562892
 30
0.0
 40
1.5
 41
0.0
 71
     1
 72
     1
  1
DWG NO.
  7
SLDTEXTSTYLE0
 73
     1
 44
1.0
  0
MTEXT
  5
CE
330
1F
100
AcDbEntity
  8
0
  6
Continuous
 62
     7
370
     0
100
AcDbMText
 10
330.0739661175
 20
12.9000872745
 30
0.0
 40
1.5
 41
0.0
 71
     1
 72
     1
  1
SCALE:1:2
  7
SLDTEXTSTYLE0
 73
     1
 44
1.0
  0
MTEXT
  5
D0
330
1F
100
AcDbEntity
  8
0
  6
Continuous
 62
     7
370
     0
100
AcDbMText
 10
374.4782944278
 20
12.9000872745
 30
0.0
 40
1.5
 41
0.0
 71
     1
 72
     1
  1
SHEET 1 OF 1
  7
SLDTEXTSTYLE1
 73
     1
 44
1.0
  0
MTEXT
  5
D1
330
1F
100
AcDbEntity
  8
0
  6
Continuous
 62
     7
370
     0
100
AcDbMText
 10
400.8711564346
 20
24.406388569
 30
0.0
 40
2.9104166667
 41
0.0
 71
     1
 72
     1
  1
A3
  7
SLDTEXTSTYLE0
 73
     1
 44
1.0
  0
MTEXT
  5
D2
330
1F
100
AcDbEntity
  8
0
  6
Continuous
 62
     7
370
     0
100
AcDbMText
 10
382.3949709114
 20
62.3643270442
 30
0.0
 40
1.4986
 41
0.0
 71
     1
 72
     1
  1
WEIGHT:
  7
SLDTEXTSTYLE0
 73
     1
 44
1.0
  0
MTEXT
  5
D4
330
1F
100
AcDbEntity
  8
0
  6
Continuous
 62
     7
370
     0
100
AcDbMText
 10
351.3238896587
 20
57.9876910335
 30
0.0
 40
2.6458333333
 41
0.0
 71
     2
 72
     1
  1
TOLERANCES:+-0.1MM
  7
SLDTEXTSTYLE2
 73
     1
 44
1.0
  0
MTEXT
  5
D5
330
1F
100
AcDbEntity
  8
0
  6
Continuous
 62
     7
370
     0
100
AcDbMText
 10
364.5825702741
 20
23.6069112001
 30
0.0
 40
6.35
 41
0.0
 71
     2
 72
     1
  1
LASER_#1
  7
SLDTEXTSTYLE0
 73
     1
 44
1.0
  0
MTEXT
  5
D6
330
1F
100
AcDbEntity
  8
0
  6
Continuous
 62
     7
370
     0
100
AcDbMText
 10
370.0115747094
 20
44.5716913567
 30
0.0
 40
6.35
 41
0.0
 71
     2
 72
     1
  1
TOP PLATE
  7
SLDTEXTSTYLE0
 73
     1
 44
1.0
  0
ARC
  5
D7
330
1F
100
AcDbEntity
  8
0
  6
Continuous
 62
     7
370
    25
100
AcDbCircle
 10
229.4219881361
 20
212.2204867465
 30
0.0
 40
2.5
100
AcDbArc
 50
0.0
 51
90.0
  0
LINE
  5
D8
330
1F
100
AcDbEntity
  8
0
  6
Continuous
 62
     7
370
    25
100
AcDbLine
 10
231.9219881361
 20
89.7204867465
 30
0.0
 11
231.9219881361
 21
212.2204867465
 31
0.0
  0
ARC
  5
D9
330
1F
100
AcDbEntity
  8
0
  6
Continuous
 62
     7
370
    25
100
AcDbCircle
 10
229.4219881361
 20
89.7204867465
 30
0.0
 40
2.500000000000014
100
AcDbArc
 50
270.0
 51
0.0
  0
LINE
  5
DA
330
1F
100
AcDbEntity
  8
0
  6
Continuous
 62
     7
370
    25
100
AcDbLine
 10
106.9219881361
 20
87.2204867465
 30
0.0
 11
229.4219881361
 21
87.2204867465
 31
0.0
  0
ARC
  5
DB
330
1F
100
AcDbEntity
  8
0
  6
Continuous
 62
     7
370
    25
100
AcDbCircle
 10
106.9219881361
 20
89.7204867465
 30
0.0
 40
2.5
100
AcDbArc
 50
180.0
 51
270.0
  0
ARC
  5
DC
330
1F
100
AcDbEntity
  8
0
  6
Continuous
 62
     7
370
    25
100
AcDbCircle
 10
106.9219881361
 20
212.2204867465
 30
0.0
 40
2.5
100
AcDbArc
 50
90.0
 51
180.0
  0
CIRCLE
  5
DD
330
1F
100
AcDbEntity
  8
0
  6
Continuous
 62
     7
370
    25
100
AcDbCircle
 10
227.2969881361
 20
105.5954867465
 30
0.0
 40
0.8999999999999773
  0
CIRCLE
  5
DE
330
1F
100
AcDbEntity
  8
0
  6
Continuous
 62
     7
370
    25
100
AcDbCircle
 10
213.5469881361
 20
105.5954867465
 30
0.0
 40
0.8999999999999773
  0
CIRCLE
  5
DF
330
1F
100
AcDbEntity
  8
0
  6
Continuous
 62
     7
370
    25
100
AcDbCircle
 10
213.5469881361
 20
91.9079867465
 30
0.0
 40
0.8999999999999773
  0
CIRCLE
  5
E0
330
1F
100
AcDbEntity
  8
0
  6
Continuous
 62
     7
370
    25
100
AcDbCircle
 10
122.7969881361
 20
91.8454867465
 30
0.0
 40
0.8999999999999915
  0
CIRCLE
  5
E1
330
1F
100
AcDbEntity
  8
0
  6
Continuous
 62
     7
370
    25
100
AcDbCircle
 10
122.7969881361
 20
105.5954867465
 30
0.0
 40
0.8999999999999915
  0
CIRCLE
  5
E2
330
1F
100
AcDbEntity
  8
0
  6
Continuous
 62
     7
370
    25
100
AcDbCircle
 10
109.1094881361
 20
105.5954867465
 30
0.0
 40
0.9000000000000057
  0
CIRCLE
  5
E3
330
1F
100
AcDbEntity
  8
0
  6
Continuous
 62
     7
370
    25
100
AcDbCircle
 10
227.2344881361
 20
196.3454867465
 30
0.0
 40
0.8999999999999773
  0
CIRCLE
  5
E4
330
1F
100
AcDbEntity
  8
0
  6
Continuous
 62
     7
370
    25
100
AcDbCircle
 10
213.5469881361
 20
196.3454867465
 30
0.0
 40
0.8999999999999773
  0
CIRCLE
  5
E5
330
1F
100
AcDbEntity
  8
0
  6
Continuous
 62
     7
370
    25
100
AcDbCircle
 10
213.5469881361
 20
210.0954867465
 30
0.0
 40
0.8999999999999773
  0
CIRCLE
  5
E6
330
1F
100
AcDbEntity
  8
0
  6
Continuous
 62
     7
370
    25
100
AcDbCircle
 10
122.7969881361
 20
210.0329867465
 30
0.0
 40
0.9000000000000057
  0
CIRCLE
  5
E7
330
1F
100
AcDbEntity
  8
0
  6
Continuous
 62
     7
370
    25
100
AcDbCircle
 10
122.7969881361
 20
196.3454867465
 30
0.0
 40
0.9000000000000057
  0
CIRCLE
  5
E8
330
1F
100
AcDbEntity
  8
0
  6
Continuous
 62
     7
370
    25
100
AcDbCircle
 10
109.0469881361
 20
196.3454867465
 30
0.0
 40
0.8999999999999773
  0
CIRCLE
  5
E9
330
1F
100
AcDbEntity
  8
0
  6
Continuous
 62
     7
370
    25
100
AcDbCircle
 10
175.6719881361
 20
150.9704867465
 30
0.0
 40
0.9000000000000057
  0
CIRCLE
  5
EA
330
1F
100
AcDbEntity
  8
0
  6
Continuous
 62
     7
370
    25
100
AcDbCircle
 10
168.1719881361
 20
143.4704867465
 30
0.0
 40
0.9000000000000057
  0
CIRCLE
  5
EB
330
1F
100
AcDbEntity
  8
0
  6
Continuous
 62
     7
370
    25
100
AcDbCircle
 10
168.1719881361
 20
158.4704867465
 30
0.0
 40
0.9000000000000057
  0
CIRCLE
  5
EC
330
1F
100
AcDbEntity
  8
0
  6
Continuous
 62
     7
370
    25
100
AcDbCircle
 10
160.6719881361
 20
150.9704867465
 30
0.0
 40
0.9000000000000057
  0
CIRCLE
  5
ED
330
1F
100
AcDbEntity
  8
0
  6
Continuous
 62
     7
370
    25
100
AcDbCircle
 10
168.1719881361
 20
150.9704867465
 30
0.0
 40
2.5
  0
LINE
  5
EE
330
1F
100
AcDbEntity
  8
0
  6
Continuous
 62
     7
370
    25
100
AcDbLine
 10
229.1719881361
 20
96.4704867465
 30
0.0
 11
223.1719881361
 21
96.4704867465
 31
0.0
  0
ARC
  5
EF
330
1F
100
AcDbEntity
  8
0
  6
Continuous
 62
     7
370
    25
100
AcDbCircle
 10
223.1719881361
 20
95.9704867465
 30
0.0
 40
0.5
100
AcDbArc
 50
90.0
 51
180.0
  0
LINE
  5
F0
330
1F
100
AcDbEntity
  8
0
  6
Continuous
 62
     7
370
    25
100
AcDbLine
 10
222.6719881361
 20
95.9704867465
 30
0.0
 11
222.6719881361
 21
89.9704867465
 31
0.0
  0
ARC
  5
F1
330
1F
100
AcDbEntity
  8
0
  6
Continuous
 62
     7
370
    25
100
AcDbCircle
 10
223.1719881361
 20
89.9704867465
 30
0.0
 40
0.5
100
AcDbArc
 50
180.0
 51
270.0
  0
LINE
  5
F2
330
1F
100
AcDbEntity
  8
0
  6
Continuous
 62
     7
370
    25
100
AcDbLine
 10
223.1719881361
 20
89.4704867465
 30
0.0
 11
229.1719881361
 21
89.4704867465
 31
0.0
  0
ARC
  5
F3
330
1F
100
AcDbEntity
  8
0
  6
Continuous
 62
     7
370
    25
100
AcDbCircle
 10
229.1719881361
 20
89.9704867465
 30
0.0
 40
0.5
100
AcDbArc
 50
270.0
 51
0.0
  0
LINE
  5
F4
330
1F
100
AcDbEntity
  8
0
  6
Continuous
 62
     7
370
    25
100
AcDbLine
 10
229.6719881361
 20
89.9704867465
 30
0.0
 11
229.6719881361
 21
95.9704867465
 31
0.0
  0
ARC
  5
F5
330
1F
100
AcDbEntity
  8
0
  6
Continuous
 62
     7
370
    25
100
AcDbCircle
 10
229.1719881361
 20
95.9704867465
 30
0.0
 40
0.5
100
AcDbArc
 50
0.0
 51
90.0
  0
LINE
  5
F6
330
1F
100
AcDbEntity
  8
0
  6
Continuous
 62
     7
370
    25
100
AcDbLine
 10
113.1719881361
 20
96.4704867465
 30
0.0
 11
107.1719881361
 21
96.4704867465
 31
0.0
  0
ARC
  5
F7
330
1F
100
AcDbEntity
  8
0
  6
Continuous
 62
     7
370
    25
100
AcDbCircle
 10
107.1719881361
 20
95.9704867465
 30
0.0
 40
0.5
100
AcDbArc
 50
90.0
 51
180.0
  0
LINE
  5
F8
330
1F
100
AcDbEntity
  8
0
  6
Continuous
 62
     7
370
    25
100
AcDbLine
 10
106.6719881361
 20
95.9704867465
 30
0.0
 11
106.6719881361
 21
89.9704867465
 31
0.0
  0
ARC
  5
F9
330
1F
100
AcDbEntity
  8
0
  6
Continuous
 62
     7
370
    25
100
AcDbCircle
 10
107.1719881361
 20
89.9704867465
 30
0.0
 40
0.5
100
AcDbArc
 50
180.0
 51
270.0
  0
LINE
  5
FA
330
1F
100
AcDbEntity
  8
0
  6
Continuous
 62
     7
370
    25
100
AcDbLine
 10
107.1719881361
 20
89.4704867465
 30
0.0
 11
113.1719881361
 21
89.4704867465
 31
0.0
  0
ARC
  5
FB
330
1F
100
AcDbEntity
  8
0
  6
Continuous
 62
     7
370
    25
100
AcDbCircle
 10
113.1719881361
 20
89.9704867465
 30
0.0
 40
0.5
100
AcDbArc
 50
270.0
 51
0.0
  0
LINE
  5
FC
330
1F
100
AcDbEntity
  8
0
  6
Continuous
 62
     7
370
    25
100
AcDbLine
 10
113.6719881361
 20
89.9704867465
 30
0.0
 11
113.6719881361
 21
95.9704867465
 31
0.0
  0
ARC
  5
FD
330
1F
100
AcDbEntity
  8
0
  6
Continuous
 62
     7
370
    25
100
AcDbCircle
 10
113.1719881361
 20
95.9704867465
 30
0.0
 40
0.5
100
AcDbArc
 50
0.0
 51
90.0
  0
LINE
  5
FE
330
1F
100
AcDbEntity
  8
0
  6
Continuous
 62
     7
370
    25
100
AcDbLine
 10
229.4219881361
 20
214.7204867465
 30
0.0
 11
106.9219881361
 21
214.7204867465
 31
0.0
  0
LINE
  5
FF
330
1F
100
AcDbEntity
  8
0
  6
Continuous
 62
     7
370
    25
100
AcDbLine
 10
104.4219881361
 20
212.2204867465
 30
0.0
 11
104.4219881361
 21
89.7204867465
 31
0.0
  0
CIRCLE
  5
100
330
1F
100
AcDbEntity
  8
0
  6
Continuous
 62
     7
370
    25
100
AcDbCircle
 10
168.1719881361
 20
90.7204867465
 30
0.0
 40
0.8999999999999773
  0
CIRCLE
  5
101
330
1F
100
AcDbEntity
  8
0
  6
Continuous
 62
     7
370
    25
100
AcDbCircle
 10
168.1719881361
 20
95.7204867465
 30
0.0
 40
0.8999999999999773
  0
DIMENSION
  5
102
330
1F
100
AcDbEntity
  8
0
  6
Continuous
 62
     7
370
    18
100
AcDbDimension
  2
_D
 10
104.4219881361
 20
89.7204867465
 30
0.0
 11
104.4219881361
 21
72.9305743111
 31
0.0
 70
   102
  1
<>
 71
     5
 42
-1.0
  3
SLDDIMSTYLE0
100
AcDbOrdinateDimension
 13
104.4219881361
 23
89.7204867465
 33
0.0
 14
104.4219881361
 24
76.1632131284
 34
0.0
  0
DIMENSION
  5
111
330
1F
100
AcDbEntity
  8
0
  6
Continuous
 62
     7
370
    18
100
AcDbDimension
  2
_D_1
 10
104.4219881361
 20
89.7204867465
 30
0.0
 11
110.0338006271
 21
72.9305743111
 31
0.0
 70
   102
  1
<>
 71
     5
 42
-1.0
  3
SLDDIMSTYLE1
100
AcDbOrdinateDimension
 13
106.6719881361
 23
89.9704867465
 33
0.0
 14
110.0338006271
 24
76.1632131284
 34
0.0
  0
DIMENSION
  5
11C
330
1F
100
AcDbEntity
  8
0
  6
Continuous
 62
     7
370
    18
100
AcDbDimension
  2
_D_2
 10
104.4219881361
 20
89.7204867465
 30
0.0
 11
115.6456131181
 21
71.6375185979
 31
0.0
 70
   102
  1
<>
 71
     5
 42
-1.0
  3
SLDDIMSTYLE1
100
AcDbOrdinateDimension
 13
113.6719881361
 23
89.9704867465
 33
0.0
 14
115.6456131181
 24
76.1632131284
 34
0.0
  0
DIMENSION
  5
126
330
1F
100
AcDbEntity
  8
0
  6
Continuous
 62
     7
370
    18
100
AcDbDimension
  2
_D_3
 10
104.4219881361
 20
89.7204867465
 30
0.0
 11
222.6719881361
 21
70.3444628847
 31
0.0
 70
   102
  1
<>
 71
     5
 42
-1.0
  3
SLDDIMSTYLE1
100
AcDbOrdinateDimension
 13
222.6719881361
 23
89.9704867465
 33
0.0
 14
222.6719881361
 24
76.1632131284
 34
0.0
  0
DIMENSION
  5
12E
330
1F
100
AcDbEntity
  8
0
  6
Continuous
 62
     7
370
    18
100
AcDbDimension
  2
_D_4
 10
104.4219881361
 20
89.7204867465
 30
0.0
 11
229.6719881361
 21
70.3444628847
 31
0.0
 70
   102
  1
<>
 71
     5
 42
-1.0
  3
SLDDIMSTYLE1
100
AcDbOrdinateDimension
 13
229.6719881361
 23
89.9704867465
 33
0.0
 14
229.6719881361
 24
76.1632131284
 34
0.0
  0
DIMENSION
  5
136
330
1F
100
AcDbEntity
  8
0
  6
Continuous
 62
     7
370
    18
100
AcDbDimension
  2
_D_5
 10
104.4219881361
 20
212.2204867465
 30
0.0
 11
104.4219881361
 21
228.5431753635
 31
0.0
 70
   102
  1
<>
 71
     5
 42
-1.0
  3
SLDDIMSTYLE0
100
AcDbOrdinateDimension
 13
104.4219881361
 23
212.2204867465
 33
0.0
 14
104.4219881361
 24
225.3105365462
 34
0.0
  0
DIMENSION
  5
13F
330
1F
100
AcDbEntity
  8
0
  6
Continuous
 62
     7
370
    18
100
AcDbDimension
  2
_D_6
 10
104.4219881361
 20
212.2204867465
 30
0.0
 11
110.6326293175
 21
228.5431753635
 31
0.0
 70
   102
  1
<>
 71
     5
 42
-1.0
  3
SLDDIMSTYLE1
100
AcDbOrdinateDimension
 13
109.1094881361
 23
107.7454867465
 33
0.0
 14
110.6326293175
 24
225.3105365462
 34
0.0
  0
DIMENSION
  5
149
330
1F
100
AcDbEntity
  8
0
  6
Continuous
 62
     7
370
    18
100
AcDbDimension
  2
_D_7
 10
104.4219881361
 20
212.2204867465
 30
0.0
 11
122.7969881361
 21
229.8362310767
 31
0.0
 70
   102
  1
<>
 71
     5
 42
-1.0
  3
SLDDIMSTYLE1
100
AcDbOrdinateDimension
 13
122.7969881361
 23
93.9954867465
 33
0.0
 14
122.7969881361
 24
225.3105365462
 34
0.0
  0
DIMENSION
  5
151
330
1F
100
AcDbEntity
  8
0
  6
Continuous
 62
     7
370
    18
100
AcDbDimension
  2
_D_8
 10
104.4219881361
 20
212.2204867465
 30
0.0
 11
160.6719881361
 21
231.1292867898
 31
0.0
 70
   102
  1
<>
 71
     5
 42
-1.0
  3
SLDDIMSTYLE1
100
AcDbOrdinateDimension
 13
160.6719881361
 23
153.1204867465
 33
0.0
 14
160.6719881361
 24
225.3105365462
 34
0.0
  0
DIMENSION
  5
159
330
1F
100
AcDbEntity
  8
0
  6
Continuous
 62
     7
370
    18
100
AcDbDimension
  2
_D_9
 10
104.4219881361
 20
212.2204867465
 30
0.0
 11
168.1719881361
 21
231.1292867898
 31
0.0
 70
   102
  1
<>
 71
     5
 42
-1.0
  3
SLDDIMSTYLE1
100
AcDbOrdinateDimension
 13
168.1719881361
 23
92.8704867465
 33
0.0
 14
168.1719881361
 24
225.3105365462
 34
0.0
  0
DIMENSION
  5
161
330
1F
100
AcDbEntity
  8
0
  6
Continuous
 62
     7
370
    18
100
AcDbDimension
  2
_D_10
 10
104.4219881361
 20
212.2204867465
 30
0.0
 11
175.6719881361
 21
231.1292867898
 31
0.0
 70
   102
  1
<>
 71
     5
 42
-1.0
  3
SLDDIMSTYLE1
100
AcDbOrdinateDimension
 13
175.6719881361
 23
153.1204867465
 33
0.0
 14
175.6719881361
 24
225.3105365462
 34
0.0
  0
DIMENSION
  5
169
330
1F
100
AcDbEntity
  8
0
  6
Continuous
 62
     7
370
    18
100
AcDbDimension
  2
_D_11
 10
104.4219881361
 20
212.2204867465
 30
0.0
 11
213.5469881361
 21
231.1292867898
 31
0.0
 70
   102
  1
<>
 71
     5
 42
-1.0
  3
SLDDIMSTYLE1
100
AcDbOrdinateDimension
 13
213.5469881361
 23
94.0579867465
 33
0.0
 14
213.5469881361
 24
225.3105365462
 34
0.0
  0
DIMENSION
  5
171
330
1F
100
AcDbEntity
  8
0
  6
Continuous
 62
     7
370
    18
100
AcDbDimension
  2
_D_12
 10
104.4219881361
 20
212.2204867465
 30
0.0
 11
226.3101756452
 21
231.1292867898
 31
0.0
 70
   102
  1
<>
 71
     5
 42
-1.0
  3
SLDDIMSTYLE1
100
AcDbOrdinateDimension
 13
227.2969881361
 23
107.7454867465
 33
0.0
 14
226.3101756452
 24
225.3105365462
 34
0.0
  0
DIMENSION
  5
17B
330
1F
100
AcDbEntity
  8
0
  6
Continuous
 62
     7
370
    18
100
AcDbDimension
  2
_D_13
 10
104.4219881361
 20
212.2204867465
 30
0.0
 11
231.9219881361
 21
232.422342503
 31
0.0
 70
   102
  1
<>
 71
     5
 42
-1.0
  3
SLDDIMSTYLE2
100
AcDbOrdinateDimension
 13
231.9219881361
 23
212.2204867465
 33
0.0
 14
231.9219881361
 24
225.3105365462
 34
0.0
  0
DIMENSION
  5
184
330
1F
100
AcDbEntity
  8
0
  6
Continuous
 62
     7
370
    18
100
AcDbDimension
  2
_D_14
 10
106.9219881361
 20
87.2204867465
 30
0.0
 11
78.9929521284
 21
87.2204867465
 31
0.0
 70
    38
  1
<>
 71
     5
 42
-1.0
  3
SLDDIMSTYLE0
100
AcDbOrdinateDimension
 13
106.9219881361
 23
87.2204867465
 33
0.0
 14
82.2255909457
 24
87.2204867465
 34
0.0
  0
DIMENSION
  5
18D
330
1F
100
AcDbEntity
  8
0
  6
Continuous
 62
     7
370
    18
100
AcDbDimension
  2
_D_15
 10
106.9219881361
 20
87.2204867465
 30
0.0
 11
78.9929521284
 21
88.776392992
 31
0.0
 70
    38
  1
<>
 71
     5
 42
-1.0
  3
SLDDIMSTYLE1
100
AcDbOrdinateDimension
 13
223.1719881361
 23
89.4704867465
 33
0.0
 14
82.2255909457
 24
88.776392992
 34
0.0
  0
DIMENSION
  5
197
330
1F
100
AcDbEntity
  8
0
  6
Continuous
 62
     7
370
    18
100
AcDbDimension
  2
_D_16
 10
106.9219881361
 20
87.2204867465
 30
0.0
 11
77.6998964152
 21
94.388205483
 31
0.0
 70
    38
  1
<>
 71
     5
 42
-1.0
  3
SLDDIMSTYLE1
100
AcDbOrdinateDimension
 13
223.1719881361
 23
96.4704867465
 33
0.0
 14
82.2255909457
 24
94.388205483
 34
0.0
  0
DIMENSION
  5
1A1
330
1F
100
AcDbEntity
  8
0
  6
Continuous
 62
     7
370
    18
100
AcDbDimension
  2
_D_17
 10
106.9219881361
 20
87.2204867465
 30
0.0
 11
75.1137849889
 21
214.7204867465
 31
0.0
 70
    38
  1
<>
 71
     5
 42
-1.0
  3
SLDDIMSTYLE2
100
AcDbOrdinateDimension
 13
106.9219881361
 23
214.7204867465
 33
0.0
 14
82.2255909457
 24
214.7204867465
 34
0.0
  0
DIMENSION
  5
1A9
330
1F
100
AcDbEntity
  8
0
  6
Continuous
 62
     7
370
    18
100
AcDbDimension
  2
_D_18
 10
229.4219881361
 20
87.2204867465
 30
0.0
 11
251.1546269534
 21
87.2204867465
 31
0.0
 70
    38
  1
<>
 71
     5
 42
-1.0
  3
SLDDIMSTYLE0
100
AcDbOrdinateDimension
 13
229.4219881361
 23
87.2204867465
 33
0.0
 14
247.9219881361
 24
87.2204867465
 34
0.0
  0
DIMENSION
  5
1B2
330
1F
100
AcDbEntity
  8
0
  6
Continuous
 62
     7
370
    18
100
AcDbDimension
  2
_D_19
 10
229.4219881361
 20
87.2204867465
 30
0.0
 11
251.1546269534
 21
93.137803767
 31
0.0
 70
    38
  1
<>
 71
     5
 42
-1.0
  3
SLDDIMSTYLE3
100
AcDbOrdinateDimension
 13
170.3219881361
 23
90.7204867465
 33
0.0
 14
247.9219881361
 24
93.137803767
 34
0.0
  0
DIMENSION
  5
1BD
330
1F
100
AcDbEntity
  8
0
  6
Continuous
 62
     7
370
    18
100
AcDbDimension
  2
_D_20
 10
229.4219881361
 20
87.2204867465
 30
0.0
 11
251.1546269534
 21
99.6076202588
 31
0.0
 70
    38
  1
<>
 71
     5
 42
-1.0
  3
SLDDIMSTYLE1
100
AcDbOrdinateDimension
 13
124.9469881361
 23
91.8454867465
 33
0.0
 14
247.9219881361
 24
99.6076202588
 34
0.0
  0
DIMENSION
  5
1C7
330
1F
100
AcDbEntity
  8
0
  6
Continuous
 62
     7
370
    18
100
AcDbDimension
  2
_D_21
 10
229.4219881361
 20
87.2204867465
 30
0.0
 11
252.4476826666
 21
105.5954867465
 31
0.0
 70
    38
  1
<>
 71
     5
 42
-1.0
  3
SLDDIMSTYLE1
100
AcDbOrdinateDimension
 13
111.2594881361
 23
105.5954867465
 33
0.0
 14
247.9219881361
 24
105.5954867465
 34
0.0
  0
DIMENSION
  5
1CF
330
1F
100
AcDbEntity
  8
0
  6
Continuous
 62
     7
370
    18
100
AcDbDimension
  2
_D_22
 10
229.4219881361
 20
87.2204867465
 30
0.0
 11
253.7407383798
 21
143.4704867465
 31
0.0
 70
    38
  1
<>
 71
     5
 42
-1.0
  3
SLDDIMSTYLE1
100
AcDbOrdinateDimension
 13
170.3219881361
 23
143.4704867465
 33
0.0
 14
247.9219881361
 24
143.4704867465
 34
0.0
  0
DIMENSION
  5
1D7
330
1F
100
AcDbEntity
  8
0
  6
Continuous
 62
     7
370
    18
100
AcDbDimension
  2
_D_23
 10
229.4219881361
 20
87.2204867465
 30
0.0
 11
253.7407383798
 21
150.9704867465
 31
0.0
 70
    38
  1
<>
 71
     5
 42
-1.0
  3
SLDDIMSTYLE1
100
AcDbOrdinateDimension
 13
162.8219881361
 23
150.9704867465
 33
0.0
 14
247.9219881361
 24
150.9704867465
 34
0.0
  0
DIMENSION
  5
1DF
330
1F
100
AcDbEntity
  8
0
  6
Continuous
 62
     7
370
    18
100
AcDbDimension
  2
_D_24
 10
229.4219881361
 20
87.2204867465
 30
0.0
 11
253.7407383798
 21
158.4704867465
 31
0.0
 70
    38
  1
<>
 71
     5
 42
-1.0
  3
SLDDIMSTYLE1
100
AcDbOrdinateDimension
 13
170.3219881361
 23
158.4704867465
 33
0.0
 14
247.9219881361
 24
158.4704867465
 34
0.0
  0
DIMENSION
  5
1E7
330
1F
100
AcDbEntity
  8
0
  6
Continuous
 62
     7
370
    18
100
AcDbDimension
  2
_D_25
 10
229.4219881361
 20
87.2204867465
 30
0.0
 11
253.7407383798
 21
196.3454867465
 31
0.0
 70
    38
  1
<>
 71
     5
 42
-1.0
  3
SLDDIMSTYLE1
100
AcDbOrdinateDimension
 13
111.1969881361
 23
196.3454867465
 33
0.0
 14
247.9219881361
 24
196.3454867465
 34
0.0
  0
DIMENSION
  5
1EF
330
1F
100
AcDbEntity
  8
0
  6
Continuous
 62
     7
370
    18
100
AcDbDimension
  2
_D_26
 10
229.4219881361
 20
87.2204867465
 30
0.0
 11
253.7407383798
 21
210.0329867465
 31
0.0
 70
    38
  1
<>
 71
     5
 42
-1.0
  3
SLDDIMSTYLE1
100
AcDbOrdinateDimension
 13
124.9469881361
 23
210.0329867465
 33
0.0
 14
247.9219881361
 24
210.0329867465
 34
0.0
  0
DIMENSION
  5
1F7
330
1F
100
AcDbEntity
  8
0
  6
Continuous
 62
     7
370
    18
100
AcDbDimension
  2
_D_27
 10
113.1719881361
 20
89.9704867465
 30
0.0
 11
133.1833790794
 21
82.8115782142
 31
0.0
 70
   164
  1
<>
 71
     1
 42
-1.0
  3
SLDDIMSTYLE4
100
AcDbRadialDimension
 15
0.0
 25
0.0
 35
0.0
 40
0.0
  0
DIMENSION
  5
201
330
1F
100
AcDbEntity
  8
0
  6
Continuous
 62
     7
370
    18
100
AcDbDimension
  2
_D_28
 10
229.4219881361
 20
89.7204867465
 30
0.0
 11
243.5074570808
 21
81.1445681366
 31
0.0
 70
   164
  1
<>
 71
     1
 42
-1.0
  3
SLDDIMSTYLE5
100
AcDbRadialDimension
 15
230.84352188
 25
87.6639746957
 35
0.0
 40
0.0
  0
DIMENSION
  5
20A
330
1F
100
AcDbEntity
  8
0
  6
Continuous
 62
     7
370
    18
100
AcDbDimension
  2
_D_29
 10
167.658528894
 20
91.4596481677
 30
0.0
 11
198.3485093764
 21
82.5019106189
 31
0.0
 70
   163
  1
6 x <> THRU ALL\P
 71
     1
 42
-1.0
  3
SLDDIMSTYLE6
100
AcDbDiametricDimension
 15
168.6854473783
 25
89.9813253253
 35
0.0
 40
0.0
  0
DIMENSION
  5
216
330
1F
100
AcDbEntity
  8
0
  6
Continuous
 62
     7
370
    18
100
AcDbDimension
  2
_D_30
 10
226.5185473911
 20
105.1437899383
 30
0.0
 11
275.8129726077
 21
121.984657444
 31
0.0
 70
   163
  1
12 x <> THRU ALL\P
 71
     1
 42
-1.0
  3
SLDDIMSTYLE7
100
AcDbDiametricDimension
 15
228.0754288811
 25
106.0471835547
 35
0.0
 40
0.0
  0
DIMENSION
  5
221
330
1F
100
AcDbEntity
  8
0
  6
Continuous
 62
     7
370
    18
100
AcDbDimension
  2
_D_31
 10
170.5029968294
 20
150.0669390323
 30
0.0
 11
88.9841372301
 21
178.6817492352
 31
0.0
 70
   163
  1
<> THRU
 71
     1
 42
-1.0
  3
SLDDIMSTYLE8
100
AcDbDiametricDimension
 15
165.8409794429
 25
151.8740344608
 35
0.0
 40
0.0
  0
INSERT
  5
237
330
1F
100
AcDbEntity
  8
0
  6
Continuous
 62
     7
370
     0
100
AcDbBlockReference
  2
SW_CENTERMARKSYMBOL_0
 10
227.2969881361
 20
105.5954867465
 30
0.0
  0
INSERT
  5
243
330
1F
100
AcDbEntity
  8
0
  6
Continuous
 62
     7
370
     0
100
AcDbBlockReference
  2
SW_CENTERMARKSYMBOL_1
 10
213.5469881361
 20
105.5954867465
 30
0.0
  0
INSERT
  5
24F
330
1F
100
AcDbEntity
  8
0
  6
Continuous
 62
     7
370
     0
100
AcDbBlockReference
  2
SW_CENTERMARKSYMBOL_2
 10
213.5469881361
 20
91.9079867465
 30
0.0
  0
INSERT
  5
25B
330
1F
100
AcDbEntity
  8
0
  6
Continuous
 62
     7
370
     0
100
AcDbBlockReference
  2
SW_CENTERMARKSYMBOL_3
 10
122.7969881361
 20
91.8454867465
 30
0.0
  0
INSERT
  5
267
330
1F
100
AcDbEntity
  8
0
  6
Continuous
 62
     7
370
     0
100
AcDbBlockReference
  2
SW_CENTERMARKSYMBOL_4
 10
122.7969881361
 20
105.5954867465
 30
0.0
  0
INSERT
  5
273
330
1F
100
AcDbEntity
  8
0
  6
Continuous
 62
     7
370
     0
100
AcDbBlockReference
  2
SW_CENTERMARKSYMBOL_5
 10
109.1094881361
 20
105.5954867465
 30
0.0
  0
INSERT
  5
27F
330
1F
100
AcDbEntity
  8
0
  6
Continuous
 62
     7
370
     0
100
AcDbBlockReference
  2
SW_CENTERMARKSYMBOL_6
 10
227.2344881361
 20
196.3454867465
 30
0.0
  0
INSERT
  5
28B
330
1F
100
AcDbEntity
  8
0
  6
Continuous
 62
     7
370
     0
100
AcDbBlockReference
  2
SW_CENTERMARKSYMBOL_7
 10
213.5469881361
 20
196.3454867465
 30
0.0
  0
INSERT
  5
297
330
1F
100
AcDbEntity
  8
0
  6
Continuous
 62
     7
370
     0
100
AcDbBlockReference
  2
SW_CENTERMARKSYMBOL_8
 10
213.5469881361
 20
210.0954867465
 30
0.0
  0
INSERT
  5
2A3
330
1F
100
AcDbEntity
  8
0
  6
Continuous
 62
     7
370
     0
100
AcDbBlockReference
  2
SW_CENTERMARKSYMBOL_9
 10
122.7969881361
 20
210.0329867465
 30
0.0
  0
INSERT
  5
2AF
330
1F
100
AcDbEntity
  8
0
  6
Continuous
 62
     7
370
     0
100
AcDbBlockReference
  2
SW_CENTERMARKSYMBOL_10
 10
122.7969881361
 20
196.3454867465
 30
0.0
  0
INSERT
  5
2BB
330
1F
100
AcDbEntity
  8
0
  6
Continuous
 62
     7
370
     0
100
AcDbBlockReference
  2
SW_CENTERMARKSYMBOL_11
 10
109.0469881361
 20
196.3454867465
 30
0.0
  0
INSERT
  5
2C7
330
1F
100
AcDbEntity
  8
0
  6
Continuous
 62
     7
370
     0
100
AcDbBlockReference
  2
SW_CENTERMARKSYMBOL_12
 10
175.6719881361
 20
150.9704867465
 30
0.0
  0
INSERT
  5
2D3
330
1F
100
AcDbEntity
  8
0
  6
Continuous
 62
     7
370
     0
100
AcDbBlockReference
  2
SW_CENTERMARKSYMBOL_13
 10
168.1719881361
 20
143.4704867465
 30
0.0
  0
INSERT
  5
2DF
330
1F
100
AcDbEntity
  8
0
  6
Continuous
 62
     7
370
     0
100
AcDbBlockReference
  2
SW_CENTERMARKSYMBOL_14
 10
168.1719881361
 20
158.4704867465
 30
0.0
  0
INSERT
  5
2EB
330
1F
100
AcDbEntity
  8
0
  6
Continuous
 62
     7
370
     0
100
AcDbBlockReference
  2
SW_CENTERMARKSYMBOL_15
 10
160.6719881361
 20
150.9704867465
 30
0.0
  0
INSERT
  5
2F7
330
1F
100
AcDbEntity
  8
0
  6
Continuous
 62
     7
370
     0
100
AcDbBlockReference
  2
SW_CENTERMARKSYMBOL_16
 10
168.1719881361
 20
150.9704867465
 30
0.0
  0
INSERT
  5
303
330
1F
100
AcDbEntity
  8
0
  6
Continuous
 62
     7
370
     0
100
AcDbBlockReference
  2
SW_CENTERMARKSYMBOL_17
 10
168.1719881361
 20
90.7204867465
 30
0.0
  0
INSERT
  5
30F
330
1F
100
AcDbEntity
  8
0
  6
Continuous
 62
     7
370
     0
100
AcDbBlockReference
  2
SW_CENTERMARKSYMBOL_18
 10
168.1719881361
 20
95.7204867465
 30
0.0
  0
SOLID
  5
310
330
1F
100
AcDbEntity
  8
0
  6
Continuous
 62
     7
370
    18
100
AcDbTrace
 10
113.5774817749
 20
89.6779548526
 30
0.0
 11
115.9581493609
 21
87.3340926884
 31
0.0
 12
116.5525741693
 22
88.1580557623
 32
0.0
 13
116.5525741693
 23
88.1580557623
 33
0.0
  0
LINE
  5
311
330
1F
100
AcDbEntity
  8
0
  6
Continuous
 62
     7
370
     0
100
AcDbLine
 10
113.5774817749
 20
89.6779548526
 30
0.0
 11
126.9462259799
 21
80.0334532187
 31
0.0
  0
ENDSEC
  0
SECTION
  2
OBJECTS
  0
DICTIONARY
  5
C
330
0
100
AcDbDictionary
281
     1
  3
ACAD_GROUP
350
D
  3
ACAD_LAYOUT
350
1A
  3
ACAD_MLINESTYLE
350
17
  3
ACAD_PLOTSETTINGS
350
19
  3
ACAD_PLOTSTYLENAME
350
E
  3
ACAD_SCALELIST
350
47
  3
DWGPROPS
350
312
  0
DICTIONARY
  5
D
102
{ACAD_REACTORS
330
C
102
}
330
C
100
AcDbDictionary
281
     1
  0
DICTIONARY
  5
1A
102
{ACAD_REACTORS
330
C
102
}
330
C
100
AcDbDictionary
281
     1
  3
Layout1
350
1E
  3
Layout2
350
26
  3
Model
350
22
  0
DICTIONARY
  5
17
102
{ACAD_REACTORS
330
C
102
}
330
C
100
AcDbDictionary
281
     1
  3
Standard
350
18
  0
DICTIONARY
  5
19
102
{ACAD_REACTORS
330
C
102
}
330
C
100
AcDbDictionary
281
     1
  0
ACDBDICTIONARYWDFLT
  5
E
102
{ACAD_REACTORS
330
C
102
}
330
C
100
AcDbDictionary
281
     1
  3
Normal
350
F
100
AcDbDictionaryWithDefault
340
F
  0
DICTIONARY
  5
47
102
{ACAD_REACTORS
330
C
102
}
330
C
100
AcDbDictionary
281
     1
  3
A0
350
48
  3
A1
350
49
  3
A2
350
4A
  3
A3
350
4B
  3
A4
350
4C
  3
A5
350
4D
  3
A6
350
4E
  3
A7
350
4F
  3
A8
350
50
  3
A9
350
51
  3
B0
350
52
  3
B1
350
53
  3
B2
350
54
  3
B3
350
55
  3
B4
350
56
  3
B5
350
57
  3
B6
350
58
  3
B7
350
59
  3
B8
350
5A
  3
B9
350
5B
  3
C0
350
5C
  3
C1
350
5D
  3
C2
350
5E
  3
C3
350
5F
  3
C4
350
60
  3
C5
350
61
  3
C6
350
62
  3
C7
350
63
  3
C8
350
64
  3
C9
350
65
  3
D0
350
66
  3
D1
350
67
  3
D2
350
68
  0
XRECORD
  5
312
102
{ACAD_REACTORS
330
C
102
}
330
C
100
AcDbXrecord
280
     1
  1
DWGPROPS COOKIE
  2

  3

  4

  6

  7

  8
darai
  9

300
=
301
=
302
=
303
=
304
=
305
=
306
=
307
=
308
=
309
=
 40
0.0
 41
2460362.659816516
 42
2460362.659822662
  1

 90
        0
  0
LAYOUT
  5
1E
102
{ACAD_REACTORS
330
1A
102
}
330
1A
100
AcDbPlotSettings
  1

  2
none_device
  4

  6

 40
0.0
 41
0.0
 42
0.0
 43
0.0
 44
0.0
 45
0.0
 46
0.0
 47
0.0
 48
0.0
 49
0.0
140
0.0
141
0.0
142
1.0
143
1.0
 70
   688
 72
     1
 73
     0
 74
     5
  7

 75
    16
147
1.0
148
0.0
149
0.0
100
AcDbLayout
  1
Layout1
 70
     1
 71
     1
 10
0.0
 20
0.0
 11
420.0
 21
297.0
 12
0.0
 22
0.0
 32
0.0
 14
1.0000000000E+20
 24
1.0000000000E+20
 34
1.0000000000E+20
 15
-1.0000000000E+20
 25
-1.0000000000E+20
 35
-1.0000000000E+20
146
0.0
 13
0.0
 23
0.0
 33
0.0
 16
1.0
 26
0.0
 36
0.0
 17
0.0
 27
1.0
 37
0.0
 76
     0
330
1B
  0
LAYOUT
  5
26
102
{ACAD_REACTORS
330
1A
102
}
330
1A
100
AcDbPlotSettings
  1

  2
none_device
  4

  6

 40
0.0
 41
0.0
 42
0.0
 43
0.0
 44
0.0
 45
0.0
 46
0.0
 47
0.0
 48
0.0
 49
0.0
140
0.0
141
0.0
142
1.0
143
1.0
 70
   688
 72
     1
 73
     0
 74
     5
  7

 75
    16
147
1.0
148
0.0
149
0.0
100
AcDbLayout
  1
Layout2
 70
     1
 71
     2
 10
0.0
 20
0.0
 11
0.0
 21
0.0
 12
0.0
 22
0.0
 32
0.0
 14
0.0
 24
0.0
 34
0.0
 15
0.0
 25
0.0
 35
0.0
146
0.0
 13
0.0
 23
0.0
 33
0.0
 16
1.0
 26
0.0
 36
0.0
 17
0.0
 27
1.0
 37
0.0
 76
     0
330
23
  0
LAYOUT
  5
22
102
{ACAD_REACTORS
330
1A
102
}
330
1A
100
AcDbPlotSettings
  1

  2
none_device
  4
Letter_(8.50_x_11.00_Inches)
  6

 40
6.35
 41
6.35
 42
6.35000508
 43
6.35000508
 44
215.9
 45
279.4
 46
0.0
 47
0.0
 48
0.0
 49
0.0
140
0.0
141
0.0
142
1.0
143
1.0
 70
  1712
 72
     1
 73
     0
 74
     0
  7

 75
     0
147
1.0
148
0.0
149
0.0
100
AcDbLayout
  1
Model
 70
     1
 71
     0
 10
0.0
 20
0.0
 11
420.0
 21
297.0
 12
0.0
 22
0.0
 32
0.0
 14
0.0
 24
0.0
 34
0.0
 15
420.0
 25
297.0
 35
0.0
146
0.0
 13
0.0
 23
0.0
 33
0.0
 16
1.0
 26
0.0
 36
0.0
 17
0.0
 27
1.0
 37
0.0
 76
     0
330
1F
331
29
  0
MLINESTYLE
  5
18
102
{ACAD_REACTORS
330
17
102
}
330
17
100
AcDbMlineStyle
  2
Standard
 70
     0
  3

 62
   256
 51
90.0
 52
90.0
 71
     2
 49
0.5
 62
   256
  6
BYLAYER
 49
-0.5
 62
   256
  6
BYLAYER
  0
ACDBPLACEHOLDER
  5
F
102
{ACAD_REACTORS
330
E
102
}
330
E
  0
SCALE
  5
48
102
{ACAD_REACTORS
330
47
102
}
330
47
100
AcDbScale
 70
     0
300
1:1
140
1.0
141
1.0
290
     1
  0
SCALE
  5
49
102
{ACAD_REACTORS
330
47
102
}
330
47
100
AcDbScale
 70
     0
300
1:2
140
1.0
141
2.0
290
     0
  0
SCALE
  5
4A
102
{ACAD_REACTORS
330
47
102
}
330
47
100
AcDbScale
 70
     0
300
1:4
140
1.0
141
4.0
290
     0
  0
SCALE
  5
4B
102
{ACAD_REACTORS
330
47
102
}
330
47
100
AcDbScale
 70
     0
300
1:5
140
1.0
141
5.0
290
     0
  0
SCALE
  5
4C
102
{ACAD_REACTORS
330
47
102
}
330
47
100
AcDbScale
 70
     0
300
1:8
140
1.0
141
8.0
290
     0
  0
SCALE
  5
4D
102
{ACAD_REACTORS
330
47
102
}
330
47
100
AcDbScale
 70
     0
300
1:10
140
1.0
141
10.0
290
     0
  0
SCALE
  5
4E
102
{ACAD_REACTORS
330
47
102
}
330
47
100
AcDbScale
 70
     0
300
1:16
140
1.0
141
16.0
290
     0
  0
SCALE
  5
4F
102
{ACAD_REACTORS
330
47
102
}
330
47
100
AcDbScale
 70
     0
300
1:20
140
1.0
141
20.0
290
     0
  0
SCALE
  5
50
102
{ACAD_REACTORS
330
47
102
}
330
47
100
AcDbScale
 70
     0
300
1:30
140
1.0
141
30.0
290
     0
  0
SCALE
  5
51
102
{ACAD_REACTORS
330
47
102
}
330
47
100
AcDbScale
 70
     0
300
1:40
140
1.0
141
40.0
290
     0
  0
SCALE
  5
52
102
{ACAD_REACTORS
330
47
102
}
330
47
100
AcDbScale
 70
     0
300
1:50
140
1.0
141
50.0
290
     0
  0
SCALE
  5
53
102
{ACAD_REACTORS
330
47
102
}
330
47
100
AcDbScale
 70
     0
300
1:100
140
1.0
141
100.0
290
     0
  0
SCALE
  5
54
102
{ACAD_REACTORS
330
47
102
}
330
47
100
AcDbScale
 70
     0
300
2:1
140
2.0
141
1.0
290
     0
  0
SCALE
  5
55
102
{ACAD_REACTORS
330
47
102
}
330
47
100
AcDbScale
 70
     0
300
4:1
140
4.0
141
1.0
290
     0
  0
SCALE
  5
56
102
{ACAD_REACTORS
330
47
102
}
330
47
100
AcDbScale
 70
     0
300
8:1
140
8.0
141
1.0
290
     0
  0
SCALE
  5
57
102
{ACAD_REACTORS
330
47
102
}
330
47
100
AcDbScale
 70
     0
300
10:1
140
10.0
141
1.0
290
     0
  0
SCALE
  5
58
102
{ACAD_REACTORS
330
47
102
}
330
47
100
AcDbScale
 70
     0
300
100:1
140
100.0
141
1.0
290
     0
  0
SCALE
  5
59
102
{ACAD_REACTORS
330
47
102
}
330
47
100
AcDbScale
 70
     0
300
1/128" = 1'-0"
140
0.0078125
141
12.0
290
     0
  0
SCALE
  5
5A
102
{ACAD_REACTORS
330
47
102
}
330
47
100
AcDbScale
 70
     0
300
1/64" = 1'-0"
140
0.015625
141
12.0
290
     0
  0
SCALE
  5
5B
102
{ACAD_REACTORS
330
47
102
}
330
47
100
AcDbScale
 70
     0
300
1/32" = 1'-0"
140
0.03125
141
12.0
290
     0
  0
SCALE
  5
5C
102
{ACAD_REACTORS
330
47
102
}
330
47
100
AcDbScale
 70
     0
300
1/16" = 1'-0"
140
0.0625
141
12.0
290
     0
  0
SCALE
  5
5D
102
{ACAD_REACTORS
330
47
102
}
330
47
100
AcDbScale
 70
     0
300
3/32" = 1'-0"
140
0.09375
141
12.0
290
     0
  0
SCALE
  5
5E
102
{ACAD_REACTORS
330
47
102
}
330
47
100
AcDbScale
 70
     0
300
1/8" = 1'-0"
140
0.125
141
12.0
290
     0
  0
SCALE
  5
5F
102
{ACAD_REACTORS
330
47
102
}
330
47
100
AcDbScale
 70
     0
300
3/16" = 1'-0"
140
0.1875
141
12.0
290
     0
  0
SCALE
  5
60
102
{ACAD_REACTORS
330
47
102
}
330
47
100
AcDbScale
 70
     0
300
1/4" = 1'-0"
140
0.25
141
12.0
290
     0
  0
SCALE
  5
61
102
{ACAD_REACTORS
330
47
102
}
330
47
100
AcDbScale
 70
     0
300
3/8" = 1'-0"
140
0.375
141
12.0
290
     0
  0
SCALE
  5
62
102
{ACAD_REACTORS
330
47
102
}
330
47
100
AcDbScale
 70
     0
300
1/2" = 1'-0"
140
0.5
141
12.0
290
     0
  0
SCALE
  5
63
102
{ACAD_REACTORS
330
47
102
}
330
47
100
AcDbScale
 70
     0
300
3/4" = 1'-0"
140
0.75
141
12.0
290
     0
  0
SCALE
  5
64
102
{ACAD_REACTORS
330
47
102
}
330
47
100
AcDbScale
 70
     0
300
1" = 1'-0"
140
1.0
141
12.0
290
     0
  0
SCALE
  5
65
102
{ACAD_REACTORS
330
47
102
}
330
47
100
AcDbScale
 70
     0
300
1-1/2" = 1'-0"
140
1.5
141
12.0
290
     0
  0
SCALE
  5
66
102
{ACAD_REACTORS
330
47
102
}
330
47
100
AcDbScale
 70
     0
300
3" = 1'-0"
140
3.0
141
12.0
290
     0
  0
SCALE
  5
67
102
{ACAD_REACTORS
330
47
102
}
330
47
100
AcDbScale
 70
     0
300
6" = 1'-0"
140
6.0
141
12.0
290
     0
  0
SCALE
  5
68
102
{ACAD_REACTORS
330
47
102
}
330
47
100
AcDbScale
 70
     0
300
1'-0" = 1'-0"
140
12.0
141
12.0
290
     0
  0
ENDSEC
  0
EOF
